Lato-SemiboldItalic.ufo
<glyph name="exclam" format="2">
  <advance width="517.9300000000001"/>
  <unicode hex="0021"/>
  <guideline x="326.288"/>
  <guideline x="100.0" y="0.0" angle="82.9991"/>
  <outline>
    <contour>
      <point x="257.714" y="1439.96" type="line"/>
      <point x="187.714" y="866.628" type="line" smooth="yes"/>
      <point x="172.382" y="745.9639999999999"/>
      <point x="169.71" y="639.328"/>
      <point x="169.694" y="503.972" type="curve"/>
      <point x="309.57" y="503.972" type="line"/>
      <point x="342.894" y="639.328"/>
      <point x="367.546" y="745.9639999999999"/>
      <point x="382.214" y="866.628" type="curve"/>
      <point x="452.214" y="1439.96" type="line"/>
    </contour>
    <contour>
      <point x="68.366" y="123.924" type="curve" smooth="yes"/>
      <point x="68.366" y="45.300000000000004"/>
      <point x="128.334" y="-14.668"/>
      <point x="206.958" y="-14.668" type="curve" smooth="yes"/>
      <point x="284.25" y="-14.668"/>
      <point x="346.218" y="45.300000000000004"/>
      <point x="346.218" y="123.924" type="curve" smooth="yes"/>
      <point x="346.218" y="201.216"/>
      <point x="284.25" y="263.18399999999997"/>
      <point x="206.958" y="263.18399999999997" type="curve" smooth="yes"/>
      <point x="128.334" y="263.18399999999997"/>
      <point x="68.366" y="201.216"/>
    </contour>
  </outline>
</glyph>
<glyph name="numbersign" format="2">
  <advance width="1160.0"/>
  <unicode hex="0023"/>
  <guideline x="580.0" y="0.0" angle="82.9991"/>
  <outline>
    <contour>
      <point x="235.084" y="507.3" type="line"/>
      <point x="230.42000000000002" y="469.328" type="line"/>
      <point x="81.076" y="0.0" type="line"/>
      <point x="173.66" y="0.0" type="line" smooth="yes"/>
      <point x="217.624" y="0.0"/>
      <point x="260.92" y="21.316000000000003"/>
      <point x="276.908" y="77.272" type="curve" smooth="yes"/>
      <point x="400.272" y="469.328" type="line"/>
      <point x="404.93600000000004" y="507.3" type="line"/>
      <point x="542.288" y="937.988" type="line"/>
      <point x="546.284" y="976.624" type="line"/>
      <point x="693.6320000000001" y="1438.628" type="line"/>
      <point x="599.052" y="1438.628" type="line" smooth="yes"/>
      <point x="554.42" y="1438.628"/>
      <point x="515.12" y="1411.984"/>
      <point x="500.464" y="1366.684" type="curve" smooth="yes"/>
      <point x="376.432" y="976.624" type="line"/>
      <point x="371.104" y="937.988" type="line"/>
    </contour>
    <contour>
      <point x="635.048" y="507.3" type="line"/>
      <point x="630.384" y="469.328" type="line"/>
      <point x="508.352" y="87.928" type="line"/>
      <point x="491.696" y="39.296"/>
      <point x="517.676" y="0.0"/>
      <point x="556.98" y="0.0" type="curve" smooth="yes"/>
      <point x="652.224" y="0.0" type="line"/>
      <point x="800.236" y="469.328" type="line"/>
      <point x="804.9" y="507.3" type="line"/>
      <point x="940.92" y="937.988" type="line"/>
      <point x="946.248" y="976.624" type="line"/>
      <point x="1070.28" y="1364.016" type="line"/>
      <point x="1084.272" y="1407.32"/>
      <point x="1057.628" y="1438.628"/>
      <point x="1014.996" y="1438.628" type="curve"/>
      <point x="922.412" y="1438.628" type="line"/>
      <point x="775.064" y="976.624" type="line"/>
      <point x="771.068" y="937.988" type="line"/>
    </contour>
    <contour>
      <point x="1012.304" y="416.044" type="line"/>
      <point x="1031.62" y="481.984" type="line"/>
      <point x="1047.604" y="544.596"/>
      <point x="1029.616" y="567.244"/>
      <point x="986.984" y="567.244" type="curve" smooth="yes"/>
      <point x="55.699999999999996" y="567.244" type="line"/>
      <point x="37.052" y="501.304" type="line"/>
      <point x="20.39999999999999" y="440.024"/>
      <point x="38.388" y="416.044"/>
      <point x="81.02" y="416.044" type="curve" smooth="yes"/>
    </contour>
    <contour>
      <point x="126.408" y="872.716" type="line"/>
      <point x="1043.04" y="872.716" type="line" smooth="yes"/>
      <point x="1101.656" y="872.716"/>
      <point x="1130.3" y="892.7"/>
      <point x="1142.288" y="936.664" type="curve"/>
      <point x="1169.596" y="1022.5840000000001" type="line"/>
      <point x="252.964" y="1022.5840000000001" type="line"/>
      <point x="193.016" y="1022.5840000000001"/>
      <point x="165.036" y="1002.6"/>
      <point x="151.716" y="958.636" type="curve" smooth="yes"/>
    </contour>
  </outline>
</glyph>
<glyph name="dollar" format="2">
  <advance width="1160.0"/>
  <unicode hex="0024"/>
  <guideline x="580.0" y="0.0" angle="82.9991"/>
  <outline>
    <contour>
      <point x="1114.238" y="1291.32" type="line"/>
      <point x="1032.906" y="1383.324"/>
      <point x="912.266" y="1453.296"/>
      <point x="718.99" y="1453.296" type="curve" smooth="yes"/>
      <point x="395.718" y="1453.296"/>
      <point x="195.75799999999998" y="1236.0"/>
      <point x="195.75799999999998" y="1001.3679999999999" type="curve" smooth="yes"/>
      <point x="195.75799999999998" y="565.408"/>
      <point x="843.094" y="723.4159999999999"/>
      <point x="843.094" y="433.328" type="curve" smooth="yes"/>
      <point x="843.094" y="269.932"/>
      <point x="721.038" y="157.18"/>
      <point x="503.642" y="157.18" type="curve" smooth="yes"/>
      <point x="284.93" y="157.18"/>
      <point x="222.262" y="295.88"/>
      <point x="160.966" y="295.88" type="curve" smooth="yes"/>
      <point x="138.982" y="295.88"/>
      <point x="118.334" y="284.55600000000004"/>
      <point x="104.342" y="267.236" type="curve"/>
      <point x="29.745999999999995" y="172.66" type="line"/>
      <point x="127.72999999999999" y="58.66"/>
      <point x="292.33" y="-16.0"/>
      <point x="481.662" y="-16.0" type="curve" smooth="yes"/>
      <point x="829.61" y="-16.0"/>
      <point x="1045.582" y="213.976"/>
      <point x="1045.582" y="483.948" type="curve" smooth="yes"/>
      <point x="1045.582" y="889.932"/>
      <point x="394.914" y="756.576"/>
      <point x="394.914" y="1047.992" type="curve" smooth="yes"/>
      <point x="394.914" y="1172.72"/>
      <point x="492.298" y="1278.784"/>
      <point x="716.99" y="1278.784" type="curve" smooth="yes"/>
      <point x="878.386" y="1278.784"/>
      <point x="954.358" y="1180.752"/>
      <point x="999.006" y="1180.752" type="curve" smooth="yes"/>
      <point x="1021.654" y="1180.752"/>
      <point x="1037.642" y="1190.744"/>
      <point x="1055.626" y="1214.724" type="curve"/>
    </contour>
    <contour>
      <point x="356.40999999999997" y="-231.376" type="line"/>
      <point x="433.01" y="-231.376" type="line" smooth="yes"/>
      <point x="464.986" y="-231.376"/>
      <point x="492.298" y="-205.396"/>
      <point x="496.294" y="-178.07999999999998" type="curve"/>
      <point x="856.23" y="1641.976" type="line"/>
      <point x="779.63" y="1641.976" type="line" smooth="yes"/>
      <point x="747.654" y="1641.976"/>
      <point x="721.01" y="1615.996"/>
      <point x="716.346" y="1587.348" type="curve"/>
    </contour>
  </outline>
</glyph>
<glyph name="percent" format="2">
  <advance width="1506"/>
  <unicode hex="0025"/>
  <outline>
    <contour>
      <point x="746.938" y="1147.32" type="curve" smooth="yes"/>
      <point x="746.938" y="1336.65"/>
      <point x="640.282" y="1453.3" name="n02"/>
      <point x="484.314" y="1453.3" type="curve" smooth="yes"/>
      <point x="291.678" y="1453.3"/>
      <point x="134.358" y="1295.32"/>
      <point x="134.358" y="1036.63" type="curve" smooth="yes"/>
      <point x="134.358" y="850.624"/>
      <point x="240.346" y="733.98"/>
      <point x="395.65" y="733.98" type="curve" smooth="yes" name="n09"/>
      <point x="572.298" y="733.98"/>
      <point x="746.938" y="888.624"/>
    </contour>
    <contour>
      <point x="586.41" y="1145.98" type="curve" smooth="yes"/>
      <point x="586.41" y="944.576"/>
      <point x="507.686" y="870.528"/>
      <point x="412.302" y="870.528" type="curve" smooth="yes" name="n15"/>
      <point x="343.59" y="870.528"/>
      <point x="294.218" y="917.232"/>
      <point x="294.218" y="1036.63" type="curve" smooth="yes"/>
      <point x="294.218" y="1238.04"/>
      <point x="370.278" y="1318.08"/>
      <point x="467.662" y="1318.08" type="curve" smooth="yes" name="n21"/>
      <point x="535.706" y="1318.08"/>
      <point x="586.41" y="1268.04"/>
    </contour>
    <contour>
      <point x="79.078" y="0" type="line" name="n24"/>
      <point x="231.606" y="0" type="line" smooth="yes"/>
      <point x="261.582" y="0"/>
      <point x="283.566" y="13.988"/>
      <point x="299.554" y="31.976" type="curve"/>
      <point x="1453.48" y="1438.63" type="line"/>
      <point x="1303.62" y="1438.63" type="line" smooth="yes" name="n30"/>
      <point x="1267.65" y="1438.63"/>
      <point x="1247.66" y="1421.98"/>
      <point x="1231.01" y="1405.32" type="curve"/>
    </contour>
    <contour>
      <point x="1398.88" y="396.004" type="curve" smooth="yes"/>
      <point x="1398.88" y="585.34"/>
      <point x="1292.22" y="701.984"/>
      <point x="1136.25" y="701.984" type="curve" smooth="yes" name="n37"/>
      <point x="943.618" y="701.984"/>
      <point x="786.298" y="544.008"/>
      <point x="786.298" y="283.984" type="curve" smooth="yes"/>
      <point x="786.298" y="99.312"/>
      <point x="892.286" y="-17.332"/>
      <point x="1047.59" y="-17.332" type="curve" smooth="yes" name="n43"/>
      <point x="1224.24" y="-17.332"/>
      <point x="1398.88" y="135.98"/>
    </contour>
    <contour>
      <point x="1238.35" y="394.672" type="curve" smooth="yes"/>
      <point x="1238.35" y="193.264"/>
      <point x="1159.63" y="117.884"/>
      <point x="1064.24" y="117.884" type="curve" smooth="yes" name="n49"/>
      <point x="995.53" y="117.884"/>
      <point x="946.158" y="165.92"/>
      <point x="946.158" y="283.984" type="curve" smooth="yes"/>
      <point x="946.158" y="485.392"/>
      <point x="1022.22" y="565.436"/>
      <point x="1119.6" y="565.436" type="curve" smooth="yes" name="n55"/>
      <point x="1187.65" y="565.436"/>
      <point x="1238.35" y="516.732"/>
    </contour>
  </outline>
  <guideline angle="82.9991" x="691" y="0"/>
</glyph>
<glyph name="ampersand" format="2">
  <advance width="1326"/>
  <unicode hex="0026"/>
  <outline>
    <contour>
      <point x="473.686" y="833.948" type="line"/>
      <point x="243.03" y="764.616"/>
      <point x="48.37" y="584.612"/>
      <point x="48.37" y="342.624" type="curve" smooth="yes"/>
      <point x="48.37" y="121.976"/>
      <point x="197.71" y="-16" name="n05"/>
      <point x="430.97" y="-16" type="curve" smooth="yes"/>
      <point x="819.622" y="-16"/>
      <point x="1140.23" y="350.036"/>
      <point x="1193.55" y="759.196" type="curve"/>
      <point x="1049.02" y="759.196" type="line" smooth="yes"/>
      <point x="1020.04" y="759.196"/>
      <point x="1007.38" y="740.544"/>
      <point x="1002.05" y="713.23" type="curve" smooth="yes"/>
      <point x="949.724" y="435.942"/>
      <point x="735.686" y="150.52"/>
      <point x="474.93" y="150.52" type="curve" smooth="yes" name="n16"/>
      <point x="346.258" y="150.52"/>
      <point x="261.514" y="232.536"/>
      <point x="261.514" y="369.932" type="curve" smooth="yes"/>
      <point x="261.514" y="532.652"/>
      <point x="362.922" y="672.692"/>
      <point x="595.574" y="750.016" type="curve"/>
    </contour>
    <contour>
      <point x="725.646" y="1454.63" type="curve" smooth="yes" name="n23"/>
      <point x="474.366" y="1454.63"/>
      <point x="312.382" y="1272"/>
      <point x="312.382" y="1048.68" type="curve" smooth="yes"/>
      <point x="312.382" y="943.34"/>
      <point x="349.73" y="827.36"/>
      <point x="437.074" y="714.688" type="curve" smooth="yes"/>
      <point x="941.838" y="60.616" type="line" smooth="yes"/>
      <point x="977.146" y="15.984"/>
      <point x="1001.79" y="0"/>
      <point x="1069.74" y="0" type="curve" smooth="yes" name="n33"/>
      <point x="1248.24" y="0" type="line"/>
      <point x="592.934" y="841.244" type="line"/>
      <point x="533.57" y="921.272"/>
      <point x="505.546" y="994.64"/>
      <point x="505.546" y="1063.34" type="curve" smooth="yes"/>
      <point x="505.546" y="1192.4"/>
      <point x="584.266" y="1294.77"/>
      <point x="706.998" y="1294.77" type="curve" smooth="yes" name="n41"/>
      <point x="801.742" y="1294.77"/>
      <point x="850.422" y="1224.69"/>
      <point x="865.074" y="1152.02" type="curve"/>
      <point x="874.398" y="1118.7"/>
      <point x="891.054" y="1110.71"/>
      <point x="926.358" y="1117.37" type="curve" smooth="yes"/>
      <point x="1049.24" y="1141.34" type="line"/>
      <point x="1051.91" y="1312"/>
      <point x="934.246" y="1454.63"/>
    </contour>
  </outline>
  <guideline angle="82.9991" x="627" y="0"/>
</glyph>
<glyph name="quotesingle" format="2">
  <advance width="397"/>
  <unicode hex="0027"/>
  <outline>
    <contour>
      <point x="209.39" y="1438.63" type="line" name="n00"/>
      <point x="172.722" y="1149.96" type="line"/>
      <point x="172.706" y="993.96" type="line"/>
      <point x="176.702" y="944.672"/>
      <point x="193.354" y="916.696" name="n04"/>
      <point x="233.986" y="916.696" type="curve" smooth="yes"/>
      <point x="281.278" y="916.696"/>
      <point x="301.926" y="944.672"/>
      <point x="315.246" y="993.96" type="curve"/>
      <point x="352.562" y="1149.96" type="line"/>
      <point x="388.562" y="1438.63" type="line"/>
    </contour>
  </outline>
  <guideline angle="90" x="197" y="0"/>
  <guideline angle="82.9991" x="100" y="0"/>
</glyph>
<glyph name="parenleft" format="2">
  <advance width="525.288"/>
  <unicode hex="0028"/>
  <guideline x="276.0" y="0.0" angle="82.9991"/>
  <outline>
    <contour>
      <point x="257.224" y="436.688" type="curve"/>
      <point x="257.224" y="822.736"/>
      <point x="367.23199999999997" y="1121.364"/>
      <point x="551.956" y="1419.396" type="curve" smooth="yes"/>
      <point x="581.932" y="1466.024"/>
      <point x="565.28" y="1488.008"/>
      <point x="544.6320000000001" y="1503.328" type="curve"/>
      <point x="458.70799999999997" y="1558.612" type="line"/>
      <point x="156.0" y="1136.56"/>
      <point x="76.048" y="806.628"/>
      <point x="76.048" y="419.364" type="curve"/>
      <point x="76.048" y="194.048"/>
      <point x="122.048" y="-74.592"/>
      <point x="231.388" y="-302.604" type="curve"/>
      <point x="329.3" y="-247.32" type="line"/>
      <point x="354.612" y="-232.0"/>
      <point x="375.928" y="-210.016"/>
      <point x="357.94" y="-163.388" type="curve"/>
      <point x="291.24" y="9.976000000000003"/>
      <point x="257.224" y="246.656"/>
    </contour>
  </outline>
</glyph>
<glyph name="parenright" format="2">
  <advance width="525"/>
  <unicode hex="0029"/>
  <outline>
    <contour>
      <point x="272.404" y="819.32" type="curve" smooth="yes"/>
      <point x="272.404" y="448.636"/>
      <point x="162.396" y="134.644"/>
      <point x="-22.328" y="-163.388" type="curve"/>
      <point x="-52.304" y="-210.016"/>
      <point x="-36.32" y="-232"/>
      <point x="-15.004" y="-247.32" type="curve"/>
      <point x="69.588" y="-302.604" type="line" name="n07"/>
      <point x="373.628" y="119.448"/>
      <point x="452.912" y="449.38"/>
      <point x="452.912" y="836.644" type="curve" smooth="yes"/>
      <point x="452.912" y="1063.29"/>
      <point x="406.912" y="1330.6"/>
      <point x="298.24" y="1558.61" type="curve" name="n13"/>
      <point x="199.66" y="1503.33" type="line"/>
      <point x="174.348" y="1488.01"/>
      <point x="153.7" y="1466.02"/>
      <point x="171.02" y="1419.4" type="curve" smooth="yes"/>
      <point x="236.388" y="1246.03"/>
      <point x="272.404" y="1009.35"/>
    </contour>
  </outline>
  <guideline angle="82.9991" x="276" y="0"/>
</glyph>
<glyph name="asterisk" format="2">
  <advance width="790.994"/>
  <unicode hex="002A"/>
  <guideline x="368.0" y="0.0" angle="82.9991"/>
  <outline>
    <contour>
      <point x="195.692" y="972.08" type="line"/>
      <point x="357.06399999999996" y="1068.768" type="line" smooth="yes"/>
      <point x="392.376" y="1088.756"/>
      <point x="419.02" y="1109.404"/>
      <point x="437.688" y="1143.388" type="curve"/>
      <point x="421.036" y="1181.356" type="line"/>
      <point x="385.048" y="1184.012"/>
      <point x="352.408" y="1174.688"/>
      <point x="318.428" y="1154.7" type="curve" smooth="yes"/>
      <point x="157.05599999999998" y="1058.012" type="line"/>
    </contour>
    <contour>
      <point x="471.632" y="851.408" type="line"/>
      <point x="495.636" y="1043.444" type="line" smooth="yes"/>
      <point x="500.3" y="1082.088"/>
      <point x="495.636" y="1114.06"/>
      <point x="478.32" y="1144.056" type="curve"/>
      <point x="437.688" y="1144.056" type="line"/>
      <point x="411.704" y="1116.06"/>
      <point x="400.38" y="1082.088"/>
      <point x="395.716" y="1042.112" type="curve" smooth="yes"/>
      <point x="371.712" y="851.408" type="line"/>
    </contour>
    <contour>
      <point x="737.608" y="1056.68" type="line"/>
      <point x="599.572" y="1154.7" type="line" smooth="yes"/>
      <point x="570.256" y="1176.02"/>
      <point x="538.284" y="1184.012"/>
      <point x="504.296" y="1181.356" type="curve"/>
      <point x="477.652" y="1143.388" type="line"/>
      <point x="486.992" y="1108.7359999999999"/>
      <point x="510.304" y="1088.756"/>
      <point x="540.288" y="1068.768" type="curve"/>
      <point x="678.988" y="972.08" type="line"/>
    </contour>
    <contour>
      <point x="453.032" y="1509.972" type="line"/>
      <point x="429.028" y="1317.936" type="line" smooth="yes"/>
      <point x="424.364" y="1280.624"/>
      <point x="429.028" y="1247.984"/>
      <point x="445.68" y="1217.988" type="curve"/>
      <point x="487.644" y="1217.988" type="line"/>
      <point x="512.96" y="1246.652"/>
      <point x="524.284" y="1280.624"/>
      <point x="528.948" y="1319.268" type="curve" smooth="yes"/>
      <point x="552.952" y="1509.972" type="line"/>
    </contour>
    <contour>
      <point x="186.392" y="1304.7" type="line"/>
      <point x="325.092" y="1206.68" type="line" smooth="yes"/>
      <point x="354.408" y="1186.692"/>
      <point x="385.048" y="1177.368"/>
      <point x="421.036" y="1180.688" type="curve"/>
      <point x="445.68" y="1218.656" type="line"/>
      <point x="437.004" y="1251.308"/>
      <point x="414.36" y="1273.956"/>
      <point x="385.044" y="1292.612" type="curve" smooth="yes"/>
      <point x="246.344" y="1390.632" type="line"/>
    </contour>
    <contour>
      <point x="729.64" y="1389.3" type="line"/>
      <point x="568.268" y="1292.612" type="line" smooth="yes"/>
      <point x="532.956" y="1273.956"/>
      <point x="505.644" y="1251.308"/>
      <point x="487.644" y="1218.656" type="curve"/>
      <point x="504.296" y="1180.688" type="line"/>
      <point x="538.284" y="1176.032"/>
      <point x="570.924" y="1188.024"/>
      <point x="606.236" y="1206.68" type="curve" smooth="yes"/>
      <point x="767.608" y="1303.368" type="line"/>
    </contour>
    <contour>
      <point x="417.036" y="1204.668" type="line"/>
      <point x="404.384" y="1148.052" type="line"/>
      <point x="448.344" y="1113.416" type="line"/>
      <point x="510.956" y="1146.72" type="line"/>
      <point x="519.616" y="1211.996" type="line"/>
      <point x="474.32" y="1234.64" type="line"/>
    </contour>
  </outline>
</glyph>
<glyph name="plus" format="2">
  <advance width="1160"/>
  <unicode hex="002B"/>
  <outline>
    <contour>
      <point x="95.366" y="593.4" type="line" name="n00"/>
      <point x="1061.32" y="593.4" type="line"/>
      <point x="1080.64" y="749.264" type="line"/>
      <point x="114.682" y="749.264" type="line" name="n03"/>
    </contour>
    <contour>
      <point x="564.074" y="1168.65" type="line" name="n04"/>
      <point x="440.746" y="172.016" type="line" name="n05"/>
      <point x="609.93" y="172.016" type="line"/>
      <point x="731.926" y="1168.65" type="line"/>
    </contour>
  </outline>
  <guideline angle="82.9991" x="580" y="0"/>
</glyph>
<glyph name="comma" format="2">
  <advance width="460"/>
  <unicode hex="002C"/>
  <outline>
    <contour>
      <point x="36.702" y="138.58" type="curve" smooth="yes"/>
      <point x="36.702" y="59.956"/>
      <point x="90.006" y="1.324"/>
      <point x="167.294" y="1.324" type="curve" smooth="yes" name="n03"/>
      <point x="197.954" y="1.324"/>
      <point x="219.946" y="9.324"/>
      <point x="235.942" y="21.328" type="curve"/>
      <point x="175.998" y="41.308" type="line"/>
      <point x="175.998" y="-94.02"/>
      <point x="48.022" y="-172.708"/>
      <point x="48.022" y="-211.348" type="curve" smooth="yes"/>
      <point x="48.022" y="-224.004"/>
      <point x="52.018" y="-233.332"/>
      <point x="63.342" y="-243.324" type="curve" smooth="yes"/>
      <point x="100.642" y="-277.96" type="line" name="n14"/>
      <point x="232.578" y="-171.328"/>
      <point x="306.554" y="-16.716"/>
      <point x="306.554" y="106.596" type="curve" smooth="yes"/>
      <point x="306.554" y="192.56"/>
      <point x="260.574" y="263.184"/>
      <point x="168.63" y="263.184" type="curve" smooth="yes" name="n20"/>
      <point x="90.006" y="263.184"/>
      <point x="36.702" y="207.876"/>
    </contour>
  </outline>
  <guideline angle="82.9991" x="185" y="0"/>
</glyph>
<glyph name="hyphen" format="2">
  <advance width="698.022"/>
  <unicode hex="002D"/>
  <unicode hex="00AD"/>
  <unicode hex="2010"/>
  <guideline x="326.634" y="0.0" angle="82.9991"/>
  <outline>
    <contour>
      <point x="102.05199999999999" y="514.064" type="line"/>
      <point x="570.656" y="514.064" type="line"/>
      <point x="592.636" y="688.576" type="line"/>
      <point x="123.368" y="688.576" type="line"/>
    </contour>
  </outline>
</glyph>
<glyph name="period" format="2">
  <advance width="472"/>
  <unicode hex="002E"/>
  <outline>
    <contour>
      <point x="41.056" y="123.924" type="curve" smooth="yes"/>
      <point x="41.056" y="45.3"/>
      <point x="101.024" y="-14.668"/>
      <point x="179.648" y="-14.668" type="curve" smooth="yes" name="n03"/>
      <point x="256.94" y="-14.668"/>
      <point x="318.908" y="45.3"/>
      <point x="318.908" y="123.924" type="curve" smooth="yes"/>
      <point x="318.908" y="201.216"/>
      <point x="256.94" y="263.184"/>
      <point x="179.648" y="263.184" type="curve" smooth="yes" name="n09"/>
      <point x="101.024" y="263.184"/>
      <point x="41.056" y="201.216"/>
    </contour>
  </outline>
  <guideline angle="82.9991" x="185" y="0"/>
</glyph>
<glyph name="slash" format="2">
  <advance width="848.27"/>
  <unicode hex="002F"/>
  <guideline x="354.96" y="0.0" angle="82.9991"/>
  <outline>
    <contour>
      <point x="890.248" y="1453.32" type="line"/>
      <point x="802.992" y="1453.32" type="line" smooth="yes"/>
      <point x="753.032" y="1453.32"/>
      <point x="711.068" y="1425.344"/>
      <point x="687.088" y="1378.716" type="curve" smooth="yes"/>
      <point x="-25.64" y="-93.98400000000001" type="line"/>
      <point x="62.28" y="-93.98400000000001" type="line" smooth="yes"/>
      <point x="104.912" y="-93.98400000000001"/>
      <point x="156.204" y="-66.676"/>
      <point x="181.51600000000002" y="-15.384" type="curve"/>
    </contour>
  </outline>
</glyph>
<glyph name="zero" format="2">
  <advance width="1160"/>
  <unicode hex="0030"/>
  <outline>
    <contour>
      <point x="1089.64" y="876.976" type="curve" smooth="yes"/>
      <point x="1089.64" y="1262.97"/>
      <point x="919.976" y="1455.29"/>
      <point x="681.998" y="1455.29" type="curve" smooth="yes" name="n03"/>
      <point x="362.696" y="1455.29"/>
      <point x="96.028" y="1164.3"/>
      <point x="96.028" y="561.986" type="curve" smooth="yes"/>
      <point x="96.028" y="176.662"/>
      <point x="263.692" y="-15.332"/>
      <point x="501.67" y="-15.332" type="curve" smooth="yes" name="n09"/>
      <point x="820.306" y="-15.332"/>
      <point x="1089.64" y="273.324"/>
    </contour>
    <contour>
      <point x="877.158" y="887.966" type="curve" smooth="yes"/>
      <point x="877.158" y="341.932"/>
      <point x="698.416" y="157.848"/>
      <point x="522.318" y="157.848" type="curve" smooth="yes" name="n15"/>
      <point x="405.232" y="157.848"/>
      <point x="307.84" y="261.92"/>
      <point x="307.84" y="549.332" type="curve" smooth="yes"/>
      <point x="307.84" y="1094.03"/>
      <point x="483.588" y="1281.45"/>
      <point x="660.684" y="1281.45" type="curve" smooth="yes" name="n21"/>
      <point x="778.436" y="1281.45"/>
      <point x="877.158" y="1176.71"/>
    </contour>
  </outline>
  <guideline angle="82.9991" x="656" y="0"/>
</glyph>
<glyph name="one" format="2">
  <advance width="1160"/>
  <unicode hex="0031"/>
  <outline>
    <contour>
      <point x="685.05" y="1441.97" type="line" name="n00"/>
      <point x="649.41" y="1324.72"/>
      <point x="616.768" y="1192.15"/>
      <point x="602.778" y="1077.57" type="curve" smooth="yes"/>
      <point x="470.416" y="0" type="line"/>
      <point x="677.566" y="0" type="line"/>
      <point x="854.562" y="1441.97" type="line"/>
    </contour>
    <contour>
      <point x="196.044" y="0" type="line" name="n07"/>
      <point x="922.958" y="0" type="line"/>
      <point x="942.608" y="156.53" type="line"/>
      <point x="215.694" y="156.53" type="line" name="n10"/>
    </contour>
    <contour>
      <point x="238.424" y="1069.98" type="line"/>
      <point x="292.042" y="980.066" type="line" smooth="yes"/>
      <point x="304.368" y="960.08"/>
      <point x="344.002" y="940.766"/>
      <point x="386.966" y="972.74" type="curve"/>
      <point x="656.082" y="1202.85" type="line"/>
      <point x="685.05" y="1441.97" type="line"/>
    </contour>
  </outline>
  <guideline angle="82.9991" x="458" y="0"/>
</glyph>
<glyph name="two" format="2">
  <advance width="1160.0"/>
  <unicode hex="0032"/>
  <guideline x="514.64" y="0.0" angle="82.9991"/>
  <outline>
    <contour>
      <point x="697.994" y="1455.294" type="curve" smooth="yes"/>
      <point x="465.022" y="1455.294"/>
      <point x="270.718" y="1313.962"/>
      <point x="201.066" y="1044.674" type="curve"/>
      <point x="307.97" y="1026.026" type="line" smooth="yes"/>
      <point x="362.922" y="1016.702"/>
      <point x="392.56600000000003" y="1032.69"/>
      <point x="417.544" y="1085.316" type="curve" smooth="yes"/>
      <point x="455.226" y="1197.398"/>
      <point x="548.284" y="1278.784"/>
      <point x="664.358" y="1278.784" type="curve" smooth="yes"/>
      <point x="773.402" y="1278.784"/>
      <point x="846.136" y="1212.092"/>
      <point x="846.136" y="1085.348" type="curve" smooth="yes"/>
      <point x="846.136" y="906.63"/>
      <point x="748.744" y="783.604"/>
      <point x="570.068" y="609.26" type="curve"/>
      <point x="105.34" y="157.20000000000002" type="line"/>
      <point x="76.03399999999999" y="131.89"/>
      <point x="61.041999999999994" y="97.918"/>
      <point x="57.711999999999996" y="69.94" type="curve"/>
      <point x="49.052" y="0.0" type="line"/>
      <point x="950.624" y="0.0" type="line"/>
      <point x="965.944" y="124.554" type="line" smooth="yes"/>
      <point x="970.94" y="166.518"/>
      <point x="946.294" y="194.494"/>
      <point x="901.666" y="194.494" type="curve" smooth="yes"/>
      <point x="527.71" y="194.494" type="line" smooth="yes"/>
      <point x="436.41600000000005" y="194.494"/>
      <point x="311.5" y="160.526"/>
      <point x="228.554" y="120.56200000000001" type="curve"/>
      <point x="221.24" y="39.972" type="line"/>
      <point x="723.594" y="532.656" type="line" smooth="yes"/>
      <point x="906.268" y="710.33"/>
      <point x="1059.946" y="859.996"/>
      <point x="1059.946" y="1103.998" type="curve" smooth="yes"/>
      <point x="1059.946" y="1318.668"/>
      <point x="915.272" y="1455.294"/>
    </contour>
  </outline>
</glyph>
<glyph name="three" format="2">
  <advance width="1160.0"/>
  <unicode hex="0033"/>
  <guideline x="517.304" y="0.0" angle="82.9991"/>
  <outline>
    <contour>
      <point x="701.988" y="1455.294" type="curve" smooth="yes"/>
      <point x="469.35" y="1455.294"/>
      <point x="275.046" y="1313.962"/>
      <point x="205.394" y="1044.674" type="curve"/>
      <point x="311.298" y="1026.026" type="line" smooth="yes"/>
      <point x="367.25" y="1016.702"/>
      <point x="395.892" y="1032.69"/>
      <point x="421.204" y="1085.316" type="curve"/>
      <point x="458.886" y="1197.398"/>
      <point x="552.278" y="1278.784"/>
      <point x="668.686" y="1278.784" type="curve" smooth="yes"/>
      <point x="777.73" y="1278.784"/>
      <point x="849.126" y="1213.762"/>
      <point x="849.126" y="1090.024" type="curve" smooth="yes"/>
      <point x="849.126" y="916.304"/>
      <point x="754.718" y="814.922"/>
      <point x="522.37" y="811.916" type="curve"/>
      <point x="504.38599999999997" y="662.716" type="line"/>
      <point x="732.42" y="662.048"/>
      <point x="794.798" y="579.334"/>
      <point x="794.798" y="465.948" type="curve" smooth="yes"/>
      <point x="794.798" y="311.918"/>
      <point x="691.412" y="159.84400000000002"/>
      <point x="513.32" y="159.84400000000002" type="curve" smooth="yes"/>
      <point x="356.146" y="159.84400000000002"/>
      <point x="318.846" y="289.342"/>
      <point x="287.872" y="371.286" type="curve"/>
      <point x="274.216" y="410.6"/>
      <point x="227.582" y="419.254"/>
      <point x="177.628" y="399.272" type="curve"/>
      <point x="82.71799999999999" y="361.308" type="line"/>
      <point x="123.69" y="134.06799999999998"/>
      <point x="223.63" y="-16.0"/>
      <point x="494.67" y="-16.0" type="curve" smooth="yes"/>
      <point x="758.99" y="-16.0"/>
      <point x="1001.282" y="164.686"/>
      <point x="1001.282" y="467.282" type="curve" smooth="yes"/>
      <point x="1001.282" y="659.9300000000001"/>
      <point x="870.968" y="776.276"/>
      <point x="609.016" y="787.27" type="curve"/>
      <point x="601.69" y="725.326" type="line"/>
      <point x="878.922" y="746.316"/>
      <point x="1054.944" y="846.364"/>
      <point x="1054.944" y="1129.986" type="curve" smooth="yes"/>
      <point x="1054.944" y="1319.672"/>
      <point x="920.932" y="1455.294"/>
    </contour>
  </outline>
</glyph>
<glyph name="four" format="2">
  <advance width="1160.0"/>
  <unicode hex="0034"/>
  <guideline x="535.976" y="0.0" angle="82.9991"/>
  <outline>
    <contour>
      <point x="989.89" y="1439.962" type="line"/>
      <point x="795.0699999999999" y="1439.962" type="line"/>
      <point x="48.034" y="518.598" type="line"/>
      <point x="56.36" y="412.696" type="line"/>
      <point x="58.692" y="386.05"/>
      <point x="80.006" y="366.73199999999997"/>
      <point x="108.324" y="366.73199999999997" type="curve" smooth="yes"/>
      <point x="993.024" y="366.73199999999997" type="line" smooth="yes"/>
      <point x="1020.674" y="366.73199999999997"/>
      <point x="1038.66" y="386.05"/>
      <point x="1041.658" y="409.368" type="curve" smooth="yes"/>
      <point x="1055.978" y="529.256" type="line"/>
      <point x="99.996" y="529.256" type="line"/>
      <point x="190.248" y="433.346" type="line"/>
      <point x="921.616" y="1358.02" type="line"/>
      <point x="846.348" y="1372.676" type="line"/>
      <point x="800.388" y="1268.094"/>
      <point x="774.076" y="1154.854"/>
      <point x="764.084" y="1070.918" type="curve" smooth="yes"/>
      <point x="632.72" y="0.0" type="line"/>
      <point x="812.894" y="0.0" type="line"/>
    </contour>
  </outline>
</glyph>
<glyph name="five" format="2">
  <advance width="1160.0"/>
  <unicode hex="0035"/>
  <guideline x="487.64" y="0.0" angle="82.9991"/>
  <outline>
    <contour>
      <point x="1061.284" y="1439.294" type="line"/>
      <point x="415.044" y="1439.294" type="line"/>
      <point x="221.73399999999998" y="755.388" type="line"/>
      <point x="346.29200000000003" y="718.084" type="line"/>
      <point x="417.988" y="743.086"/>
      <point x="487.672" y="755.752"/>
      <point x="551.348" y="755.752" type="curve" smooth="yes"/>
      <point x="705.428" y="755.752"/>
      <point x="783.12" y="665.034"/>
      <point x="783.12" y="524.984" type="curve" smooth="yes"/>
      <point x="783.12" y="320.198"/>
      <point x="669.678" y="159.848"/>
      <point x="471.636" y="159.848" type="curve" smooth="yes"/>
      <point x="312.284" y="159.848"/>
      <point x="263.578" y="260.50800000000004"/>
      <point x="206.95" y="260.50800000000004" type="curve" smooth="yes"/>
      <point x="185.632" y="260.50800000000004"/>
      <point x="165.648" y="251.18200000000002"/>
      <point x="149.328" y="231.864" type="curve"/>
      <point x="75.062" y="143.27800000000002" type="line"/>
      <point x="151.712" y="59.31"/>
      <point x="275.696" y="-16.0"/>
      <point x="438.0" y="-16.0" type="curve" smooth="yes"/>
      <point x="742.612" y="-16.0"/>
      <point x="992.936" y="210.964"/>
      <point x="992.936" y="550.29" type="curve" smooth="yes"/>
      <point x="992.936" y="761.952"/>
      <point x="866.942" y="926.934"/>
      <point x="616.2860000000001" y="926.934" type="curve" smooth="yes"/>
      <point x="539.622" y="926.934"/>
      <point x="451.624" y="913.602"/>
      <point x="351.626" y="882.606" type="curve"/>
      <point x="397.246" y="754.052" type="line"/>
      <point x="585.896" y="1419.976" type="line"/>
      <point x="413.38" y="1249.462" type="line"/>
      <point x="916.412" y="1249.462" type="line" smooth="yes"/>
      <point x="1003.666" y="1249.462"/>
      <point x="1043.3" y="1291.426"/>
      <point x="1049.96" y="1350.04" type="curve"/>
    </contour>
  </outline>
</glyph>
<glyph name="six" format="2">
  <advance width="1067.0"/>
  <unicode hex="0036"/>
  <outline>
    <contour>
      <point x="306.88" y="398.958" type="curve"/>
      <point x="306.88" y="584.65"/>
      <point x="431.596" y="732.066"/>
      <point x="600.362" y="732.066" type="curve" smooth="yes"/>
      <point x="737.4159999999999" y="732.066"/>
      <point x="823.786" y="638.028"/>
      <point x="823.786" y="488.306" type="curve" smooth="yes"/>
      <point x="823.786" y="296.236"/>
      <point x="693.742" y="155.18200000000002"/>
      <point x="523.312" y="155.18200000000002" type="curve" smooth="yes"/>
      <point x="380.924" y="155.18200000000002"/>
      <point x="306.88" y="256.23199999999997"/>
    </contour>
    <contour>
      <point x="307.548" y="486.606" type="line"/>
      <point x="328.214" y="643.916"/>
      <point x="419.188" y="755.91"/>
      <point x="549.5260000000001" y="907.262" type="curve"/>
      <point x="1008.188" y="1439.294" type="line"/>
      <point x="824.352" y="1439.294" type="line" smooth="yes"/>
      <point x="775.73" y="1439.294"/>
      <point x="731.436" y="1417.316"/>
      <point x="708.122" y="1389.338" type="curve"/>
      <point x="326.06399999999996" y="911.934" type="line" smooth="yes"/>
      <point x="180.382" y="730.248"/>
      <point x="110.054" y="579.926"/>
      <point x="110.054" y="407.618" type="curve" smooth="yes"/>
      <point x="110.054" y="154.63400000000001"/>
      <point x="256.70799999999997" y="-16.0"/>
      <point x="505.994" y="-16.0" type="curve" smooth="yes"/>
      <point x="807.288" y="-16.0"/>
      <point x="1033.266" y="220.29"/>
      <point x="1033.266" y="520.274" type="curve" smooth="yes"/>
      <point x="1033.266" y="757.242"/>
      <point x="877.298" y="889.262"/>
      <point x="689.94" y="889.262" type="curve" smooth="yes"/>
      <point x="456.632" y="889.262"/>
      <point x="290.256" y="703.288"/>
      <point x="263.92" y="484.602" type="curve"/>
    </contour>
  </outline>
</glyph>
<glyph name="seven" format="2">
  <advance width="1160"/>
  <unicode hex="0037"/>
  <outline>
    <contour>
      <point x="232.7" y="1439.29" type="line" name="n00"/>
      <point x="215.716" y="1298.76" type="line" smooth="yes"/>
      <point x="212.718" y="1272.78"/>
      <point x="233.034" y="1249.46"/>
      <point x="258.35" y="1249.46" type="curve" smooth="yes" name="n04"/>
      <point x="1083.34" y="1249.46" type="line"/>
      <point x="934.482" y="1270.78" type="line"/>
      <point x="895.182" y="1236.81"/>
      <point x="864.874" y="1198.84"/>
      <point x="833.234" y="1149.55" type="curve"/>
      <point x="165.094" y="0" type="line" name="n10"/>
      <point x="314.29" y="0" type="line" smooth="yes"/>
      <point x="372.908" y="0"/>
      <point x="409.546" y="31.972"/>
      <point x="433.86" y="71.94" type="curve"/>
      <point x="1094.67" y="1240.13" type="line" smooth="yes"/>
      <point x="1108.33" y="1263.45"/>
      <point x="1126.98" y="1295.42"/>
      <point x="1133.97" y="1348.04" type="curve" smooth="yes"/>
      <point x="1144.96" y="1439.29" type="line"/>
    </contour>
  </outline>
  <guideline angle="82.9991" x="475" y="0"/>
</glyph>
<glyph name="eight" format="2">
  <advance width="1160.0"/>
  <unicode hex="0038"/>
  <guideline x="519.968" y="0.0" angle="82.9991"/>
  <outline>
    <contour>
      <point x="503.002" y="-16.0" type="curve"/>
      <point x="796.966" y="-16.0"/>
      <point x="1013.946" y="165.312"/>
      <point x="1013.946" y="450.626" type="curve" smooth="yes"/>
      <point x="1013.946" y="652.32"/>
      <point x="880.576" y="772.626"/>
      <point x="615.33" y="780.624" type="curve"/>
      <point x="606.67" y="712.676" type="line"/>
      <point x="895.618" y="723.676"/>
      <point x="1050.614" y="881.35"/>
      <point x="1050.614" y="1115.994" type="curve" smooth="yes"/>
      <point x="1050.614" y="1305.972"/>
      <point x="907.978" y="1455.294"/>
      <point x="683.33" y="1455.294" type="curve"/>
      <point x="420.016" y="1455.294"/>
      <point x="221.72199999999998" y="1268.97"/>
      <point x="221.72199999999998" y="1026.666" type="curve" smooth="yes"/>
      <point x="221.72199999999998" y="844.35"/>
      <point x="341.71" y="721.676"/>
      <point x="577.67" y="712.676" type="curve"/>
      <point x="585.33" y="780.624" type="line"/>
      <point x="256.78" y="770.96"/>
      <point x="93.382" y="612.002"/>
      <point x="93.382" y="347.63" type="curve" smooth="yes"/>
      <point x="93.382" y="127.316"/>
      <point x="253.36599999999999" y="-16.0"/>
    </contour>
    <contour>
      <point x="605.658" y="827.912" type="curve"/>
      <point x="471.922" y="827.912"/>
      <point x="422.878" y="923.954"/>
      <point x="422.878" y="1025.336" type="curve" smooth="yes"/>
      <point x="422.878" y="1173.064"/>
      <point x="503.61400000000003" y="1296.766"/>
      <point x="664.014" y="1296.766" type="curve"/>
      <point x="789.744" y="1296.766"/>
      <point x="848.126" y="1208.398"/>
      <point x="848.126" y="1103.672" type="curve" smooth="yes"/>
      <point x="848.126" y="953.3"/>
      <point x="769.074" y="827.912"/>
    </contour>
    <contour>
      <point x="522.318" y="147.19" type="curve"/>
      <point x="382.254" y="147.19"/>
      <point x="307.858" y="238.222"/>
      <point x="307.858" y="362.952" type="curve" smooth="yes"/>
      <point x="307.858" y="580.062"/>
      <point x="439.328" y="663.39"/>
      <point x="585.676" y="663.39" type="curve"/>
      <point x="709.024" y="663.39"/>
      <point x="801.468" y="597.726"/>
      <point x="801.468" y="452.29" type="curve" smooth="yes"/>
      <point x="801.468" y="272.886"/>
      <point x="698.716" y="147.19"/>
    </contour>
  </outline>
</glyph>
<glyph name="nine" format="2">
  <advance width="1160.0"/>
  <unicode hex="0039"/>
  <guideline x="501.976" y="0.0" angle="82.9991"/>
  <outline>
    <contour>
      <point x="866.45" y="1051.004" type="curve"/>
      <point x="866.45" y="883.638"/>
      <point x="757.724" y="741.892"/>
      <point x="585.308" y="741.892" type="curve" smooth="yes"/>
      <point x="455.254" y="741.892"/>
      <point x="381.54200000000003" y="824.936"/>
      <point x="381.54200000000003" y="964.326" type="curve" smooth="yes"/>
      <point x="381.54200000000003" y="1152.4"/>
      <point x="496.612" y="1284.112"/>
      <point x="657.69" y="1284.112" type="curve" smooth="yes"/>
      <point x="783.412" y="1284.112"/>
      <point x="866.45" y="1193.724"/>
    </contour>
    <contour>
      <point x="873.448" y="975.358" type="line"/>
      <point x="851.778" y="814.03"/>
      <point x="778.776" y="711.376"/>
      <point x="658.446" y="567.362" type="curve" smooth="yes"/>
      <point x="179.48" y="0.0" type="line"/>
      <point x="369.976" y="0.0" type="line" smooth="yes"/>
      <point x="417.266" y="0.0"/>
      <point x="459.894" y="20.646"/>
      <point x="482.21000000000004" y="47.958000000000006" type="curve"/>
      <point x="851.936" y="539.38" type="line" smooth="yes"/>
      <point x="984.28" y="712.066"/>
      <point x="1063.276" y="851.36"/>
      <point x="1063.276" y="1052.33" type="curve" smooth="yes"/>
      <point x="1063.276" y="1287.98"/>
      <point x="921.62" y="1455.294"/>
      <point x="681.002" y="1455.294" type="curve" smooth="yes"/>
      <point x="392.38" y="1455.294"/>
      <point x="171.728" y="1225.0"/>
      <point x="171.728" y="939.352" type="curve" smooth="yes"/>
      <point x="171.728" y="711.716"/>
      <point x="322.032" y="584.03"/>
      <point x="494.06399999999996" y="584.03" type="curve" smooth="yes"/>
      <point x="699.058" y="584.03"/>
      <point x="884.744" y="730.708"/>
      <point x="914.742" y="975.358" type="curve"/>
    </contour>
  </outline>
</glyph>
<glyph name="less" format="2">
  <advance width="1160.0"/>
  <unicode hex="003C"/>
  <guideline x="533.0" y="0.0" angle="82.9991"/>
  <outline>
    <contour>
      <point x="171.69" y="717.292" type="line"/>
      <point x="163.696" y="651.348" type="line"/>
      <point x="306.578" y="652.016"/>
      <point x="421.486" y="665.014"/>
      <point x="509.754" y="707.316" type="curve" smooth="yes"/>
      <point x="939.008" y="912.77" type="line" smooth="yes"/>
      <point x="969.326" y="927.096"/>
      <point x="983.318" y="947.414"/>
      <point x="986.316" y="971.732" type="curve" smooth="yes"/>
      <point x="1004.6320000000001" y="1125.256" type="line"/>
    </contour>
    <contour>
      <point x="161.03199999999998" y="629.3679999999999" type="line"/>
      <point x="893.65" y="221.404" type="line"/>
      <point x="912.966" y="374.928" type="line"/>
      <point x="915.9639999999999" y="399.246"/>
      <point x="906.968" y="419.564"/>
      <point x="880.648" y="433.89" type="curve"/>
      <point x="501.424" y="639.344" type="line"/>
      <point x="423.48199999999997" y="681.98"/>
      <point x="311.24" y="694.644"/>
      <point x="168.692" y="695.312" type="curve"/>
    </contour>
  </outline>
</glyph>
<glyph name="equal" format="2">
  <advance width="1160.0"/>
  <unicode hex="003D"/>
  <guideline x="580.0" y="0.0" angle="82.9991"/>
  <outline>
    <contour>
      <point x="119.38" y="424.096" type="line"/>
      <point x="989.976" y="424.096" type="line"/>
      <point x="1009.292" y="579.96" type="line"/>
      <point x="138.696" y="579.96" type="line"/>
    </contour>
    <contour>
      <point x="162.04" y="766.048" type="line"/>
      <point x="1032.636" y="766.048" type="line"/>
      <point x="1050.62" y="921.912" type="line"/>
      <point x="181.356" y="921.912" type="line"/>
    </contour>
  </outline>
</glyph>
<glyph name="greater" format="2">
  <advance width="1160.0"/>
  <unicode hex="003E"/>
  <guideline x="533.0" y="0.0" angle="82.9991"/>
  <outline>
    <contour>
      <point x="1003.31" y="629.3679999999999" type="line"/>
      <point x="1010.97" y="695.312" type="line"/>
      <point x="868.422" y="694.644"/>
      <point x="752.848" y="681.646"/>
      <point x="664.246" y="639.344" type="curve" smooth="yes"/>
      <point x="235.65800000000002" y="433.89" type="line" smooth="yes"/>
      <point x="204.674" y="419.564"/>
      <point x="191.682" y="399.246"/>
      <point x="188.684" y="374.928" type="curve"/>
      <point x="169.368" y="221.404" type="line"/>
    </contour>
    <contour>
      <point x="1013.968" y="717.292" type="line"/>
      <point x="280.35" y="1125.256" type="line"/>
      <point x="262.034" y="971.732" type="line" smooth="yes"/>
      <point x="259.036" y="947.414"/>
      <point x="267.032" y="927.096"/>
      <point x="294.01800000000003" y="912.77" type="curve" smooth="yes"/>
      <point x="672.576" y="707.316" type="line"/>
      <point x="750.852" y="664.68"/>
      <point x="863.76" y="652.016"/>
      <point x="1005.974" y="651.348" type="curve"/>
    </contour>
  </outline>
</glyph>
<glyph name="question" format="2">
  <advance width="850"/>
  <unicode hex="003F"/>
  <outline>
    <contour>
      <point x="153.356" y="1308.97" type="curve"/>
      <point x="197.65" y="1223.05" type="line" smooth="yes"/>
      <point x="207.976" y="1203.73"/>
      <point x="216.97" y="1196.41"/>
      <point x="237.284" y="1196.41" type="curve" smooth="yes"/>
      <point x="275.598" y="1196.41"/>
      <point x="334.958" y="1285.44"/>
      <point x="478.66" y="1285.44" type="curve" smooth="yes" name="n07"/>
      <point x="580.02" y="1285.44"/>
      <point x="638.74" y="1226.75"/>
      <point x="638.74" y="1132.7" type="curve" smooth="yes"/>
      <point x="638.74" y="906.6"/>
      <point x="310.72" y="865.284"/>
      <point x="304.04" y="668.648" type="curve"/>
      <point x="296.692" y="503.972" type="line"/>
      <point x="439.232" y="503.972" type="line"/>
      <point x="477.888" y="654.66" type="line"/>
      <point x="525.532" y="830.638"/>
      <point x="830.572" y="835.332"/>
      <point x="830.572" y="1171.99" type="curve" smooth="yes"/>
      <point x="830.572" y="1330.66"/>
      <point x="715.232" y="1454.63"/>
      <point x="516.624" y="1454.63" type="curve" smooth="yes" name="n22"/>
      <point x="362.648" y="1454.63"/>
      <point x="245.332" y="1387.63"/>
    </contour>
    <contour>
      <point x="206.036" y="123.924" type="curve" smooth="yes"/>
      <point x="206.036" y="45.3"/>
      <point x="266.004" y="-14.668"/>
      <point x="344.628" y="-14.668" type="curve" smooth="yes" name="n28"/>
      <point x="421.92" y="-14.668"/>
      <point x="483.888" y="45.3"/>
      <point x="483.888" y="123.924" type="curve" smooth="yes"/>
      <point x="483.888" y="201.216"/>
      <point x="421.92" y="263.184"/>
      <point x="344.628" y="263.184" type="curve" smooth="yes" name="n34"/>
      <point x="266.004" y="263.184"/>
      <point x="206.036" y="201.216"/>
    </contour>
  </outline>
  <guideline angle="82.9991" x="320" y="0"/>
</glyph>
<glyph name="at" format="2">
  <advance width="1540"/>
  <unicode hex="0040"/>
  <outline>
    <contour>
      <point x="1036.67" y="184.672" type="curve" smooth="yes"/>
      <point x="1276.62" y="184.672"/>
      <point x="1476.62" y="440.64"/>
      <point x="1476.62" y="777.316" type="curve" smooth="yes"/>
      <point x="1476.62" y="1145.31"/>
      <point x="1216.63" y="1368.6"/>
      <point x="899.988" y="1368.6" type="curve" smooth="yes" name="n06"/>
      <point x="458.032" y="1368.6"/>
      <point x="82.032" y="960.648"/>
      <point x="82.032" y="457.296" type="curve" smooth="yes"/>
      <point x="82.032" y="27.972"/>
      <point x="348.028" y="-239.996"/>
      <point x="744.648" y="-239.996" type="curve" smooth="yes" name="n12"/>
      <point x="960.624" y="-239.996"/>
      <point x="1135.95" y="-178.672"/>
      <point x="1275.96" y="-85.996" type="curve"/>
      <point x="1260.64" y="-26.044" type="line"/>
      <point x="1251.98" y="2.6"/>
      <point x="1228.67" y="26.58"/>
      <point x="1176.71" y="-2.064" type="curve"/>
      <point x="1090.65" y="-55.444"/>
      <point x="948.624" y="-103.444"/>
      <point x="759.968" y="-103.444" type="curve" smooth="yes" name="n22"/>
      <point x="449.28" y="-103.444"/>
      <point x="233.236" y="96.584"/>
      <point x="233.236" y="465.292" type="curve" smooth="yes"/>
      <point x="233.236" y="908.032"/>
      <point x="526.652" y="1234.05"/>
      <point x="883.336" y="1234.05" type="curve" smooth="yes" name="n28"/>
      <point x="1150.68" y="1234.05"/>
      <point x="1329.41" y="1075.37"/>
      <point x="1329.41" y="777.316" type="curve" smooth="yes"/>
      <point x="1329.41" y="510.572"/>
      <point x="1210.01" y="315.228"/>
      <point x="1081.96" y="315.228" type="curve" smooth="yes"/>
      <point x="1011.27" y="315.228"/>
      <point x="967.232" y="355.9"/>
      <point x="1031.94" y="544.66" type="curve"/>
      <point x="1165.26" y="909.964" type="line"/>
      <point x="1107.95" y="937.956"/>
      <point x="1049.28" y="951.952"/>
      <point x="957.992" y="951.952" type="curve" smooth="yes" name="n41"/>
      <point x="611.384" y="951.952"/>
      <point x="416.04" y="660.632"/>
      <point x="416.04" y="417.972" type="curve" smooth="yes"/>
      <point x="416.04" y="287.328"/>
      <point x="478.028" y="186.676"/>
      <point x="610.008" y="186.676" type="curve" smooth="yes"/>
      <point x="743.996" y="186.676"/>
      <point x="862.66" y="266.68"/>
      <point x="977.296" y="477.992" type="curve"/>
      <point x="880.708" y="427.352" type="line"/>
      <point x="852.692" y="259.368"/>
      <point x="923.312" y="184.672"/>
    </contour>
    <contour>
      <point x="994.74" y="866.008" type="line"/>
      <point x="870.744" y="524.684" type="line"/>
      <point x="815.372" y="365.248"/>
      <point x="735.324" y="322.56"/>
      <point x="668.624" y="322.56" type="curve" smooth="yes" name="n58"/>
      <point x="608.584" y="322.56"/>
      <point x="578.568" y="369.26"/>
      <point x="578.568" y="440.62" type="curve" smooth="yes"/>
      <point x="578.568" y="628.652"/>
      <point x="732.608" y="821.396"/>
      <point x="909.372" y="821.396" type="curve" smooth="yes" name="n64"/>
      <point x="960.712" y="821.396"/>
      <point x="1004.03" y="810.732"/>
      <point x="1042.04" y="790.072" type="curve"/>
    </contour>
  </outline>
  <guideline angle="0" x="0" y="700"/>
  <guideline angle="90" x="755" y="0"/>
  <guideline angle="82.9991" x="100" y="0"/>
</glyph>
<glyph name="A" format="2">
  <advance width="1281.896"/>
  <unicode hex="0041"/>
  <guideline x="630.602" y="0.0" angle="82.9991"/>
  <anchor x="757.274" y="1515.314" name="Top"/>
  <anchor x="247.028" y="1120.0" name="onRight"/>
  <anchor x="561.278" y="-70.0" name="bottom"/>
  <anchor x="757.274" y="1515.314" name="top"/>
  <outline>
    <contour>
      <point x="-72.626" y="0.0" type="line"/>
      <point x="103.21400000000001" y="0.0" type="line" smooth="yes"/>
      <point x="139.85" y="0.0"/>
      <point x="171.15800000000002" y="25.312"/>
      <point x="184.482" y="52.624" type="curve"/>
      <point x="652.678" y="1076.916" type="line" smooth="yes"/>
      <point x="688.654" y="1160.856"/>
      <point x="750.602" y="1304.064"/>
      <point x="779.25" y="1439.96" type="curve"/>
      <point x="628.05" y="1439.96" type="line"/>
    </contour>
    <contour>
      <point x="210.014" y="376.76800000000003" type="line"/>
      <point x="1023.234" y="376.76800000000003" type="line"/>
      <point x="1043.218" y="537.96" type="line"/>
      <point x="230.662" y="537.96" type="line"/>
    </contour>
    <contour>
      <point x="857.174" y="1439.96" type="line"/>
      <point x="701.978" y="1439.96" type="line"/>
      <point x="701.314" y="1304.064"/>
      <point x="729.958" y="1160.856"/>
      <point x="745.282" y="1078.248" type="curve" smooth="yes"/>
      <point x="961.406" y="52.624" type="line"/>
      <point x="970.066" y="21.316000000000003"/>
      <point x="991.382" y="0.0"/>
      <point x="1030.682" y="0.0" type="curve" smooth="yes"/>
      <point x="1204.526" y="0.0" type="line"/>
    </contour>
  </outline>
</glyph>
<glyph name="B" format="2">
  <advance width="1216.934"/>
  <unicode hex="0042"/>
  <guideline x="566.592" y="0.0" angle="82.9991"/>
  <anchor x="518.298" y="-70.0" name="bottom"/>
  <anchor x="664.654" y="1515.314" name="Top"/>
  <anchor x="250.952" y="409.612" name="Bar"/>
  <anchor x="664.654" y="1515.314" name="top"/>
  <outline>
    <contour>
      <point x="577.954" y="0.0" type="line" smooth="yes"/>
      <point x="909.246" y="0.0"/>
      <point x="1109.222" y="193.95600000000002"/>
      <point x="1109.222" y="459.284" type="curve" smooth="yes"/>
      <point x="1109.222" y="654.612"/>
      <point x="958.566" y="761.288"/>
      <point x="657.302" y="761.288" type="curve"/>
      <point x="600.71" y="704.008" type="line"/>
      <point x="979.202" y="704.008"/>
      <point x="1149.206" y="887.34"/>
      <point x="1149.206" y="1114.656" type="curve" smooth="yes"/>
      <point x="1149.206" y="1313.312"/>
      <point x="1018.55" y="1439.96"/>
      <point x="709.278" y="1439.96" type="curve" smooth="yes"/>
      <point x="264.054" y="1439.96" type="line"/>
      <point x="86.726" y="0.0" type="line"/>
      <point x="311.858" y="0.0" type="line"/>
      <point x="467.206" y="1264.116" type="line"/>
      <point x="688.63" y="1264.116" type="line" smooth="yes"/>
      <point x="846.042" y="1264.116"/>
      <point x="920.746" y="1204.0720000000001"/>
      <point x="920.746" y="1076.024" type="curve" smooth="yes"/>
      <point x="920.746" y="902.692"/>
      <point x="816.726" y="802.5840000000001"/>
      <point x="620.626" y="802.5840000000001" type="curve"/>
      <point x="389.194" y="802.5840000000001" type="line"/>
      <point x="369.878" y="645.388" type="line"/>
      <point x="652.634" y="645.388" type="line" smooth="yes"/>
      <point x="814.026" y="645.388"/>
      <point x="886.754" y="571.348"/>
      <point x="886.754" y="455.952" type="curve" smooth="yes"/>
      <point x="886.754" y="287.868"/>
      <point x="794.014" y="177.17600000000002"/>
      <point x="595.938" y="177.17600000000002" type="curve" smooth="yes"/>
      <point x="303.858" y="177.17600000000002" type="line"/>
      <point x="176.64600000000002" y="0.0" type="line"/>
    </contour>
  </outline>
</glyph>
<glyph name="C" format="2">
  <advance width="1244.688"/>
  <unicode hex="0043"/>
  <guideline x="609.704" y="0.0" angle="82.9991"/>
  <anchor x="865.664" y="1515.314" name="Top"/>
  <anchor x="677.348" y="718.648" name="Slash"/>
  <anchor x="865.664" y="1515.314" name="top"/>
  <anchor x="614.29" y="-70.0" name="bottom"/>
  <outline>
    <contour>
      <point x="681.31" y="177.16" type="curve" smooth="yes"/>
      <point x="471.226" y="177.16"/>
      <point x="319.174" y="347.216"/>
      <point x="319.174" y="628.628" type="curve" smooth="yes"/>
      <point x="319.174" y="1016.068"/>
      <point x="545.25" y="1261.468"/>
      <point x="838.01" y="1261.468" type="curve" smooth="yes"/>
      <point x="1058.07" y="1261.468"/>
      <point x="1095.442" y="1140.768"/>
      <point x="1148.078" y="1140.768" type="curve" smooth="yes"/>
      <point x="1172.058" y="1140.768"/>
      <point x="1186.714" y="1152.756"/>
      <point x="1198.706" y="1167.412" type="curve"/>
      <point x="1275.966" y="1261.324" type="line"/>
      <point x="1183.286" y="1379.316"/>
      <point x="1056.646" y="1455.96"/>
      <point x="849.334" y="1455.96" type="curve" smooth="yes"/>
      <point x="424.686" y="1455.96"/>
      <point x="88.714" y="1108.64"/>
      <point x="88.714" y="609.98" type="curve" smooth="yes"/>
      <point x="88.714" y="246.64"/>
      <point x="294.05" y="-16.0"/>
      <point x="643.346" y="-16.0" type="curve" smooth="yes"/>
      <point x="860.674" y="-16.0"/>
      <point x="1026.654" y="64.0"/>
      <point x="1151.318" y="203.308" type="curve"/>
      <point x="1072.388" y="301.552" type="line"/>
      <point x="1067.392" y="307.88"/>
      <point x="1057.4" y="314.874"/>
      <point x="1043.08" y="314.874" type="curve"/>
      <point x="992.776" y="314.874"/>
      <point x="935.374" y="177.16"/>
    </contour>
  </outline>
</glyph>
<glyph name="D" format="2">
  <advance width="1416"/>
  <unicode hex="0044"/>
  <anchor x="742.68" y="1515.31" name="Top"/>
  <anchor x="549.678" y="-91.978" name="bottom"/>
  <anchor x="742.68" y="1515.31" name="top"/>
  <outline>
    <contour>
      <point x="1351.95" y="818.66" type="curve" smooth="yes"/>
      <point x="1351.95" y="1182"/>
      <point x="1127.3" y="1439.96"/>
      <point x="766.678" y="1439.96" type="curve" smooth="yes" name="n03"/>
      <point x="264.054" y="1439.96" type="line"/>
      <point x="86.726" y="0" type="line"/>
      <point x="589.35" y="0" type="line" smooth="yes" name="n06"/>
      <point x="1029.31" y="0"/>
      <point x="1351.95" y="334.636"/>
    </contour>
    <contour>
      <point x="1120.82" y="813.332" type="curve" smooth="yes"/>
      <point x="1120.82" y="420.556"/>
      <point x="915.406" y="181.172"/>
      <point x="611.33" y="181.172" type="curve" smooth="yes" name="n12"/>
      <point x="335.17" y="181.172" type="line"/>
      <point x="468.538" y="1258.79" type="line"/>
      <point x="744.698" y="1258.79" type="line" smooth="yes" name="n15"/>
      <point x="981.43" y="1258.79"/>
      <point x="1120.82" y="1086.75"/>
    </contour>
  </outline>
  <guideline angle="82.9991" x="705" y="0"/>
</glyph>
<glyph name="E" format="2">
  <advance width="1074"/>
  <unicode hex="0045"/>
  <anchor x="582.656" y="718.648" name="Slash"/>
  <anchor x="698.68" y="1515.31" name="Top"/>
  <anchor x="524.02" y="-70" name="bottom"/>
  <anchor x="-23.626" y="1120" name="onRight"/>
  <anchor x="698.68" y="1515.31" name="top"/>
  <outline>
    <contour>
      <point x="490.518" y="1439.96" type="line"/>
      <point x="264.054" y="1439.96" type="line"/>
      <point x="86.726" y="0" type="line"/>
      <point x="313.19" y="0" type="line" name="n03"/>
    </contour>
    <contour>
      <point x="391.194" y="813.908" type="line" name="n04"/>
      <point x="368.546" y="638.728" type="line" name="n05"/>
      <point x="872.002" y="638.728" type="line"/>
      <point x="894.65" y="813.908" type="line"/>
    </contour>
    <contour>
      <point x="466.534" y="1439.96" type="line" name="n08"/>
      <point x="444.554" y="1258.12" type="line" name="n09"/>
      <point x="1071.33" y="1258.12" type="line"/>
      <point x="1093.98" y="1439.96" type="line"/>
    </contour>
    <contour>
      <point x="313.186" y="181.84" type="line" name="n12"/>
      <point x="290.538" y="0" type="line"/>
      <point x="917.982" y="0" type="line"/>
      <point x="940.63" y="181.84" type="line"/>
    </contour>
  </outline>
  <guideline angle="82.9991" x="552" y="0"/>
</glyph>
<glyph name="F" format="2">
  <advance width="1061.328"/>
  <unicode hex="0046"/>
  <guideline x="518.346" y="0.0" angle="82.9991"/>
  <anchor x="694.008" y="1515.314" name="Top"/>
  <anchor x="694.008" y="1515.314" name="top"/>
  <anchor x="365.332" y="-70.0" name="bottom"/>
  <outline>
    <contour>
      <point x="490.51800000000003" y="1439.96" type="line"/>
      <point x="264.054" y="1439.96" type="line"/>
      <point x="86.726" y="0.0" type="line"/>
      <point x="313.19" y="0.0" type="line"/>
    </contour>
    <contour>
      <point x="387.194" y="785.916" type="line"/>
      <point x="365.214" y="604.076" type="line"/>
      <point x="898.658" y="604.076" type="line"/>
      <point x="922.638" y="785.916" type="line"/>
    </contour>
    <contour>
      <point x="466.534" y="1439.96" type="line"/>
      <point x="444.554" y="1258.12" type="line"/>
      <point x="1071.33" y="1258.12" type="line"/>
      <point x="1093.978" y="1439.96" type="line"/>
    </contour>
  </outline>
</glyph>
<glyph name="G" format="2">
  <advance width="1358"/>
  <unicode hex="0047"/>
  <anchor x="882.004" y="1515.31" name="Top"/>
  <anchor x="695.992" y="-70" name="bottom"/>
  <anchor x="882.004" y="1515.31" name="top"/>
  <outline>
    <contour>
      <point x="1073.09" y="275.876" type="line"/>
      <point x="961.724" y="208.516"/>
      <point x="865.692" y="165.172"/>
      <point x="708.3" y="165.172" type="curve" smooth="yes" name="n03"/>
      <point x="474.22" y="165.172"/>
      <point x="319.508" y="340.556"/>
      <point x="319.508" y="627.96" type="curve" smooth="yes"/>
      <point x="319.508" y="1010.74"/>
      <point x="534.248" y="1261.47"/>
      <point x="841.692" y="1261.47" type="curve" smooth="yes" name="n09"/>
      <point x="1019.14" y="1261.47"/>
      <point x="1089.16" y="1194.72"/>
      <point x="1157.77" y="1150.76" type="curve" smooth="yes"/>
      <point x="1193.08" y="1128.12"/>
      <point x="1228.38" y="1136.78"/>
      <point x="1251.69" y="1170.08" type="curve"/>
      <point x="1324.29" y="1263.99" type="line"/>
      <point x="1226.28" y="1371.33"/>
      <point x="1087.64" y="1455.96"/>
      <point x="858.344" y="1455.96" type="curve" smooth="yes" name="n19"/>
      <point x="418.348" y="1455.96"/>
      <point x="89.048" y="1110.65"/>
      <point x="89.048" y="619.968" type="curve" smooth="yes"/>
      <point x="89.048" y="250.636"/>
      <point x="319.688" y="-16"/>
      <point x="670.336" y="-16" type="curve" smooth="yes" name="n25"/>
      <point x="888.336" y="-16"/>
      <point x="1048.32" y="34.676"/>
      <point x="1194.32" y="139.332" type="curve"/>
      <point x="1264.3" y="704.564" type="line"/>
      <point x="833.08" y="704.564" type="line" name="n30"/>
      <point x="818.428" y="576.016" type="line" smooth="yes"/>
      <point x="815.096" y="552.036"/>
      <point x="831.752" y="534.048"/>
      <point x="860.396" y="534.048" type="curve" smooth="yes" name="n34"/>
      <point x="1039.17" y="534.048" type="line"/>
      <point x="988.5" y="116.016" type="line"/>
    </contour>
  </outline>
  <guideline angle="82.9991" x="700" y="0"/>
</glyph>
<glyph name="H" format="2">
  <advance width="1428"/>
  <unicode hex="0048"/>
  <anchor x="810.962" y="1515.31" name="Top"/>
  <anchor x="632.324" y="-70" name="bottom"/>
  <anchor x="-23.626" y="1120" name="onRight"/>
  <anchor x="810.962" y="1515.31" name="top"/>
  <outline>
    <contour>
      <point x="490.518" y="1439.96" type="line" name="n00"/>
      <point x="264.054" y="1439.96" type="line"/>
      <point x="86.726" y="0" type="line" name="n02"/>
      <point x="313.19" y="0" type="line"/>
    </contour>
    <contour>
      <point x="389.862" y="805.916" type="line" name="n04"/>
      <point x="369.878" y="644.056" type="line" name="n05"/>
      <point x="1140.69" y="644.056" type="line"/>
      <point x="1162.01" y="805.916" type="line"/>
    </contour>
    <contour>
      <point x="1368.57" y="1439.96" type="line"/>
      <point x="1142.1" y="1439.96" type="line"/>
      <point x="964.774" y="0" type="line"/>
      <point x="1191.24" y="0" type="line"/>
    </contour>
  </outline>
  <guideline angle="82.9991" x="696" y="0"/>
</glyph>
<glyph name="J" format="2">
  <advance width="810"/>
  <unicode hex="004A"/>
  <anchor x="550.644" y="718.648" name="Bar"/>
  <anchor x="658.332" y="1515.31" name="Top"/>
  <anchor x="221.97" y="-70" name="bottom"/>
  <anchor x="658.332" y="1515.31" name="top"/>
  <outline>
    <contour>
      <point x="762.562" y="1439.96" type="line" name="n00"/>
      <point x="537.43" y="1439.96" type="line"/>
      <point x="420.758" y="483.928" type="line" smooth="yes"/>
      <point x="393.414" y="255.844"/>
      <point x="292.69" y="171.832"/>
      <point x="162.646" y="171.832" type="curve" smooth="yes" name="n05"/>
      <point x="94.606" y="171.832"/>
      <point x="57.278" y="187.176"/>
      <point x="27.95" y="187.176" type="curve" smooth="yes"/>
      <point x="-3.362" y="187.176"/>
      <point x="-16.018" y="167.856"/>
      <point x="-19.35" y="143.876" type="curve" smooth="yes"/>
      <point x="-36.002" y="11.336" type="line"/>
      <point x="29.318" y="-7.332"/>
      <point x="91.31" y="-16"/>
      <point x="161.978" y="-16" type="curve" name="n15"/>
      <point x="439.238" y="-16.668"/>
      <point x="606.558" y="170.6"/>
      <point x="645.89" y="489.256" type="curve" smooth="yes"/>
    </contour>
  </outline>
  <guideline angle="82.9991" x="425" y="0"/>
</glyph>
<glyph name="K" format="2">
  <advance width="1261"/>
  <unicode hex="004B"/>
  <anchor x="755.268" y="1515.31" name="Top"/>
  <anchor x="524.584" y="-70" name="bottom"/>
  <anchor x="755.268" y="1515.31" name="top"/>
  <outline>
    <contour>
      <point x="487.854" y="1440.63" type="line" name="n00"/>
      <point x="262.722" y="1440.63" type="line"/>
      <point x="86.726" y="0" type="line" name="n02"/>
      <point x="310.526" y="0" type="line"/>
    </contour>
    <contour>
      <point x="339.91" y="648.056" type="line"/>
      <point x="469.874" y="648.056" type="line" smooth="yes"/>
      <point x="526.542" y="648.056"/>
      <point x="550.526" y="634.724"/>
      <point x="569.198" y="600.064" type="curve"/>
      <point x="904.082" y="45.968" type="line"/>
      <point x="920.074" y="17.32"/>
      <point x="937.394" y="0"/>
      <point x="993.358" y="0" type="curve" smooth="yes"/>
      <point x="1189.84" y="0" type="line"/>
      <point x="791.658" y="678.004" type="line"/>
      <point x="750.342" y="761.284"/>
      <point x="685.722" y="775.276"/>
      <point x="571.114" y="775.276" type="curve"/>
      <point x="575.086" y="735.308" type="line"/>
      <point x="674.406" y="735.976"/>
      <point x="729.69" y="751.96"/>
      <point x="792.334" y="827.92" type="curve"/>
      <point x="1332.5" y="1439.96" type="line" name="n22"/>
      <point x="1140.01" y="1439.96" type="line" smooth="yes"/>
      <point x="1093.38" y="1439.96"/>
      <point x="1059.74" y="1429.3"/>
      <point x="1029.42" y="1389.33" type="curve"/>
      <point x="573.866" y="863.228" type="line" smooth="yes"/>
      <point x="547.194" y="831.896"/>
      <point x="517.874" y="819.904"/>
      <point x="471.874" y="819.904" type="curve" smooth="yes"/>
      <point x="363.222" y="819.904" type="line"/>
    </contour>
  </outline>
  <guideline angle="82.9991" x="591" y="0"/>
</glyph>
<glyph name="L" format="2">
  <advance width="959"/>
  <unicode hex="004C"/>
  <anchor x="285.626" y="718.648" name="Bar"/>
  <anchor x="394.946" y="1515.31" name="Top"/>
  <anchor x="440.018" y="-70" name="bottom"/>
  <anchor x="394.946" y="1515.31" name="top"/>
  <outline>
    <contour>
      <point x="489.186" y="1439.96" type="line" name="n00"/>
      <point x="264.054" y="1439.96" type="line"/>
      <point x="86.726" y="0" type="line"/>
      <point x="311.858" y="0" type="line" name="n03"/>
    </contour>
    <contour>
      <point x="314.518" y="188.5" type="line" name="n04"/>
      <point x="290.538" y="0" type="line"/>
      <point x="857.302" y="0" type="line"/>
      <point x="879.95" y="188.5" type="line"/>
    </contour>
  </outline>
  <guideline angle="82.9991" x="468" y="0"/>
</glyph>
<glyph name="N" format="2">
  <advance width="1427.96"/>
  <unicode hex="004E"/>
  <guideline x="695.666" y="0.0" angle="82.9991"/>
  <anchor x="831.666" y="1514.646" name="Top"/>
  <anchor x="831.666" y="1514.646" name="top"/>
  <anchor x="634.316" y="-70.0" name="bottom"/>
  <outline>
    <contour>
      <point x="1070.026" y="314.372" type="line"/>
      <point x="451.886" y="1402.656" type="line"/>
      <point x="433.23400000000004" y="1435.296"/>
      <point x="420.578" y="1439.96"/>
      <point x="381.278" y="1439.96" type="curve"/>
      <point x="264.054" y="1439.96" type="line"/>
      <point x="86.726" y="0.0" type="line"/>
      <point x="285.214" y="0.0" type="line"/>
      <point x="406.59000000000003" y="997.008" type="line" smooth="yes"/>
      <point x="413.918" y="1060.96"/>
      <point x="417.914" y="1150.888"/>
      <point x="419.246" y="1224.164" type="curve"/>
      <point x="386.602" y="1125.588" type="line"/>
      <point x="1001.41" y="40.636" type="line"/>
      <point x="1021.394" y="11.992"/>
      <point x="1041.378" y="0.0"/>
      <point x="1076.682" y="0.0" type="curve" smooth="yes"/>
      <point x="1191.238" y="0.0" type="line"/>
      <point x="1368.566" y="1439.96" type="line"/>
      <point x="1170.078" y="1439.96" type="line"/>
      <point x="1050.034" y="462.26800000000003" type="line" smooth="yes"/>
      <point x="1041.374" y="392.324"/>
      <point x="1035.382" y="291.076"/>
      <point x="1036.714" y="205.148" type="curve"/>
    </contour>
  </outline>
</glyph>
<glyph name="P" format="2">
  <advance width="1144"/>
  <unicode hex="0050"/>
  <anchor x="304.606" y="975.346" name="Bar"/>
  <anchor x="654.264" y="1515.31" name="Top"/>
  <anchor x="193.294" y="-70" name="bottom"/>
  <anchor x="733.274" y="652.992" name="tick"/>
  <anchor x="654.264" y="1515.31" name="top"/>
  <outline>
    <contour>
      <point x="281.286" y="524.076" type="line"/>
      <point x="568.61" y="524.076" type="line" smooth="yes" name="n01"/>
      <point x="941.85" y="524.076"/>
      <point x="1138.53" y="745.376"/>
      <point x="1138.53" y="1050.68" type="curve" smooth="yes"/>
      <point x="1138.53" y="1280.67"/>
      <point x="997.202" y="1439.96"/>
      <point x="681.262" y="1439.96" type="curve" smooth="yes" name="n07"/>
      <point x="262.722" y="1439.96" type="line"/>
      <point x="86.726" y="0" type="line" name="n09"/>
      <point x="310.526" y="0" type="line"/>
      <point x="487.854" y="1439.96" type="line"/>
      <point x="322.67" y="1264.12" type="line"/>
      <point x="659.282" y="1264.12" type="line" smooth="yes" name="n13"/>
      <point x="830.69" y="1264.12"/>
      <point x="912.066" y="1172.76"/>
      <point x="912.066" y="1030.7" type="curve" smooth="yes"/>
      <point x="912.066" y="838.636"/>
      <point x="805.314" y="701.252"/>
      <point x="590.59" y="701.252" type="curve" smooth="yes" name="n19"/>
      <point x="321.25" y="701.252" type="line"/>
    </contour>
  </outline>
  <guideline angle="82.9991" x="533" y="0"/>
</glyph>
<glyph name="Q" format="2">
  <advance width="1499.292"/>
  <unicode hex="0051"/>
  <guideline x="732.0" y="0.0" angle="82.9991"/>
  <anchor x="862.64" y="1515.314" name="Top"/>
  <anchor x="862.64" y="1515.314" name="top"/>
  <anchor x="667.976" y="-70.0" name="bottom"/>
  <anchor x="17.334" y="1120.0" name="onRight"/>
  <anchor x="766.974" y="718.648" name="Slash"/>
  <outline>
    <contour>
      <point x="1048.244" y="151.252" type="line"/>
      <point x="801.14" y="129.264" type="line"/>
      <point x="1063.16" y="-238.07999999999998" type="line"/>
      <point x="1093.8" y="-276.712"/>
      <point x="1134.432" y="-290.036"/>
      <point x="1188.388" y="-290.036" type="curve" smooth="yes"/>
      <point x="1371.552" y="-290.036" type="line"/>
    </contour>
    <component base="O"/>
  </outline>
</glyph>
<glyph name="R" format="2">
  <advance width="1184"/>
  <unicode hex="0052"/>
  <anchor x="661.258" y="1515.31" name="Top"/>
  <anchor x="558.646" y="-70" name="bottom"/>
  <anchor x="661.258" y="1515.31" name="top"/>
  <outline>
    <contour>
      <point x="498.622" y="584.092" type="line" smooth="yes"/>
      <point x="547.29" y="584.092"/>
      <point x="565.954" y="570.764"/>
      <point x="582.622" y="537.436" type="curve" smooth="yes"/>
      <point x="822.118" y="46.632" type="line"/>
      <point x="835.446" y="15.984"/>
      <point x="862.758" y="0" name="n06"/>
      <point x="902.062" y="0" type="curve" smooth="yes"/>
      <point x="1103.21" y="0" type="line"/>
      <point x="821.07" y="554.096" type="line" smooth="yes"/>
      <point x="776.426" y="641.376"/>
      <point x="690.486" y="665.356"/>
      <point x="588.514" y="665.356" type="curve"/>
      <point x="519.302" y="601.408" type="line"/>
      <point x="569.942" y="601.408" type="line" smooth="yes" name="n14"/>
      <point x="901.89" y="601.408"/>
      <point x="1115.21" y="804.032"/>
      <point x="1115.21" y="1088.68" type="curve" smooth="yes"/>
      <point x="1115.21" y="1298.67"/>
      <point x="977.218" y="1439.96"/>
      <point x="657.294" y="1439.96" type="curve" smooth="yes" name="n20"/>
      <point x="262.722" y="1439.96" type="line"/>
      <point x="86.726" y="0" type="line"/>
      <point x="310.526" y="0" type="line"/>
      <point x="485.182" y="1415.91" type="line"/>
      <point x="283.39" y="1264.12" type="line"/>
      <point x="636.646" y="1264.12" type="line" smooth="yes" name="n26"/>
      <point x="806.706" y="1264.12"/>
      <point x="891.414" y="1187.44"/>
      <point x="891.414" y="1053.38" type="curve" smooth="yes"/>
      <point x="891.414" y="878.636"/>
      <point x="784.67" y="746.616"/>
      <point x="567.946" y="746.616" type="curve" smooth="yes" name="n32"/>
      <point x="327.254" y="746.616" type="line"/>
      <point x="277.966" y="584.092" type="line"/>
    </contour>
  </outline>
  <guideline angle="82.9991" x="570" y="0"/>
</glyph>
<glyph name="S" format="2">
  <advance width="1024"/>
  <unicode hex="0053"/>
  <anchor x="672.296" y="1515.31" name="Top"/>
  <anchor x="413.958" y="-70" name="bottom"/>
  <anchor x="672.296" y="1515.31" name="top"/>
  <outline>
    <contour>
      <point x="1001.23" y="1292.65" type="line"/>
      <point x="925.236" y="1389.98"/>
      <point x="795.944" y="1454.63"/>
      <point x="643.972" y="1454.63" type="curve" smooth="yes" name="n03"/>
      <point x="346.02" y="1454.63"/>
      <point x="163.392" y="1234"/>
      <point x="163.392" y="992.04" type="curve" smooth="yes"/>
      <point x="163.392" y="563.416"/>
      <point x="709.44" y="716.084"/>
      <point x="709.44" y="437.332" type="curve" smooth="yes"/>
      <point x="709.44" y="275.924"/>
      <point x="607.376" y="170.5"/>
      <point x="440.616" y="170.5" type="curve" smooth="yes" name="n12"/>
      <point x="250.564" y="170.5"/>
      <point x="196.56" y="309.2"/>
      <point x="138.596" y="309.2" type="curve" smooth="yes"/>
      <point x="117.944" y="309.2"/>
      <point x="97.296" y="296.544"/>
      <point x="83.972" y="280.556" type="curve"/>
      <point x="4.712" y="172.66" type="line"/>
      <point x="92.7" y="58.66"/>
      <point x="242.64" y="-16"/>
      <point x="411.976" y="-16" type="curve" smooth="yes" name="n22"/>
      <point x="729.268" y="-16"/>
      <point x="927.244" y="215.976"/>
      <point x="927.244" y="493.276" type="curve" smooth="yes"/>
      <point x="927.244" y="895.252"/>
      <point x="377.2" y="781.22"/>
      <point x="377.2" y="1040.66" type="curve" smooth="yes"/>
      <point x="377.2" y="1168.73"/>
      <point x="465.252" y="1269.46"/>
      <point x="622.656" y="1269.46" type="curve" smooth="yes" name="n31"/>
      <point x="780.704" y="1269.46"/>
      <point x="832.696" y="1163.44"/>
      <point x="880.672" y="1163.44" type="curve" smooth="yes"/>
      <point x="903.32" y="1163.44"/>
      <point x="917.976" y="1174.76"/>
      <point x="934.628" y="1197.41" type="curve" smooth="yes"/>
    </contour>
  </outline>
  <guideline angle="82.9991" x="475" y="0"/>
</glyph>
<glyph name="T" format="2">
  <advance width="1103.272"/>
  <unicode hex="0054"/>
  <guideline x="545.988" y="0.0" angle="82.9991"/>
  <anchor x="659.97" y="1515.314" name="Top"/>
  <anchor x="466.306" y="-70.0" name="bottom"/>
  <anchor x="586.278" y="718.648" name="Slash"/>
  <anchor x="659.97" y="1515.314" name="top"/>
  <outline>
    <contour>
      <point x="765.866" y="1439.96" type="line"/>
      <point x="540.734" y="1439.96" type="line"/>
      <point x="364.738" y="0.0" type="line"/>
      <point x="588.538" y="0.0" type="line"/>
    </contour>
    <contour>
      <point x="129.99" y="1439.96" type="line"/>
      <point x="108.01" y="1252.792" type="line"/>
      <point x="1151.294" y="1252.792" type="line"/>
      <point x="1174.606" y="1439.96" type="line"/>
    </contour>
  </outline>
</glyph>
<glyph name="U" format="2">
  <advance width="1377"/>
  <unicode hex="0055"/>
  <anchor x="795.318" y="1515.31" name="Top"/>
  <anchor x="608.984" y="-70" name="bottom"/>
  <anchor x="795.318" y="1515.31" name="top"/>
  <outline>
    <contour>
      <point x="635.296" y="179.824" type="curve" smooth="yes" name="n00"/>
      <point x="434.552" y="179.824"/>
      <point x="337.18" y="339.896"/>
      <point x="364.52" y="569.952" type="curve"/>
      <point x="471.188" y="1439.96" type="line" name="n04"/>
      <point x="246.056" y="1439.96" type="line"/>
      <point x="140.72" y="569.284" type="line" smooth="yes"/>
      <point x="99.392" y="233.324"/>
      <point x="276.032" y="-16.668"/>
      <point x="611.316" y="-16.668" type="curve" smooth="yes" name="n09"/>
      <point x="947.268" y="-16.668"/>
      <point x="1184.57" y="233.324"/>
      <point x="1226.57" y="569.284" type="curve"/>
      <point x="1333.24" y="1439.96" type="line"/>
      <point x="1108.1" y="1439.96" type="line"/>
      <point x="1001.44" y="569.284" type="line" smooth="yes"/>
      <point x="973.428" y="339.228"/>
      <point x="835.372" y="179.824"/>
    </contour>
  </outline>
  <guideline angle="82.9991" x="677" y="0"/>
</glyph>
<glyph name="V" format="2">
  <advance width="1279.558"/>
  <unicode hex="0056"/>
  <guideline x="644.588" y="0.0" angle="82.9991"/>
  <anchor x="744.618" y="1515.314" name="Top"/>
  <anchor x="744.618" y="1515.314" name="top"/>
  <anchor x="560.282" y="-70.0" name="bottom"/>
  <outline>
    <contour>
      <point x="1380.184" y="1439.96" type="line"/>
      <point x="1199.016" y="1439.96" type="line" smooth="yes"/>
      <point x="1161.048" y="1439.96"/>
      <point x="1128.408" y="1413.316"/>
      <point x="1117.084" y="1387.336" type="curve"/>
      <point x="668.8679999999999" y="429.644" type="line" smooth="yes"/>
      <point x="610.248" y="313.736"/>
      <point x="557.624" y="135.89600000000002"/>
      <point x="534.304" y="0.0" type="curve"/>
      <point x="666.856" y="0.0" type="line"/>
    </contour>
    <contour>
      <point x="463.04" y="0.0" type="line"/>
      <point x="599.588" y="0.0" type="line"/>
      <point x="620.232" y="135.89600000000002"/>
      <point x="596.916" y="313.736"/>
      <point x="566.94" y="429.644" type="curve" smooth="yes"/>
      <point x="351.48" y="1387.336" type="line"/>
      <point x="346.15200000000004" y="1417.312"/>
      <point x="322.172" y="1439.96"/>
      <point x="282.872" y="1439.96" type="curve" smooth="yes"/>
      <point x="102.368" y="1439.96" type="line"/>
    </contour>
  </outline>
</glyph>
<glyph name="W" format="2">
  <advance width="1924"/>
  <unicode hex="0057"/>
  <anchor x="1061.3" y="1515.31" name="Top"/>
  <anchor x="878.966" y="-70" name="bottom"/>
  <anchor x="1061.3" y="1515.31" name="top"/>
  <outline>
    <contour>
      <point x="1033.99" y="1439.96" type="line" smooth="yes" name="n00"/>
      <point x="996.018" y="1439.96"/>
      <point x="965.044" y="1413.65"/>
      <point x="953.386" y="1387.34" type="curve" smooth="yes"/>
      <point x="560.53" y="441.632" type="line" smooth="yes"/>
      <point x="510.57" y="323.06"/>
      <point x="461.278" y="135.896"/>
      <point x="439.958" y="0" type="curve" name="n07"/>
      <point x="556.522" y="0" type="line"/>
      <point x="992.014" y="1048.3" type="line" smooth="yes"/>
      <point x="1027.32" y="1134.22"/>
      <point x="1074.61" y="1288.75"/>
      <point x="1087.27" y="1373.35" type="curve"/>
      <point x="1017.33" y="1373.35" type="line"/>
      <point x="1009.34" y="1288.75"/>
      <point x="1019.33" y="1134.22"/>
      <point x="1033.32" y="1048.3" type="curve" smooth="yes"/>
      <point x="1210.74" y="0" type="line"/>
      <point x="1333.97" y="0" type="line"/>
      <point x="1344.62" y="135.896"/>
      <point x="1336.63" y="323.06"/>
      <point x="1316.64" y="441.632" type="curve" smooth="yes"/>
      <point x="1155.88" y="1387.34" type="line"/>
      <point x="1147.55" y="1417.65"/>
      <point x="1125.24" y="1439.96"/>
      <point x="1085.94" y="1439.96" type="curve" smooth="yes"/>
    </contour>
    <contour>
      <point x="354.038" y="0" type="line"/>
      <point x="513.894" y="0" type="line"/>
      <point x="524.55" y="135.896"/>
      <point x="513.89" y="320.396"/>
      <point x="503.23" y="441.632" type="curve"/>
      <point x="363.154" y="1387.34" type="line"/>
      <point x="359.158" y="1418.64"/>
      <point x="333.846" y="1439.96"/>
      <point x="294.546" y="1439.96" type="curve" smooth="yes"/>
      <point x="118.038" y="1439.96" type="line"/>
    </contour>
    <contour>
      <point x="2003.88" y="1439.96" type="line"/>
      <point x="1826.71" y="1439.96" type="line" smooth="yes"/>
      <point x="1788.74" y="1439.96"/>
      <point x="1752.77" y="1414.65"/>
      <point x="1744.11" y="1387.34" type="curve"/>
      <point x="1372.61" y="441.632" type="line"/>
      <point x="1331.97" y="320.396"/>
      <point x="1280.02" y="135.896"/>
      <point x="1258.7" y="0" type="curve"/>
      <point x="1414.56" y="0" type="line"/>
    </contour>
  </outline>
  <guideline angle="0" x="0" y="83"/>
  <guideline angle="82.9991" x="883" y="0"/>
</glyph>
<glyph name="Y" format="2">
  <advance width="1190.8600000000001"/>
  <unicode hex="0059"/>
  <guideline y="662.666"/>
  <guideline x="594.934" y="0.0" angle="82.9991"/>
  <anchor x="700.934" y="1515.314" name="Top"/>
  <anchor x="-114.64" y="1120.0" name="onRight"/>
  <anchor x="700.934" y="1515.314" name="top"/>
  <anchor x="515.266" y="-70.0" name="bottom"/>
  <outline>
    <contour>
      <point x="1293.8220000000001" y="1439.96" type="line"/>
      <point x="1107.322" y="1439.96" type="line" smooth="yes"/>
      <point x="1069.354" y="1439.96"/>
      <point x="1042.71" y="1413.984"/>
      <point x="1026.722" y="1388.004" type="curve"/>
      <point x="682.53" y="853.788" type="line"/>
      <point x="619.918" y="745.884"/>
      <point x="578.614" y="667.948"/>
      <point x="558.626" y="548.044" type="curve"/>
      <point x="689.846" y="548.044" type="line"/>
    </contour>
    <contour>
      <point x="486.03" y="548.044" type="line"/>
      <point x="627.906" y="548.044" type="line"/>
      <point x="634.562" y="642.64"/>
      <point x="621.234" y="737.892"/>
      <point x="581.934" y="853.788" type="curve" smooth="yes"/>
      <point x="371.126" y="1388.004" type="line"/>
      <point x="361.134" y="1419.312"/>
      <point x="339.818" y="1439.96"/>
      <point x="300.51800000000003" y="1439.96" type="curve" smooth="yes"/>
      <point x="100.698" y="1439.96" type="line"/>
    </contour>
    <contour>
      <point x="708.498" y="609.332" type="line"/>
      <point x="483.366" y="609.332" type="line"/>
      <point x="407.366" y="0.0" type="line"/>
      <point x="632.498" y="0.0" type="line"/>
    </contour>
  </outline>
</glyph>
<glyph name="Z" format="2">
  <advance width="1116.636"/>
  <unicode hex="005A"/>
  <guideline x="570.02" y="0.0" angle="82.9991"/>
  <anchor x="684.312" y="1515.314" name="Top"/>
  <anchor x="495.31600000000003" y="-70.0" name="bottom"/>
  <anchor x="684.312" y="1515.314" name="top"/>
  <outline>
    <contour>
      <point x="1128.3" y="1312.728" type="line" smooth="yes"/>
      <point x="1140.96" y="1331.384"/>
      <point x="1150.952" y="1348.036"/>
      <point x="1154.284" y="1368.688" type="curve"/>
      <point x="1164.276" y="1439.96" type="line"/>
      <point x="973.116" y="1439.96" type="line"/>
      <point x="2.34" y="125.232" type="line"/>
      <point x="-9.652000000000001" y="107.244"/>
      <point x="-19.644000000000002" y="90.592"/>
      <point x="-22.976000000000003" y="69.94" type="curve"/>
      <point x="-31.636000000000003" y="0.0" type="line"/>
      <point x="159.524" y="0.0" type="line"/>
    </contour>
    <contour>
      <point x="185.668" y="1439.96" type="line"/>
      <point x="163.02" y="1258.12" type="line"/>
      <point x="1022.4" y="1258.12" type="line"/>
      <point x="1164.276" y="1439.96" type="line"/>
    </contour>
    <contour>
      <point x="108.908" y="181.84" type="line"/>
      <point x="-31.636000000000003" y="0.0" type="line"/>
      <point x="972.292" y="0.0" type="line"/>
      <point x="994.94" y="181.84" type="line"/>
    </contour>
  </outline>
</glyph>
<glyph name="bracketleft" format="2">
  <advance width="589"/>
  <unicode hex="005B"/>
  <outline>
    <contour>
      <point x="646.596" y="1539.3" type="line"/>
      <point x="282.708" y="1539.3" type="line" name="n01"/>
      <point x="276.056" y="1404.08" type="line" name="n02"/>
      <point x="575.32" y="1404.08" type="line" smooth="yes"/>
      <point x="607.296" y="1404.08"/>
      <point x="633.94" y="1428.06"/>
      <point x="637.272" y="1457.37" type="curve" smooth="yes"/>
    </contour>
    <contour>
      <point x="421.94" y="-296.612" type="line"/>
      <point x="431.932" y="-216.02" type="line" smooth="yes"/>
      <point x="435.928" y="-185.376"/>
      <point x="415.944" y="-161.396"/>
      <point x="383.968" y="-161.396" type="curve" smooth="yes"/>
      <point x="91.364" y="-161.396" type="line" name="n12"/>
      <point x="58.052" y="-296.612" type="line"/>
    </contour>
    <contour>
      <point x="456.556" y="1539.3" type="line"/>
      <point x="282.708" y="1539.3" type="line"/>
      <point x="58.052" y="-296.612" type="line"/>
      <point x="229.9" y="-296.612" type="line" name="n17"/>
    </contour>
  </outline>
  <guideline angle="82.9991" x="276" y="0"/>
</glyph>
<glyph name="backslash" format="2">
  <advance width="841.268"/>
  <unicode hex="005C"/>
  <guideline x="354.294" y="0.0" angle="82.9991"/>
  <outline>
    <contour>
      <point x="509.078" y="-15.384" type="line"/>
      <point x="521.734" y="-66.676"/>
      <point x="566.366" y="-93.98400000000001"/>
      <point x="610.33" y="-93.98400000000001" type="curve" smooth="yes"/>
      <point x="696.918" y="-93.98400000000001" type="line"/>
      <point x="346.198" y="1378.716" type="line" smooth="yes"/>
      <point x="333.54200000000003" y="1425.344"/>
      <point x="298.238" y="1453.32"/>
      <point x="248.27800000000002" y="1453.32" type="curve" smooth="yes"/>
      <point x="161.022" y="1453.32" type="line"/>
    </contour>
  </outline>
</glyph>
<glyph name="bracketright" format="2">
  <advance width="589.622"/>
  <unicode hex="005D"/>
  <guideline x="276.0" y="0.0" angle="82.9991"/>
  <outline>
    <contour>
      <point x="158.698" y="1457.372" type="line"/>
      <point x="155.36599999999999" y="1428.06"/>
      <point x="175.35" y="1404.08"/>
      <point x="207.994" y="1404.08" type="curve" smooth="yes"/>
      <point x="507.25800000000004" y="1404.08" type="line"/>
      <point x="533.91" y="1539.296" type="line"/>
      <point x="169.35399999999998" y="1539.296" type="line"/>
    </contour>
    <contour>
      <point x="307.922" y="-296.612" type="line"/>
      <point x="314.574" y="-161.396" type="line"/>
      <point x="15.310000000000002" y="-161.396" type="line" smooth="yes"/>
      <point x="-17.334" y="-161.396"/>
      <point x="-42.646" y="-185.376"/>
      <point x="-45.978" y="-216.02" type="curve"/>
      <point x="-56.634" y="-296.612" type="line"/>
    </contour>
    <contour>
      <point x="135.406" y="-296.612" type="line"/>
      <point x="307.922" y="-296.612" type="line"/>
      <point x="533.91" y="1539.296" type="line"/>
      <point x="361.394" y="1539.296" type="line"/>
    </contour>
  </outline>
</glyph>
<glyph name="asciicircum" format="2">
  <advance width="1160"/>
  <unicode hex="005E"/>
  <outline>
    <contour>
      <point x="194.776" y="781.364" type="line" name="n00"/>
      <point x="359.292" y="781.364" type="line" smooth="yes"/>
      <point x="389.272" y="781.364"/>
      <point x="407.26" y="798.688"/>
      <point x="417.92" y="819.34" type="curve" smooth="yes"/>
      <point x="591.36" y="1137.53" type="line" smooth="yes"/>
      <point x="645.984" y="1238.12"/>
      <point x="657.316" y="1317.39"/>
      <point x="659.316" y="1439.96" type="curve" name="n08"/>
      <point x="560.736" y="1439.96" type="line"/>
    </contour>
    <contour>
      <point x="699.276" y="1439.96" type="line"/>
      <point x="606.024" y="1439.96" type="line"/>
      <point x="606.692" y="1317.39"/>
      <point x="619.356" y="1239.45"/>
      <point x="676.644" y="1137.53" type="curve" smooth="yes"/>
      <point x="852.748" y="819.34" type="line" smooth="yes"/>
      <point x="864.74" y="798.02"/>
      <point x="882.064" y="781.364"/>
      <point x="908.712" y="781.364" type="curve" smooth="yes"/>
      <point x="1065.24" y="781.364" type="line"/>
    </contour>
  </outline>
  <guideline angle="82.9991" x="580" y="0"/>
</glyph>
<glyph name="underscore" format="2">
  <advance width="888.664"/>
  <unicode hex="005F"/>
  <guideline x="363.0" y="0.0" angle="82.9991"/>
  <outline>
    <contour>
      <point x="-11.011999999999999" y="-152.088" type="line"/>
      <point x="-27.664" y="-288.64" type="line"/>
      <point x="697.668" y="-288.64" type="line"/>
      <point x="714.988" y="-152.088" type="line"/>
    </contour>
  </outline>
</glyph>
<glyph name="grave" format="2">
  <advance width="736"/>
  <unicode hex="0060"/>
  <anchor x="400" y="1120" name="_top"/>
  <outline>
    <contour>
      <point x="259.794" y="1455.96" type="line" name="n00"/>
      <point x="452.094" y="1196.64" type="line" smooth="yes"/>
      <point x="468.746" y="1173.32"/>
      <point x="484.736" y="1164.66" name="n03"/>
      <point x="514.378" y="1164.66" type="curve" smooth="yes"/>
      <point x="626.612" y="1164.66" type="line"/>
      <point x="520.594" y="1407.32" type="line" smooth="yes"/>
      <point x="506.932" y="1439.97"/>
      <point x="490.274" y="1455.96"/>
      <point x="445.632" y="1455.96" type="curve" smooth="yes"/>
    </contour>
  </outline>
  <guideline angle="82.9991" x="368" y="0"/>
</glyph>
<glyph name="a" format="2">
  <advance width="1032.61"/>
  <unicode hex="0061"/>
  <guideline x="511.632" y="0.0" angle="82.9991"/>
  <anchor x="672.638" y="1120.0" name="top"/>
  <anchor x="794.212" y="154.532" name="hook"/>
  <anchor x="463.66" y="-70.0" name="bottom"/>
  <outline>
    <contour>
      <point x="837.564" y="0.0" type="line"/>
      <point x="959.556" y="987.956" type="line"/>
      <point x="748.412" y="977.3" type="line"/>
      <point x="664.436" y="304.82" type="line"/>
      <point x="671.096" y="287.488" type="line"/>
      <point x="654.396" y="72.608" type="line"/>
      <point x="654.396" y="31.976000000000003"/>
      <point x="669.716" y="0.0"/>
      <point x="725.004" y="0.0" type="curve" smooth="yes"/>
    </contour>
    <contour>
      <point x="959.556" y="987.956" type="line"/>
      <point x="875.5840000000001" y="1022.624"/>
      <point x="786.948" y="1034.624"/>
      <point x="697.6320000000001" y="1034.624" type="curve" smooth="yes"/>
      <point x="327.032" y="1034.624"/>
      <point x="41.708" y="711.284"/>
      <point x="41.708" y="347.312" type="curve" smooth="yes"/>
      <point x="41.708" y="110.02"/>
      <point x="156.328" y="-14.664"/>
      <point x="313.676" y="-14.664" type="curve" smooth="yes"/>
      <point x="520.996" y="-14.664"/>
      <point x="683.008" y="198.672"/>
      <point x="779.012" y="488.012" type="curve"/>
      <point x="707.744" y="595.928" type="line"/>
      <point x="645.028" y="353.188"/>
      <point x="524.312" y="162.512"/>
      <point x="396.26" y="162.512" type="curve" smooth="yes"/>
      <point x="306.86400000000003" y="162.512"/>
      <point x="256.18399999999997" y="234.56400000000002"/>
      <point x="256.18399999999997" y="385.94" type="curve" smooth="yes"/>
      <point x="256.18399999999997" y="649.34"/>
      <point x="437.604" y="880.092"/>
      <point x="668.328" y="880.092" type="curve" smooth="yes"/>
      <point x="724.34" y="880.092"/>
      <point x="786.336" y="871.42"/>
      <point x="843.0" y="846.744" type="curve"/>
    </contour>
  </outline>
</glyph>
<glyph name="b" format="2">
  <advance width="1068"/>
  <unicode hex="0062"/>
  <anchor x="375.57" y="1515.31" name="Top"/>
  <anchor x="297.292" y="1238" name="bar"/>
  <anchor x="443.96" y="-70" name="bottom"/>
  <anchor x="582.614" y="154.532" name="hook"/>
  <anchor x="658.58" y="1120" name="top"/>
  <outline>
    <contour>
      <point x="164.276" y="0" type="line" smooth="yes" name="n00"/>
      <point x="211.572" y="0"/>
      <point x="226.888" y="19.32"/>
      <point x="239.544" y="60.62" type="curve"/>
      <point x="262.546" y="158.35" type="line"/>
      <point x="277.866" y="173.678" type="line"/>
      <point x="438.192" y="1479.96" type="line" name="n06"/>
      <point x="228.38" y="1479.96" type="line"/>
      <point x="49.052" y="0" type="line"/>
    </contour>
    <contour>
      <point x="227.572" y="145.368" type="line"/>
      <point x="280.904" y="47.336"/>
      <point x="377.588" y="-14.664"/>
      <point x="498.92" y="-14.664" type="curve" smooth="yes" name="n12"/>
      <point x="775.608" y="-14.664"/>
      <point x="995.568" y="320.052"/>
      <point x="995.568" y="659.332" type="curve" smooth="yes"/>
      <point x="995.568" y="909.94"/>
      <point x="888.928" y="1035.29"/>
      <point x="717.592" y="1035.29" type="curve" smooth="yes" name="n18"/>
      <point x="510.94" y="1035.29"/>
      <point x="326.936" y="822.624"/>
      <point x="229.6" y="533.284" type="curve"/>
      <point x="300.868" y="432.028" type="line"/>
      <point x="364.916" y="674.768"/>
      <point x="508.288" y="864.776"/>
      <point x="635.008" y="864.776" type="curve" smooth="yes" name="n25"/>
      <point x="728.4" y="864.776"/>
      <point x="783.092" y="788.064"/>
      <point x="783.092" y="638.02" type="curve" smooth="yes"/>
      <point x="783.092" y="408.64"/>
      <point x="658.384" y="150.524"/>
      <point x="466.288" y="150.524" type="curve" smooth="yes" name="n31"/>
      <point x="389.584" y="150.524"/>
      <point x="305.56" y="181.88"/>
      <point x="259.544" y="270.608" type="curve"/>
    </contour>
  </outline>
  <guideline angle="82.9991" x="496" y="0"/>
</glyph>
<glyph name="d" format="2">
  <advance width="1069.274"/>
  <unicode hex="0064"/>
  <guideline x="532.9639999999999" y="0.0" angle="82.9991"/>
  <anchor x="529.696" y="1120.0" name="top"/>
  <anchor x="869.562" y="154.532" name="hook"/>
  <anchor x="903.0" y="1238.0" name="bar"/>
  <anchor x="896.026" y="1515.314" name="Top"/>
  <anchor x="484.994" y="-70.0" name="bottom"/>
  <outline>
    <contour>
      <point x="870.894" y="0.0" type="line"/>
      <point x="1053.554" y="1479.96" type="line"/>
      <point x="843.742" y="1479.96" type="line"/>
      <point x="697.766" y="304.82" type="line"/>
      <point x="704.426" y="287.488" type="line"/>
      <point x="687.726" y="72.608" type="line"/>
      <point x="687.726" y="31.976000000000003"/>
      <point x="703.046" y="0.0"/>
      <point x="758.334" y="0.0" type="curve"/>
    </contour>
    <contour>
      <point x="815.702" y="875.928" type="line"/>
      <point x="762.37" y="973.96"/>
      <point x="665.686" y="1035.292"/>
      <point x="544.354" y="1035.292" type="curve" smooth="yes"/>
      <point x="267.666" y="1035.292"/>
      <point x="47.705999999999996" y="701.244"/>
      <point x="47.705999999999996" y="361.964" type="curve" smooth="yes"/>
      <point x="47.705999999999996" y="111.356"/>
      <point x="154.346" y="-14.664"/>
      <point x="325.682" y="-14.664" type="curve" smooth="yes"/>
      <point x="532.334" y="-14.664"/>
      <point x="716.338" y="198.672"/>
      <point x="813.674" y="488.012" type="curve"/>
      <point x="742.406" y="589.268" type="line"/>
      <point x="678.358" y="346.528"/>
      <point x="534.986" y="155.852"/>
      <point x="408.266" y="155.852" type="curve" smooth="yes"/>
      <point x="314.874" y="155.852"/>
      <point x="260.182" y="233.232"/>
      <point x="260.182" y="383.276" type="curve" smooth="yes"/>
      <point x="260.182" y="612.656"/>
      <point x="384.89" y="870.104"/>
      <point x="576.986" y="870.104" type="curve" smooth="yes"/>
      <point x="653.69" y="870.104"/>
      <point x="737.7139999999999" y="839.4159999999999"/>
      <point x="783.73" y="750.688" type="curve"/>
    </contour>
  </outline>
</glyph>
<glyph name="f" format="2">
  <advance width="652"/>
  <unicode hex="0066"/>
  <anchor x="511.3" y="1515.31" name="Top"/>
  <anchor x="279.294" y="492.706" name="bar"/>
  <anchor x="166.274" y="-421" name="bottom"/>
  <anchor x="337.518" y="154.532" name="hook"/>
  <anchor x="589.644" y="1503.97" name="top"/>
  <outline>
    <contour>
      <point x="443.854" y="1085.34" type="line" smooth="yes"/>
      <point x="463.862" y="1247.4"/>
      <point x="541.226" y="1306.09"/>
      <point x="651.91" y="1306.09" type="curve" smooth="yes" name="n03"/>
      <point x="693.266" y="1306.09"/>
      <point x="728.594" y="1303.4"/>
      <point x="733.926" y="1332.05" type="curve" smooth="yes"/>
      <point x="753.91" y="1443.95" type="line"/>
      <point x="718.586" y="1456.62"/>
      <point x="679.918" y="1463.28"/>
      <point x="637.926" y="1463.28" type="curve" smooth="yes" name="n10"/>
      <point x="429.99" y="1463.28"/>
      <point x="271.366" y="1325.32"/>
      <point x="242.034" y="1092" type="curve"/>
      <point x="79.366" y="-248.004" type="line" name="n14"/>
      <point x="164.618" y="-248.004" type="line" smooth="yes"/>
      <point x="225.894" y="-248.004"/>
      <point x="257.202" y="-215.368"/>
      <point x="275.186" y="-158.748" type="curve"/>
      <point x="323.842" y="37.972" type="line"/>
      <point x="433.178" y="936.656" type="line"/>
      <point x="429.182" y="960.64" type="line"/>
    </contour>
    <contour>
      <point x="655.258" y="852.068" type="line" name="n22"/>
      <point x="675.242" y="1005.93" type="line" name="n23"/>
      <point x="90.674" y="1005.93" type="line"/>
      <point x="80.018" y="918.68" type="line" smooth="yes"/>
      <point x="76.022" y="886.04"/>
      <point x="95.338" y="870.72"/>
      <point x="123.318" y="864.06" type="curve"/>
      <point x="247.346" y="845.408" type="line"/>
      <point x="278.662" y="852.068" type="line"/>
    </contour>
  </outline>
  <guideline angle="82.9991" x="268" y="0"/>
</glyph>
<glyph name="g" format="2">
  <advance width="987"/>
  <unicode hex="0067"/>
  <anchor x="400.272" y="-421" name="bottom"/>
  <anchor x="568.006" y="1120" name="top"/>
  <outline>
    <contour>
      <point x="448.95" y="469.928" type="curve" smooth="yes" name="n00"/>
      <point x="354.238" y="469.928"/>
      <point x="299.534" y="531.948"/>
      <point x="299.534" y="641.332" type="curve" smooth="yes"/>
      <point x="299.534" y="768.708"/>
      <point x="369.578" y="888.752"/>
      <point x="500.31" y="888.752" type="curve" smooth="yes" name="n06"/>
      <point x="596.354" y="888.752"/>
      <point x="651.726" y="830.068"/>
      <point x="651.726" y="722.684" type="curve"/>
      <point x="650.394" y="599.972"/>
      <point x="579.682" y="469.928"/>
    </contour>
    <contour>
      <point x="847.55" y="730.676" type="curve"/>
      <point x="847.55" y="935.3"/>
      <point x="701.594" y="1035.29"/>
      <point x="524.286" y="1035.29" type="curve" smooth="yes" name="n15"/>
      <point x="251.018" y="1035.29"/>
      <point x="104.374" y="839.312"/>
      <point x="104.374" y="642.664" type="curve" smooth="yes"/>
      <point x="104.374" y="439.368"/>
      <point x="234.346" y="338.04"/>
      <point x="389.01" y="338.04" type="curve" smooth="yes" name="n21"/>
      <point x="521.622" y="338.04"/>
      <point x="594.966" y="387.36"/>
      <point x="665.626" y="460.016" type="curve"/>
      <point x="656.306" y="503.988" type="line"/>
      <point x="579.614" y="398.644"/>
      <point x="550.29" y="325.332"/>
      <point x="550.29" y="259.34" type="curve"/>
      <point x="549.622" y="157.972"/>
      <point x="629.062" y="105.328"/>
      <point x="628.394" y="-13.396" type="curve" smooth="yes"/>
      <point x="627.726" y="-123.424"/>
      <point x="519.014" y="-212.144"/>
      <point x="356.938" y="-212.144" type="curve" smooth="yes" name="n34"/>
      <point x="217.562" y="-212.144"/>
      <point x="143.506" y="-164.784"/>
      <point x="143.506" y="-78.072" type="curve"/>
      <point x="144.174" y="26.664"/>
      <point x="288.238" y="114.724"/>
      <point x="632.302" y="54.728" type="curve"/>
      <point x="600.326" y="179.288" type="line"/>
      <point x="344.206" y="231.96"/>
      <point x="-58.978" y="177.208"/>
      <point x="-59.646" y="-104.712" type="curve"/>
      <point x="-59.646" y="-255.376"/>
      <point x="96.338" y="-361.348"/>
      <point x="338.954" y="-361.348" type="curve" smooth="yes" name="n47"/>
      <point x="639.566" y="-361.348"/>
      <point x="821.554" y="-192.036"/>
      <point x="823.554" y="3.92" type="curve" smooth="yes"/>
      <point x="824.222" y="151.944"/>
      <point x="704.154" y="216.604"/>
      <point x="704.822" y="325.94" type="curve"/>
      <point x="704.822" y="475.932"/>
      <point x="846.214" y="539.292"/>
    </contour>
    <contour>
      <point x="768.882" y="816.776" type="line"/>
      <point x="948.254" y="856.072" type="line" name="n57"/>
      <point x="974.242" y="865.396"/>
      <point x="988.898" y="884.716"/>
      <point x="992.894" y="912.692" type="curve" smooth="yes"/>
      <point x="1002.22" y="983.296" type="line" name="n61"/>
      <point x="635.662" y="983.296" type="line"/>
    </contour>
  </outline>
  <guideline angle="90" x="419" y="0"/>
  <guideline angle="82.9991" x="100" y="0"/>
</glyph>
<glyph name="h" format="2">
  <advance width="1071"/>
  <unicode hex="0068"/>
  <anchor x="555.316" y="718.648" name="Slash"/>
  <anchor x="376.236" y="1515.31" name="Top"/>
  <anchor x="460.972" y="-70" name="bottom"/>
  <anchor x="376.236" y="1515.31" name="top"/>
  <outline>
    <contour>
      <point x="262.86" y="0" type="line" name="n00"/>
      <point x="442.188" y="1479.96" type="line" name="n01"/>
      <point x="228.38" y="1479.96" type="line"/>
      <point x="49.052" y="0" type="line"/>
    </contour>
    <contour>
      <point x="883.556" y="0" type="line"/>
      <point x="960.22" y="649.312" type="line"/>
      <point x="746.412" y="649.312" type="line"/>
      <point x="669.748" y="0" type="line"/>
    </contour>
    <contour>
      <point x="960.22" y="649.312" type="line"/>
      <point x="990.884" y="895.964"/>
      <point x="891.592" y="1035.29"/>
      <point x="718.26" y="1035.29" type="curve" smooth="yes" name="n11"/>
      <point x="533.596" y="1035.29"/>
      <point x="349.588" y="883.928"/>
      <point x="240.928" y="588.612" type="curve"/>
      <point x="311.528" y="482.028" type="line"/>
      <point x="372.916" y="708.752"/>
      <point x="516.956" y="859.448"/>
      <point x="637.672" y="859.448" type="curve" smooth="yes" name="n18"/>
      <point x="731.068" y="859.448"/>
      <point x="764.42" y="794.052"/>
      <point x="746.412" y="649.312" type="curve"/>
    </contour>
  </outline>
  <guideline angle="82.9991" x="502" y="0"/>
</glyph>
<glyph name="i" format="2">
  <advance width="475.916"/>
  <unicode hex="0069"/>
  <guideline x="250.962"/>
  <guideline x="100.0" y="0.0" angle="82.9991"/>
  <anchor x="269.534" y="154.532" name="hook"/>
  <anchor x="320.944" y="1515.314" name="Top"/>
  <anchor x="320.944" y="1515.314" name="top"/>
  <anchor x="158.96" y="-70.0" name="bottom"/>
  <outline>
    <contour>
      <point x="181.38400000000001" y="1019.96" type="line"/>
      <point x="58.72" y="0.0" type="line"/>
      <point x="269.86400000000003" y="0.0" type="line"/>
      <point x="392.528" y="1019.96" type="line"/>
    </contour>
    <contour>
      <point x="457.208" y="1328.016" type="curve"/>
      <point x="457.208" y="1407.3"/>
      <point x="389.916" y="1471.9279999999999"/>
      <point x="317.296" y="1471.9279999999999" type="curve" smooth="yes"/>
      <point x="246.672" y="1471.9279999999999"/>
      <point x="180.048" y="1405.968"/>
      <point x="180.048" y="1328.016" type="curve" smooth="yes"/>
      <point x="180.048" y="1250.732"/>
      <point x="245.34" y="1186.104"/>
      <point x="315.964" y="1186.104" type="curve" smooth="yes"/>
      <point x="387.252" y="1186.104"/>
      <point x="457.208" y="1250.732"/>
    </contour>
  </outline>
</glyph>
<glyph name="j" format="2">
  <advance width="474"/>
  <unicode hex="006A"/>
  <anchor x="315.952" y="1515.31" name="Top"/>
  <anchor x="212.648" y="492.706" name="bar"/>
  <anchor x="114.294" y="-421" name="bottom"/>
  <anchor x="315.952" y="1515.31" name="top"/>
  <outline>
    <contour>
      <point x="182.05" y="1019.96" type="line" name="n00"/>
      <point x="50.706" y="-53.452" type="line"/>
      <point x="36.706" y="-160.12"/>
      <point x="-0.654" y="-200.82"/>
      <point x="-91.998" y="-200.82" type="curve" smooth="yes" name="n04"/>
      <point x="-137.334" y="-200.82"/>
      <point x="-150.666" y="-200.788"/>
      <point x="-158.67" y="-226.784" type="curve"/>
      <point x="-179.986" y="-342.676" type="line"/>
      <point x="-145.334" y="-355.344"/>
      <point x="-112.678" y="-362.012"/>
      <point x="-63.362" y="-362.012" type="curve" smooth="yes" name="n11"/>
      <point x="131.886" y="-362.012"/>
      <point x="239.858" y="-224.732"/>
      <point x="260.518" y="-53.452" type="curve" smooth="yes"/>
      <point x="391.862" y="1019.96" type="line"/>
    </contour>
    <contour>
      <point x="450.554" y="1328.02" type="curve" smooth="yes"/>
      <point x="450.554" y="1407.3"/>
      <point x="383.262" y="1471.93"/>
      <point x="310.642" y="1471.93" type="curve" smooth="yes" name="n19"/>
      <point x="240.018" y="1471.93"/>
      <point x="173.394" y="1405.97"/>
      <point x="173.394" y="1328.02" type="curve" smooth="yes"/>
      <point x="173.394" y="1250.73"/>
      <point x="238.686" y="1186.1"/>
      <point x="309.31" y="1186.1" type="curve" smooth="yes" name="n25"/>
      <point x="380.598" y="1186.1"/>
      <point x="450.554" y="1250.73"/>
    </contour>
  </outline>
  <guideline angle="90" x="204" y="0"/>
  <guideline angle="82.9991" x="100" y="0"/>
</glyph>
<glyph name="k" format="2">
  <advance width="976"/>
  <unicode hex="006B"/>
  <anchor x="393.552" y="1515.31" name="Top"/>
  <anchor x="433.282" y="-70" name="bottom"/>
  <anchor x="799.24" y="154.532" name="hook"/>
  <anchor x="393.552" y="1515.31" name="top"/>
  <outline>
    <contour>
      <point x="228.714" y="1479.96" type="line" name="n00"/>
      <point x="47.386" y="0" type="line" name="n01"/>
      <point x="258.53" y="0" type="line"/>
      <point x="439.858" y="1479.96" type="line"/>
    </contour>
    <contour>
      <point x="259.918" y="621.248" type="line"/>
      <point x="280.562" y="476.708" type="line"/>
      <point x="350.538" y="476.708" type="line" smooth="yes"/>
      <point x="387.87" y="476.708"/>
      <point x="400.538" y="470.708"/>
      <point x="415.874" y="440.716" type="curve"/>
      <point x="642.706" y="39.972" type="line"/>
      <point x="656.034" y="9.992"/>
      <point x="677.354" y="0"/>
      <point x="709.998" y="0" type="curve" smooth="yes"/>
      <point x="895.162" y="0" type="line"/>
      <point x="617.69" y="498.672" type="line"/>
      <point x="587.706" y="562.624"/>
      <point x="547.73" y="603.264"/>
      <point x="446.462" y="603.264" type="curve"/>
      <point x="439.798" y="537.32" type="line"/>
      <point x="522.41" y="537.32"/>
      <point x="582.362" y="569.96"/>
      <point x="634.33" y="631.248" type="curve"/>
      <point x="997.81" y="1019.96" type="line" name="n23"/>
      <point x="807.318" y="1019.96" type="line" smooth="yes"/>
      <point x="772.67" y="1019.96"/>
      <point x="750.682" y="1005.97"/>
      <point x="730.026" y="979.984" type="curve"/>
      <point x="427.85" y="652.568" type="line"/>
      <point x="407.186" y="628.576"/>
      <point x="391.858" y="621.248"/>
      <point x="362.534" y="621.248" type="curve" smooth="yes"/>
    </contour>
  </outline>
  <guideline angle="82.9991" x="413" y="0"/>
</glyph>
<glyph name="l" format="2">
  <advance width="465"/>
  <unicode hex="006C"/>
  <anchor x="340.632" y="1515.31" name="Top"/>
  <anchor x="250.294" y="737.296" name="bar"/>
  <anchor x="146.97" y="-70" name="bottom"/>
  <anchor x="271.866" y="154.532" name="hook"/>
  <anchor x="340.632" y="1515.31" name="top"/>
  <outline>
    <contour>
      <point x="263.536" y="0" type="line" name="n00"/>
      <point x="443.532" y="1479.96" type="line" name="n01"/>
      <point x="232.388" y="1479.96" type="line"/>
      <point x="53.06" y="0" type="line"/>
    </contour>
  </outline>
  <guideline angle="82.9991" x="212" y="0"/>
</glyph>
<glyph name="m" format="2">
  <advance width="1581"/>
  <unicode hex="006D"/>
  <anchor x="695.28" y="-70" name="bottom"/>
  <anchor x="1368.85" y="154.532" name="hook"/>
  <anchor x="872.278" y="1120" name="top"/>
  <outline>
    <contour>
      <point x="258.864" y="0" type="line" name="n00"/>
      <point x="342.848" y="701.204" type="line"/>
      <point x="337.52" y="714.528" type="line"/>
      <point x="352.216" y="950.02" type="line"/>
      <point x="352.216" y="998.644"/>
      <point x="326.24" y="1021.3" name="n05"/>
      <point x="280.276" y="1021.3" type="curve" smooth="yes"/>
      <point x="172.38" y="1021.3" type="line"/>
      <point x="49.052" y="0" type="line"/>
    </contour>
    <contour>
      <point x="826.224" y="0" type="line"/>
      <point x="902.888" y="649.312" type="line"/>
      <point x="691.744" y="649.312" type="line"/>
      <point x="615.08" y="0" type="line"/>
    </contour>
    <contour>
      <point x="878.244" y="649.312" type="line"/>
      <point x="908.908" y="895.964"/>
      <point x="838.96" y="1035.29"/>
      <point x="677.616" y="1035.29" type="curve" smooth="yes" name="n16"/>
      <point x="504.94" y="1035.29"/>
      <point x="347.592" y="883.928"/>
      <point x="238.932" y="588.612" type="curve"/>
      <point x="308.2" y="482.028" type="line"/>
      <point x="370.924" y="713.428"/>
      <point x="478.968" y="858.116"/>
      <point x="603.688" y="858.116" type="curve" smooth="yes" name="n23"/>
      <point x="691.092" y="858.116"/>
      <point x="709.752" y="794.052"/>
      <point x="691.744" y="649.312" type="curve"/>
    </contour>
    <contour>
      <point x="1392.92" y="0" type="line"/>
      <point x="1469.58" y="649.312" type="line"/>
      <point x="1258.44" y="649.312" type="line"/>
      <point x="1181.78" y="0" type="line"/>
    </contour>
    <contour>
      <point x="1469.58" y="649.312" type="line"/>
      <point x="1500.25" y="895.964"/>
      <point x="1416.97" y="1035.29"/>
      <point x="1243.64" y="1035.29" type="curve" smooth="yes"/>
      <point x="1067.66" y="1035.29"/>
      <point x="914.96" y="901.296"/>
      <point x="808.968" y="609.32" type="curve"/>
      <point x="878.236" y="502.736" type="line"/>
      <point x="938.288" y="728.124"/>
      <point x="1053.01" y="858.116"/>
      <point x="1167.04" y="858.116" type="curve" smooth="yes"/>
      <point x="1253.78" y="858.116"/>
      <point x="1276.45" y="794.052"/>
      <point x="1258.44" y="649.312" type="curve"/>
    </contour>
  </outline>
  <guideline angle="82.9991" x="772" y="0"/>
</glyph>
<glyph name="n" format="2">
  <advance width="1071.604"/>
  <unicode hex="006E"/>
  <guideline x="536.966"/>
  <guideline x="100.0" y="0.0" angle="82.9991"/>
  <anchor x="593.6320000000001" y="1120.0" name="top"/>
  <anchor x="874.226" y="154.532" name="hook"/>
  <anchor x="461.972" y="-70.0" name="bottom"/>
  <outline>
    <contour>
      <point x="263.526" y="0.0" type="line"/>
      <point x="342.182" y="701.204" type="line"/>
      <point x="336.85400000000004" y="714.528" type="line"/>
      <point x="351.55" y="950.02" type="line"/>
      <point x="351.55" y="998.644"/>
      <point x="325.574" y="1021.296"/>
      <point x="279.61" y="1021.296" type="curve" smooth="yes"/>
      <point x="171.714" y="1021.296" type="line"/>
      <point x="49.717999999999996" y="0.0" type="line"/>
    </contour>
    <contour>
      <point x="884.89" y="0.0" type="line"/>
      <point x="961.554" y="649.312" type="line"/>
      <point x="747.746" y="649.312" type="line"/>
      <point x="671.082" y="0.0" type="line"/>
    </contour>
    <contour>
      <point x="961.554" y="649.312" type="line"/>
      <point x="992.218" y="895.9639999999999"/>
      <point x="892.258" y="1035.292"/>
      <point x="720.926" y="1035.292" type="curve" smooth="yes"/>
      <point x="534.9300000000001" y="1035.292"/>
      <point x="352.254" y="883.928"/>
      <point x="243.594" y="588.612" type="curve"/>
      <point x="312.86199999999997" y="482.028" type="line"/>
      <point x="373.582" y="708.752"/>
      <point x="517.622" y="858.116"/>
      <point x="640.338" y="858.116" type="curve" smooth="yes"/>
      <point x="732.402" y="858.116"/>
      <point x="765.754" y="794.052"/>
      <point x="747.746" y="649.312" type="curve"/>
    </contour>
  </outline>
</glyph>
<glyph name="o" format="2">
  <advance width="1042.308"/>
  <unicode hex="006F"/>
  <guideline x="506.646"/>
  <guideline x="100.0" y="0.0" angle="82.9991"/>
  <anchor x="601.306" y="1120.0" name="top"/>
  <anchor x="456.306" y="-70.0" name="bottom"/>
  <outline>
    <contour>
      <point x="457.308" y="151.856" type="curve"/>
      <point x="331.24" y="151.856"/>
      <point x="265.852" y="238.57999999999998"/>
      <point x="265.852" y="412.64" type="curve" smooth="yes"/>
      <point x="265.852" y="656.696"/>
      <point x="381.248" y="868.7719999999999"/>
      <point x="561.332" y="868.7719999999999" type="curve" smooth="yes"/>
      <point x="686.732" y="868.7719999999999"/>
      <point x="752.788" y="784.048"/>
      <point x="752.788" y="608.656" type="curve" smooth="yes"/>
      <point x="752.788" y="367.26800000000003"/>
      <point x="637.392" y="151.856"/>
    </contour>
    <contour>
      <point x="437.992" y="-14.664" type="curve"/>
      <point x="731.316" y="-14.664"/>
      <point x="967.264" y="264.028"/>
      <point x="967.264" y="609.988" type="curve" smooth="yes"/>
      <point x="967.264" y="879.96"/>
      <point x="804.6320000000001" y="1035.292"/>
      <point x="580.648" y="1035.292" type="curve" smooth="yes"/>
      <point x="287.324" y="1035.292"/>
      <point x="51.376" y="760.6"/>
      <point x="51.376" y="411.308" type="curve" smooth="yes"/>
      <point x="51.376" y="140.668"/>
      <point x="214.008" y="-14.664"/>
    </contour>
  </outline>
</glyph>
<glyph name="p" format="2">
  <advance width="1068"/>
  <unicode hex="0070"/>
  <anchor x="136.282" y="-144.346" name="bar"/>
  <anchor x="515.606" y="-70" name="bottom"/>
  <anchor x="670.856" y="154.532" name="hook"/>
  <anchor x="619.982" y="107.27" name="tick"/>
  <anchor x="563.618" y="1120" name="top"/>
  <outline>
    <contour>
      <point x="215.862" y="-338.688" type="line" name="n00"/>
      <point x="341.846" y="689.848" type="line"/>
      <point x="336.518" y="703.172" type="line"/>
      <point x="352.55" y="950.02" type="line"/>
      <point x="352.55" y="998.644"/>
      <point x="326.574" y="1021.3" name="n05"/>
      <point x="280.61" y="1021.3" type="curve" smooth="yes"/>
      <point x="172.714" y="1021.3" type="line"/>
      <point x="7.382" y="-338.688" type="line"/>
    </contour>
    <contour>
      <point x="227.906" y="145.368" type="line"/>
      <point x="281.238" y="47.336"/>
      <point x="377.922" y="-14.664"/>
      <point x="499.254" y="-14.664" type="curve" smooth="yes" name="n12"/>
      <point x="775.942" y="-14.664"/>
      <point x="995.902" y="320.052"/>
      <point x="995.902" y="659.332" type="curve" smooth="yes"/>
      <point x="995.902" y="909.94"/>
      <point x="889.262" y="1035.29"/>
      <point x="717.926" y="1035.29" type="curve" smooth="yes" name="n18"/>
      <point x="511.274" y="1035.29"/>
      <point x="327.27" y="822.624"/>
      <point x="229.934" y="533.284" type="curve"/>
      <point x="301.202" y="432.028" type="line"/>
      <point x="365.25" y="674.768"/>
      <point x="508.622" y="864.776"/>
      <point x="635.342" y="864.776" type="curve" smooth="yes" name="n25"/>
      <point x="728.734" y="864.776"/>
      <point x="783.426" y="788.064"/>
      <point x="783.426" y="638.02" type="curve" smooth="yes"/>
      <point x="783.426" y="408.64"/>
      <point x="658.718" y="150.524"/>
      <point x="466.622" y="150.524" type="curve" smooth="yes" name="n31"/>
      <point x="389.918" y="150.524"/>
      <point x="305.894" y="181.88"/>
      <point x="259.878" y="270.608" type="curve"/>
    </contour>
  </outline>
  <guideline angle="82.9991" x="492" y="0"/>
</glyph>
<glyph name="q" format="2">
  <advance width="1034"/>
  <unicode hex="0071"/>
  <anchor x="420.66" y="-421" name="bottom"/>
  <anchor x="656.328" y="1120" name="top"/>
  <outline>
    <contour>
      <point x="795.562" y="-338.688" type="line" name="n00"/>
      <point x="960.222" y="987.956" type="line"/>
      <point x="749.078" y="977.3" type="line"/>
      <point x="592.41" y="-254.072" type="line" smooth="yes"/>
      <point x="587.078" y="-294.06"/>
      <point x="602.402" y="-338.688"/>
      <point x="658.362" y="-338.688" type="curve" smooth="yes"/>
    </contour>
    <contour>
      <point x="960.222" y="987.956" type="line"/>
      <point x="876.25" y="1022.62"/>
      <point x="787.614" y="1034.62"/>
      <point x="698.298" y="1034.62" type="curve" smooth="yes" name="n10"/>
      <point x="327.698" y="1034.62"/>
      <point x="42.374" y="711.284"/>
      <point x="42.374" y="347.312" type="curve" smooth="yes"/>
      <point x="42.374" y="110.02"/>
      <point x="156.994" y="-14.664"/>
      <point x="314.342" y="-14.664" type="curve" smooth="yes" name="n16"/>
      <point x="521.662" y="-14.664"/>
      <point x="683.674" y="198.672"/>
      <point x="779.678" y="488.012" type="curve"/>
      <point x="708.41" y="595.928" type="line"/>
      <point x="645.694" y="353.188"/>
      <point x="524.978" y="162.512"/>
      <point x="396.926" y="162.512" type="curve" smooth="yes" name="n23"/>
      <point x="307.53" y="162.512"/>
      <point x="256.85" y="234.564"/>
      <point x="256.85" y="385.94" type="curve" smooth="yes"/>
      <point x="256.85" y="649.34"/>
      <point x="438.27" y="880.092"/>
      <point x="668.994" y="880.092" type="curve" smooth="yes" name="n29"/>
      <point x="725.006" y="880.092"/>
      <point x="787.002" y="871.42"/>
      <point x="843.666" y="846.744" type="curve"/>
    </contour>
  </outline>
  <guideline angle="82.9991" x="477" y="0"/>
</glyph>
<glyph name="r" format="2">
  <advance width="696"/>
  <unicode hex="0072"/>
  <anchor x="210.292" y="492.706" name="bar"/>
  <anchor x="140.288" y="-70" name="bottom"/>
  <anchor x="264.186" y="154.532" name="hook"/>
  <anchor x="450.994" y="1120" name="top"/>
  <outline>
    <contour>
      <point x="258.864" y="0" type="line" name="n00"/>
      <point x="342.848" y="701.204" type="line"/>
      <point x="337.52" y="714.528" type="line"/>
      <point x="352.216" y="950.02" type="line"/>
      <point x="352.216" y="998.644"/>
      <point x="326.24" y="1021.3" name="n05"/>
      <point x="280.276" y="1021.3" type="curve" smooth="yes"/>
      <point x="172.38" y="1021.3" type="line"/>
      <point x="49.052" y="0" type="line"/>
    </contour>
    <contour>
      <point x="294.88" y="372.804" type="line"/>
      <point x="368.916" y="746.1"/>
      <point x="505.608" y="878.152"/>
      <point x="688.952" y="803.488" type="curve"/>
      <point x="727.584" y="1009.3" type="line"/>
      <point x="524.928" y="1097.28"/>
      <point x="328.284" y="857.356"/>
      <point x="226.276" y="424.776" type="curve"/>
    </contour>
  </outline>
  <guideline angle="82.9991" x="323" y="0"/>
</glyph>
<glyph name="t" format="2">
  <advance width="720.938"/>
  <unicode hex="0074"/>
  <guideline x="348.968" y="0.0" angle="82.9991"/>
  <anchor x="317.98199999999997" y="-70.0" name="bottom"/>
  <anchor x="374.954" y="718.648" name="Slash"/>
  <anchor x="249.966" y="492.706" name="bar"/>
  <anchor x="420.244" y="1406.66" name="top"/>
  <outline>
    <contour>
      <point x="220.37" y="950.644" type="line"/>
      <point x="148.36599999999999" y="369.932" type="line" smooth="yes"/>
      <point x="133.034" y="243.28"/>
      <point x="132.36599999999999" y="218.608"/>
      <point x="132.36599999999999" y="200.612" type="curve" smooth="yes"/>
      <point x="136.362" y="62.636"/>
      <point x="220.998" y="-16.0"/>
      <point x="358.286" y="-16.0" type="curve" smooth="yes"/>
      <point x="445.602" y="-16.0"/>
      <point x="536.254" y="17.34"/>
      <point x="605.562" y="75.336" type="curve"/>
      <point x="559.606" y="179.236" type="line" smooth="yes"/>
      <point x="553.278" y="193.224"/>
      <point x="547.614" y="199.22000000000003"/>
      <point x="534.29" y="199.22000000000003" type="curve" smooth="yes"/>
      <point x="513.63" y="199.22000000000003"/>
      <point x="486.93" y="158.512"/>
      <point x="424.222" y="158.512" type="curve" smooth="yes"/>
      <point x="374.866" y="158.512"/>
      <point x="344.842" y="190.52"/>
      <point x="344.842" y="248.56400000000002" type="curve" smooth="yes"/>
      <point x="344.842" y="255.236"/>
      <point x="345.51" y="273.252"/>
      <point x="359.51" y="381.252" type="curve"/>
      <point x="478.18600000000004" y="1340.672" type="line"/>
      <point x="364.294" y="1340.672" type="line" smooth="yes"/>
      <point x="339.646" y="1340.672"/>
      <point x="322.658" y="1326.012"/>
      <point x="314.998" y="1302.696" type="curve"/>
    </contour>
    <contour>
      <point x="304.306" y="1005.932" type="line"/>
      <point x="263.666" y="1012.592" type="line"/>
      <point x="80.35" y="983.284" type="line"/>
      <point x="70.358" y="897.364" type="line"/>
      <point x="66.362" y="867.388"/>
      <point x="82.35" y="851.4"/>
      <point x="103.67" y="851.4" type="curve" smooth="yes"/>
      <point x="674.91" y="851.4" type="line"/>
      <point x="692.894" y="1005.932" type="line"/>
    </contour>
  </outline>
</glyph>
<glyph name="u" format="2">
  <advance width="1070.938"/>
  <unicode hex="0075"/>
  <guideline x="531.966" y="0.0" angle="82.9991"/>
  <anchor x="584.988" y="1120.0" name="top"/>
  <anchor x="862.572" y="154.532" name="hook"/>
  <anchor x="491.324" y="-70.0" name="bottom"/>
  <outline>
    <contour>
      <point x="783.41" y="1019.96" type="line"/>
      <point x="699.426" y="320.092" type="line"/>
      <point x="704.754" y="302.092" type="line"/>
      <point x="689.39" y="75.272" type="line"/>
      <point x="689.39" y="25.316000000000003"/>
      <point x="715.366" y="0.0"/>
      <point x="766.658" y="0.0" type="curve" smooth="yes"/>
      <point x="873.89" y="0.0" type="line"/>
      <point x="997.218" y="1019.96" type="line"/>
    </contour>
    <contour>
      <point x="162.046" y="1019.96" type="line"/>
      <point x="85.382" y="371.984" type="line"/>
      <point x="299.19" y="371.984" type="line"/>
      <point x="375.85400000000004" y="1019.96" type="line"/>
    </contour>
    <contour>
      <point x="85.382" y="371.984" type="line"/>
      <point x="54.717999999999996" y="125.332"/>
      <point x="154.678" y="-14.664"/>
      <point x="326.01" y="-14.664" type="curve" smooth="yes"/>
      <point x="512.006" y="-14.664"/>
      <point x="694.682" y="137.368"/>
      <point x="803.342" y="432.68399999999997" type="curve"/>
      <point x="734.074" y="539.268" type="line"/>
      <point x="673.354" y="312.544"/>
      <point x="529.314" y="162.512"/>
      <point x="406.598" y="162.512" type="curve" smooth="yes"/>
      <point x="314.534" y="162.512"/>
      <point x="281.182" y="227.244"/>
      <point x="299.19" y="371.984" type="curve"/>
    </contour>
  </outline>
</glyph>
<glyph name="v" format="2">
  <advance width="971.262"/>
  <unicode hex="0076"/>
  <guideline x="487.276" y="0.0" angle="82.9991"/>
  <anchor x="578.158" y="154.532" name="hook"/>
  <anchor x="543.6320000000001" y="1120.0" name="top"/>
  <anchor x="407.3" y="-70.0" name="bottom"/>
  <outline>
    <contour>
      <point x="322.714" y="0.0" type="line"/>
      <point x="445.27" y="0.0" type="line"/>
      <point x="445.27" y="133.224"/>
      <point x="441.938" y="252.46"/>
      <point x="421.286" y="382.35200000000003" type="curve" smooth="yes"/>
      <point x="293.166" y="977.988" type="line"/>
      <point x="288.502" y="1001.304"/>
      <point x="269.85" y="1019.96"/>
      <point x="238.538" y="1019.96" type="curve" smooth="yes"/>
      <point x="64.03399999999999" y="1019.96" type="line"/>
    </contour>
    <contour>
      <point x="1009.222" y="1019.96" type="line"/>
      <point x="841.378" y="1019.96" type="line" smooth="yes"/>
      <point x="814.396" y="1019.96"/>
      <point x="790.746" y="1001.972"/>
      <point x="780.086" y="977.988" type="curve" smooth="yes"/>
      <point x="502.562" y="382.35200000000003" type="line" smooth="yes"/>
      <point x="447.938" y="249.12800000000001"/>
      <point x="414.63" y="133.224"/>
      <point x="385.322" y="0.0" type="curve"/>
      <point x="502.55" y="0.0" type="line"/>
    </contour>
  </outline>
</glyph>
<glyph name="w" format="2">
  <advance width="1462"/>
  <unicode hex="0077"/>
  <anchor x="648.964" y="-70" name="bottom"/>
  <anchor x="780.63" y="1120" name="top"/>
  <outline>
    <contour>
      <point x="246.718" y="0" type="line" name="n00"/>
      <point x="404.57" y="0" type="line" smooth="yes"/>
      <point x="425.886" y="0"/>
      <point x="441.874" y="13.324"/>
      <point x="451.866" y="39.304" type="curve"/>
      <point x="718.67" y="674.248" type="line"/>
      <point x="754.642" y="763.508"/>
      <point x="777.29" y="852.1"/>
      <point x="794.61" y="941.36" type="curve"/>
      <point x="742.658" y="941.36" type="line"/>
      <point x="739.994" y="852.1"/>
      <point x="739.994" y="764.84"/>
      <point x="753.318" y="675.58" type="curve"/>
      <point x="863.386" y="39.304" type="line"/>
      <point x="867.382" y="11.992"/>
      <point x="879.374" y="0"/>
      <point x="897.362" y="0" type="curve" smooth="yes"/>
      <point x="1061.87" y="0" type="line"/>
      <point x="1485.88" y="1019.96" type="line" name="n18"/>
      <point x="1330.02" y="1019.96" type="line" smooth="yes"/>
      <point x="1303.37" y="1019.96"/>
      <point x="1278.73" y="1001.97"/>
      <point x="1270.73" y="977.988" type="curve"/>
      <point x="1044.57" y="382.352" type="line"/>
      <point x="998.606" y="246.464"/>
      <point x="967.958" y="134.56"/>
      <point x="943.978" y="1.336" type="curve"/>
      <point x="1001.26" y="0.668" type="line"/>
      <point x="1009.25" y="133.892"/>
      <point x="996.598" y="251.128"/>
      <point x="977.946" y="382.352" type="curve"/>
      <point x="879.202" y="981.328" type="line"/>
      <point x="876.538" y="1004.64"/>
      <point x="857.222" y="1021.96" name="n33"/>
      <point x="827.246" y="1021.96" type="curve" smooth="yes"/>
      <point x="736.666" y="1021.96" type="line" smooth="yes"/>
      <point x="710.686" y="1021.96"/>
      <point x="686.706" y="1004.64"/>
      <point x="678.046" y="981.328" type="curve"/>
      <point x="429.23" y="382.352" type="line"/>
      <point x="376.606" y="249.796"/>
      <point x="332.642" y="134.56"/>
      <point x="303.334" y="1.336" type="curve"/>
      <point x="367.942" y="1.336" type="line"/>
      <point x="374.602" y="134.56"/>
      <point x="372.602" y="249.796"/>
      <point x="363.274" y="382.352" type="curve"/>
      <point x="287.182" y="977.988" type="line"/>
      <point x="282.518" y="1002.64"/>
      <point x="262.534" y="1019.96"/>
      <point x="232.554" y="1019.96" type="curve" smooth="yes"/>
      <point x="70.706" y="1019.96" type="line"/>
    </contour>
  </outline>
  <guideline angle="82.9991" x="657" y="0"/>
</glyph>
<glyph name="z" format="2">
  <advance width="857.618"/>
  <unicode hex="007A"/>
  <guideline x="433.976" y="0.0" angle="82.9991"/>
  <anchor x="503.648" y="1120.0" name="top"/>
  <anchor x="336.656" y="-70.0" name="bottom"/>
  <anchor x="660.3" y="154.532" name="hook"/>
  <outline>
    <contour>
      <point x="847.604" y="1019.96" type="line"/>
      <point x="130.352" y="1019.96" type="line"/>
      <point x="110.368" y="853.44" type="line"/>
      <point x="639.124" y="853.44" type="line"/>
      <point x="590.5" y="872.76" type="line"/>
      <point x="24.98" y="165.18800000000002" type="line"/>
      <point x="4.996" y="141.20800000000003"/>
      <point x="-9.66" y="109.236"/>
      <point x="-10.992" y="89.91600000000001" type="curve" smooth="yes"/>
      <point x="-21.648" y="0.0" type="line"/>
      <point x="708.928" y="0.0" type="line"/>
      <point x="728.244" y="166.52" type="line"/>
      <point x="183.5" y="166.52" type="line"/>
      <point x="234.788" y="142.536" type="line"/>
      <point x="800.308" y="848.776" type="line"/>
      <point x="817.63" y="870.094"/>
      <point x="833.616" y="899.4"/>
      <point x="836.28" y="930.04" type="curve"/>
    </contour>
  </outline>
</glyph>
<glyph name="braceleft" format="2">
  <advance width="575"/>
  <unicode hex="007B"/>
  <outline>
    <contour>
      <point x="213.734" y="929.272" type="curve" smooth="yes"/>
      <point x="213.734" y="763.284"/>
      <point x="172.358" y="682.624"/>
      <point x="74.358" y="682.624" type="curve"/>
      <point x="59.038" y="560.06" type="line"/>
      <point x="153.634" y="612.016" type="line"/>
      <point x="275.578" y="612.016"/>
      <point x="374.262" y="707.316"/>
      <point x="384.918" y="848.684" type="curve"/>
      <point x="394.242" y="959.332"/>
      <point x="381.57" y="1072.67"/>
      <point x="393.558" y="1203.3" type="curve"/>
      <point x="401.55" y="1330.71"/>
      <point x="462.93" y="1404.08"/>
      <point x="555.63" y="1404.08" type="curve" smooth="yes" name="n14"/>
      <point x="567.658" y="1404.08" type="line" smooth="yes"/>
      <point x="583.65" y="1404.08"/>
      <point x="614.29" y="1416.07"/>
      <point x="617.622" y="1446.05" type="curve" smooth="yes"/>
      <point x="628.278" y="1539.3" type="line"/>
      <point x="580.274" y="1539.3" type="line" smooth="yes" name="n20"/>
      <point x="331.046" y="1539.3"/>
      <point x="206.39" y="1382.66"/>
      <point x="206.39" y="1111.4" type="curve" smooth="yes"/>
      <point x="206.39" y="1060.68"/>
      <point x="213.734" y="978.652"/>
    </contour>
    <contour>
      <point x="160.41" y="446.7" type="curve" smooth="yes"/>
      <point x="160.41" y="292.016"/>
      <point x="63.718" y="154.68"/>
      <point x="63.718" y="-20.664" type="curve" smooth="yes"/>
      <point x="63.718" y="-181.96"/>
      <point x="156.366" y="-296.612"/>
      <point x="354.286" y="-296.612" type="curve" smooth="yes" name="n32"/>
      <point x="403.622" y="-296.612" type="line"/>
      <point x="414.946" y="-204.696" type="line" smooth="yes"/>
      <point x="418.942" y="-174.72"/>
      <point x="392.298" y="-161.396"/>
      <point x="375.642" y="-161.396" type="curve" smooth="yes"/>
      <point x="362.946" y="-161.396" type="line" smooth="yes" name="n38"/>
      <point x="286.254" y="-161.396"/>
      <point x="244.226" y="-103.372"/>
      <point x="244.226" y="-17.336" type="curve" smooth="yes"/>
      <point x="244.226" y="146.68"/>
      <point x="333.59" y="286.696"/>
      <point x="333.59" y="443.372" type="curve" smooth="yes"/>
      <point x="333.59" y="547.368"/>
      <point x="264.914" y="629.336"/>
      <point x="156.298" y="629.336" type="curve"/>
      <point x="74.358" y="682.624" type="line"/>
      <point x="59.038" y="560.06" type="line"/>
      <point x="126.386" y="560.06"/>
      <point x="160.41" y="512.716"/>
    </contour>
  </outline>
  <guideline angle="0" x="0" y="630"/>
  <guideline angle="82.9991" x="276" y="0"/>
</glyph>
<glyph name="bar" format="2">
  <advance width="528"/>
  <unicode hex="007C"/>
  <outline>
    <contour>
      <point x="179.708" y="-338.688" type="line" name="n00"/>
      <point x="346.228" y="-338.688" type="line"/>
      <point x="346.228" y="1540.63" type="line" name="n02"/>
      <point x="179.708" y="1540.63" type="line"/>
    </contour>
  </outline>
  <guideline angle="82.9991" x="300" y="0"/>
</glyph>
<glyph name="braceright" format="2">
  <advance width="575"/>
  <unicode hex="007D"/>
  <outline>
    <contour>
      <point x="418.232" y="795.984" type="curve" smooth="yes"/>
      <point x="418.232" y="949.336"/>
      <point x="512.924" y="1088"/>
      <point x="512.924" y="1262.02" type="curve" smooth="yes"/>
      <point x="512.924" y="1424.64"/>
      <point x="420.276" y="1539.3"/>
      <point x="223.688" y="1539.3" type="curve" smooth="yes" name="n06"/>
      <point x="174.352" y="1539.3" type="line"/>
      <point x="163.696" y="1446.05" type="line"/>
      <point x="159.032" y="1416.07"/>
      <point x="185.676" y="1404.08"/>
      <point x="203" y="1404.08" type="curve" smooth="yes"/>
      <point x="215.028" y="1404.08" type="line" smooth="yes" name="n12"/>
      <point x="291.72" y="1404.08"/>
      <point x="333.748" y="1346.06"/>
      <point x="333.748" y="1260.02" type="curve" smooth="yes"/>
      <point x="333.748" y="1096"/>
      <point x="243.052" y="954.656"/>
      <point x="243.052" y="799.312" type="curve" smooth="yes"/>
      <point x="243.052" y="693.984"/>
      <point x="311.728" y="612.016"/>
      <point x="422.344" y="612.016" type="curve"/>
      <point x="503.616" y="560.06" type="line"/>
      <point x="518.272" y="682.624" type="line"/>
      <point x="450.256" y="682.624"/>
      <point x="418.232" y="729.968"/>
    </contour>
    <contour>
      <point x="364.24" y="312.08" type="curve" smooth="yes"/>
      <point x="364.24" y="479.4"/>
      <point x="406.284" y="560.06"/>
      <point x="503.616" y="560.06" type="curve"/>
      <point x="518.272" y="682.624" type="line"/>
      <point x="423.676" y="629.336" type="line"/>
      <point x="302.396" y="629.336"/>
      <point x="203.048" y="534.036"/>
      <point x="193.724" y="392.668" type="curve"/>
      <point x="184.4" y="283.352"/>
      <point x="196.404" y="168.68"/>
      <point x="184.416" y="39.38" type="curve"/>
      <point x="176.424" y="-88.028"/>
      <point x="115.044" y="-161.396"/>
      <point x="22.344" y="-161.396" type="curve" smooth="yes" name="n40"/>
      <point x="10.316" y="-161.396" type="line" smooth="yes"/>
      <point x="-7.008" y="-161.396"/>
      <point x="-36.316" y="-174.72"/>
      <point x="-38.98" y="-204.696" type="curve"/>
      <point x="-51.636" y="-296.612" type="line"/>
      <point x="-2.3" y="-296.612" type="line" smooth="yes" name="n46"/>
      <point x="245.596" y="-296.612"/>
      <point x="370.252" y="-139.972"/>
      <point x="370.252" y="131.288" type="curve" smooth="yes"/>
      <point x="370.252" y="182"/>
      <point x="364.24" y="264.032"/>
    </contour>
  </outline>
  <guideline angle="0" x="0" y="630"/>
  <guideline angle="82.9991" x="276" y="0"/>
</glyph>
<glyph name="asciitilde" format="2">
  <advance width="1160"/>
  <unicode hex="007E"/>
  <outline>
    <contour>
      <point x="751.046" y="631.896" type="curve" smooth="yes" name="n00"/>
      <point x="660.342" y="631.896"/>
      <point x="533.634" y="727.944"/>
      <point x="393.638" y="727.944" type="curve" smooth="yes" name="n03"/>
      <point x="211.69" y="727.944"/>
      <point x="105.722" y="598.636"/>
      <point x="105.722" y="405.38" type="curve" name="n06"/>
      <point x="278.902" y="405.38" type="line"/>
      <point x="279.57" y="494.736"/>
      <point x="326.926" y="550.768"/>
      <point x="406.958" y="550.768" type="curve" smooth="yes" name="n10"/>
      <point x="497.662" y="550.768"/>
      <point x="624.37" y="454.72"/>
      <point x="764.366" y="454.72" type="curve" smooth="yes" name="n13"/>
      <point x="946.314" y="454.72"/>
      <point x="1052.28" y="584.028"/>
      <point x="1052.28" y="777.284" type="curve" name="n16"/>
      <point x="879.102" y="777.284" type="line"/>
      <point x="878.434" y="687.928"/>
      <point x="831.078" y="631.896"/>
    </contour>
  </outline>
  <guideline angle="82.9991" x="580" y="0"/>
</glyph>
<glyph name="exclamdown" format="2">
  <advance width="486.578"/>
  <unicode hex="00A1"/>
  <guideline x="326.288"/>
  <guideline x="100.0" y="0.0" angle="82.9991"/>
  <outline>
    <contour>
      <point x="38.056" y="-340.02" type="line"/>
      <point x="104.72399999999999" y="198.0" type="line" smooth="yes"/>
      <point x="118.72399999999999" y="318.664"/>
      <point x="142.708" y="425.3"/>
      <point x="173.36" y="560.656" type="curve"/>
      <point x="304.548" y="560.656" type="line"/>
      <point x="302.528" y="425.3"/>
      <point x="298.52" y="318.664"/>
      <point x="283.188" y="198.0" type="curve" smooth="yes"/>
      <point x="217.852" y="-340.02" type="line"/>
    </contour>
    <contour>
      <point x="138.03199999999998" y="896.7" type="curve" smooth="yes"/>
      <point x="138.03199999999998" y="818.076"/>
      <point x="198.0" y="758.108"/>
      <point x="276.624" y="758.108" type="curve" smooth="yes"/>
      <point x="353.916" y="758.108"/>
      <point x="415.884" y="818.076"/>
      <point x="415.884" y="896.7" type="curve" smooth="yes"/>
      <point x="415.884" y="973.992"/>
      <point x="353.916" y="1035.96"/>
      <point x="276.624" y="1035.96" type="curve" smooth="yes"/>
      <point x="198.0" y="1035.96"/>
      <point x="138.03199999999998" y="973.992"/>
    </contour>
  </outline>
</glyph>
<glyph name="cent" format="2">
  <advance width="1160.0"/>
  <unicode hex="00A2"/>
  <guideline x="580.0" y="0.0" angle="82.9991"/>
  <outline>
    <contour>
      <point x="1058.274" y="897.996" type="line"/>
      <point x="976.958" y="983.304"/>
      <point x="862.974" y="1033.296"/>
      <point x="706.334" y="1033.296" type="curve" smooth="yes"/>
      <point x="335.042" y="1033.296"/>
      <point x="112.38999999999999" y="777.316"/>
      <point x="112.38999999999999" y="435.308" type="curve" smooth="yes"/>
      <point x="112.38999999999999" y="154.66"/>
      <point x="292.358" y="-14.664"/>
      <point x="544.354" y="-14.664" type="curve" smooth="yes"/>
      <point x="705.694" y="-14.664"/>
      <point x="868.338" y="31.36"/>
      <point x="978.942" y="145.304" type="curve"/>
      <point x="930.986" y="218.568" type="line" smooth="yes"/>
      <point x="923.658" y="229.892"/>
      <point x="911.67" y="235.888"/>
      <point x="894.35" y="235.888" type="curve" smooth="yes"/>
      <point x="843.718" y="235.888"/>
      <point x="783.014" y="142.532"/>
      <point x="592.974" y="142.532" type="curve" smooth="yes"/>
      <point x="418.918" y="142.532"/>
      <point x="316.21000000000004" y="253.904"/>
      <point x="316.21000000000004" y="445.3" type="curve" smooth="yes"/>
      <point x="316.21000000000004" y="708.048"/>
      <point x="444.282" y="876.1"/>
      <point x="693.678" y="876.1" type="curve" smooth="yes"/>
      <point x="857.046" y="876.1"/>
      <point x="907.726" y="801.4159999999999"/>
      <point x="950.366" y="801.4159999999999" type="curve" smooth="yes"/>
      <point x="971.682" y="801.4159999999999"/>
      <point x="983.006" y="808.744"/>
      <point x="996.33" y="825.396" type="curve"/>
    </contour>
    <contour>
      <point x="430.414" y="-229.372" type="line"/>
      <point x="507.014" y="-229.372" type="line" smooth="yes"/>
      <point x="538.99" y="-229.372"/>
      <point x="564.302" y="-203.392"/>
      <point x="570.298" y="-174.744" type="curve"/>
      <point x="854.246" y="1256.652" type="line"/>
      <point x="777.646" y="1256.652" type="line" smooth="yes"/>
      <point x="745.67" y="1256.652"/>
      <point x="720.358" y="1229.34"/>
      <point x="714.362" y="1202.024" type="curve"/>
    </contour>
  </outline>
</glyph>
<glyph name="sterling" format="2">
  <advance width="1160.0"/>
  <unicode hex="00A3"/>
  <guideline x="580.0" y="0.0" angle="82.9991"/>
  <outline>
    <contour>
      <point x="1065.292" y="177.84400000000002" type="line"/>
      <point x="425.716" y="177.84400000000002" type="line" smooth="yes"/>
      <point x="323.12" y="177.84400000000002"/>
      <point x="221.196" y="148.54000000000002"/>
      <point x="118.596" y="110.572" type="curve"/>
      <point x="8.692" y="132.556" type="line"/>
      <point x="-7.960000000000001" y="0.0" type="line"/>
      <point x="954.72" y="0.0" type="line" smooth="yes"/>
      <point x="1008.008" y="0.0"/>
      <point x="1049.308" y="48.624"/>
      <point x="1054.636" y="90.58800000000001" type="curve" smooth="yes"/>
    </contour>
    <contour>
      <point x="885.278" y="661.332" type="curve"/>
      <point x="894.602" y="745.256" type="line"/>
      <point x="122.646" y="745.256" type="line"/>
      <point x="87.338" y="745.256"/>
      <point x="61.36" y="718.612"/>
      <point x="57.696" y="691.9639999999999" type="curve" smooth="yes"/>
      <point x="47.372" y="608.04" type="line"/>
      <point x="819.994" y="608.04" type="line"/>
      <point x="855.302" y="608.04"/>
      <point x="881.946" y="634.684"/>
    </contour>
    <contour>
      <point x="181.868" y="84.592" type="line"/>
      <point x="311.192" y="159.9"/>
      <point x="373.858" y="238.55200000000002"/>
      <point x="391.192" y="379.224" type="curve" smooth="yes"/>
      <point x="465.872" y="998.66" type="line" smooth="yes"/>
      <point x="486.88" y="1170.724"/>
      <point x="595.928" y="1278.784"/>
      <point x="752.012" y="1278.784" type="curve" smooth="yes"/>
      <point x="876.092" y="1278.784"/>
      <point x="914.112" y="1232.732"/>
      <point x="959.44" y="1162.04" type="curve" smooth="yes"/>
      <point x="986.084" y="1128.064"/>
      <point x="1022.052" y="1127.396"/>
      <point x="1062.02" y="1146.712" type="curve"/>
      <point x="1151.94" y="1200.66" type="line"/>
      <point x="1101.288" y="1345.968"/>
      <point x="997.976" y="1454.628"/>
      <point x="772.66" y="1454.628" type="curve" smooth="yes"/>
      <point x="474.036" y="1454.628"/>
      <point x="285.392" y="1248.656"/>
      <point x="254.06" y="997.328" type="curve" smooth="yes"/>
      <point x="171.388" y="323.28" type="line"/>
      <point x="156.716" y="206.57600000000002"/>
      <point x="102.032" y="157.24"/>
      <point x="8.692" y="132.556" type="curve"/>
    </contour>
  </outline>
</glyph>
<glyph name="currency" format="2">
  <advance width="1160.0"/>
  <unicode hex="00A4"/>
  <guideline x="580.0" y="0.0" angle="82.9991"/>
  <outline>
    <contour>
      <point x="220.696" y="672.664" type="curve" smooth="yes"/>
      <point x="220.696" y="470.68399999999997"/>
      <point x="382.016" y="309.364"/>
      <point x="583.996" y="309.364" type="curve" smooth="yes"/>
      <point x="785.312" y="309.364"/>
      <point x="947.9639999999999" y="470.68399999999997"/>
      <point x="947.9639999999999" y="672.664" type="curve" smooth="yes"/>
      <point x="947.9639999999999" y="875.312"/>
      <point x="785.312" y="1036.632"/>
      <point x="583.996" y="1036.632" type="curve" smooth="yes"/>
      <point x="382.016" y="1036.632"/>
      <point x="220.696" y="875.312"/>
    </contour>
    <contour>
      <point x="379.224" y="672.664" type="curve"/>
      <point x="379.224" y="787.388"/>
      <point x="471.272" y="879.436"/>
      <point x="583.996" y="879.436" type="curve" smooth="yes"/>
      <point x="698.72" y="879.436"/>
      <point x="790.768" y="787.388"/>
      <point x="790.768" y="672.664" type="curve" smooth="yes"/>
      <point x="790.768" y="561.272"/>
      <point x="698.72" y="467.892"/>
      <point x="583.996" y="467.892" type="curve" smooth="yes"/>
      <point x="471.272" y="467.892"/>
      <point x="379.224" y="561.272"/>
    </contour>
    <contour>
      <point x="330.016" y="815.408" type="line"/>
      <point x="438.588" y="922.648" type="line"/>
      <point x="233.296" y="1127.94" type="line"/>
      <point x="124.72399999999999" y="1020.7" type="line"/>
    </contour>
    <contour>
      <point x="726.74" y="926.644" type="line"/>
      <point x="833.98" y="818.072" type="line"/>
      <point x="1039.272" y="1023.364" type="line"/>
      <point x="932.032" y="1131.936" type="line"/>
    </contour>
    <contour>
      <point x="442.584" y="418.68399999999997" type="line"/>
      <point x="334.012" y="527.256" type="line"/>
      <point x="128.72" y="321.964" type="line"/>
      <point x="235.96" y="213.392" type="line"/>
    </contour>
    <contour>
      <point x="837.976" y="531.252" type="line"/>
      <point x="729.404" y="422.68" type="line"/>
      <point x="934.696" y="217.388" type="line"/>
      <point x="1043.268" y="325.96" type="line"/>
    </contour>
  </outline>
</glyph>
<glyph name="yen" format="2">
  <advance width="1160.0"/>
  <unicode hex="00A5"/>
  <guideline x="580.0" y="0.0" angle="82.9991"/>
  <outline>
    <contour>
      <point x="1223.5720000000001" y="1438.628" type="line"/>
      <point x="1049.06" y="1438.628" type="line" smooth="yes"/>
      <point x="1011.092" y="1438.628"/>
      <point x="983.116" y="1413.984"/>
      <point x="967.792" y="1386.672" type="curve"/>
      <point x="650.944" y="853.788" type="line"/>
      <point x="591.66" y="741.884"/>
      <point x="571.672" y="667.948"/>
      <point x="551.016" y="548.044" type="curve"/>
      <point x="668.916" y="548.044" type="line"/>
    </contour>
    <contour>
      <point x="466.432" y="548.044" type="line"/>
      <point x="590.992" y="548.044" type="line"/>
      <point x="600.98" y="669.28"/>
      <point x="594.312" y="740.552"/>
      <point x="561.672" y="853.788" type="curve"/>
      <point x="374.212" y="1386.672" type="line"/>
      <point x="365.552" y="1417.98"/>
      <point x="342.904" y="1438.628"/>
      <point x="304.93600000000004" y="1438.628" type="curve" smooth="yes"/>
      <point x="131.756" y="1438.628" type="line"/>
    </contour>
    <contour>
      <point x="679.576" y="609.332" type="line"/>
      <point x="471.76" y="609.332" type="line"/>
      <point x="397.76" y="0.0" type="line"/>
      <point x="604.244" y="0.0" type="line"/>
    </contour>
    <contour>
      <point x="101.056" y="293.48" type="line"/>
      <point x="971.652" y="293.48" type="line"/>
      <point x="985.64" y="410.716" type="line"/>
      <point x="116.376" y="410.716" type="line"/>
    </contour>
    <contour>
      <point x="128.38" y="510.744" type="line"/>
      <point x="998.976" y="510.744" type="line"/>
      <point x="1012.9639999999999" y="627.98" type="line"/>
      <point x="142.368" y="627.98" type="line"/>
    </contour>
  </outline>
</glyph>
<glyph name="brokenbar" format="2">
  <advance width="527"/>
  <unicode hex="00A6"/>
  <outline>
    <contour>
      <point x="179.042" y="738.668" type="line"/>
      <point x="345.562" y="738.668" type="line"/>
      <point x="345.562" y="1540.63" type="line" name="n02"/>
      <point x="179.042" y="1540.63" type="line"/>
    </contour>
    <contour>
      <point x="179.042" y="-338.688" type="line" name="n04"/>
      <point x="345.562" y="-338.688" type="line"/>
      <point x="345.562" y="463.272" type="line"/>
      <point x="179.042" y="463.272" type="line"/>
    </contour>
  </outline>
  <guideline angle="82.9991" x="300" y="0"/>
</glyph>
<glyph name="section" format="2">
  <advance width="933.2860000000001"/>
  <unicode hex="00A7"/>
  <guideline x="464.328" y="0.0" angle="82.9991"/>
  <outline>
    <contour>
      <point x="462.92" y="969.34" type="line"/>
      <point x="216.316" y="947.3"/>
      <point x="98.372" y="823.324"/>
      <point x="98.372" y="660.044" type="curve" smooth="yes"/>
      <point x="98.372" y="358.736"/>
      <point x="561.752" y="396.048"/>
      <point x="561.752" y="190.652" type="curve" smooth="yes"/>
      <point x="561.752" y="93.26"/>
      <point x="490.376" y="23.860000000000014"/>
      <point x="370.968" y="23.860000000000014" type="curve" smooth="yes"/>
      <point x="222.94" y="23.860000000000014"/>
      <point x="196.92000000000002" y="109.884"/>
      <point x="144.284" y="109.884" type="curve" smooth="yes"/>
      <point x="116.97200000000001" y="109.884"/>
      <point x="100.32" y="99.89200000000001"/>
      <point x="86.996" y="79.908" type="curve" smooth="yes"/>
      <point x="29.047999999999995" y="0.6479999999999997" type="line"/>
      <point x="93.048" y="-71.352"/>
      <point x="206.336" y="-122.68"/>
      <point x="335.668" y="-122.68" type="curve" smooth="yes"/>
      <point x="596.944" y="-122.68"/>
      <point x="747.588" y="37.308"/>
      <point x="747.588" y="239.94" type="curve" smooth="yes"/>
      <point x="747.588" y="529.932"/>
      <point x="286.872" y="518.604"/>
      <point x="286.872" y="711.996" type="curve" smooth="yes"/>
      <point x="286.872" y="786.692"/>
      <point x="328.88800000000003" y="839.388"/>
      <point x="448.94" y="884.744" type="curve"/>
    </contour>
    <contour>
      <point x="890.248" y="1331.988" type="line"/>
      <point x="828.912" y="1405.316"/>
      <point x="728.276" y="1453.296"/>
      <point x="601.636" y="1453.296" type="curve" smooth="yes"/>
      <point x="356.372" y="1453.296"/>
      <point x="213.712" y="1295.324"/>
      <point x="213.712" y="1115.36" type="curve" smooth="yes"/>
      <point x="213.712" y="806.732"/>
      <point x="665.74" y="837.4"/>
      <point x="665.74" y="631.324" type="curve" smooth="yes"/>
      <point x="665.74" y="552.624"/>
      <point x="621.732" y="489.26800000000003"/>
      <point x="506.38" y="457.24" type="curve"/>
      <point x="485.08" y="369.98" type="line"/>
      <point x="743.608" y="389.348"/>
      <point x="852.908" y="525.3"/>
      <point x="852.908" y="691.268" type="curve" smooth="yes"/>
      <point x="852.908" y="977.276"/>
      <point x="399.548" y="980.5840000000001"/>
      <point x="399.548" y="1148.664" type="curve" smooth="yes"/>
      <point x="399.548" y="1230.048"/>
      <point x="470.26800000000003" y="1300.096"/>
      <point x="585.648" y="1300.096" type="curve" smooth="yes"/>
      <point x="705.024" y="1300.096"/>
      <point x="747.024" y="1230.744"/>
      <point x="791.0" y="1230.744" type="curve" smooth="yes"/>
      <point x="809.652" y="1230.744"/>
      <point x="822.976" y="1238.0720000000001"/>
      <point x="835.6320000000001" y="1256.724" type="curve"/>
    </contour>
  </outline>
</glyph>
<glyph name="dieresis" format="2">
  <advance width="736"/>
  <unicode hex="00A8"/>
  <anchor x="453.28" y="1120" name="_top"/>
  <anchor x="486.58" y="1437.96" name="top"/>
  <outline>
    <contour>
      <point x="452.636" y="1290.66" type="curve" smooth="yes"/>
      <point x="452.636" y="1360.62"/>
      <point x="394" y="1418.58"/>
      <point x="324.708" y="1418.58" type="curve" smooth="yes" name="n03"/>
      <point x="258.744" y="1418.58"/>
      <point x="200.776" y="1360.62"/>
      <point x="200.776" y="1290.66" type="curve" smooth="yes"/>
      <point x="200.776" y="1222.7"/>
      <point x="258.744" y="1167.39"/>
      <point x="324.708" y="1167.39" type="curve" smooth="yes" name="n09"/>
      <point x="394" y="1167.39"/>
      <point x="452.636" y="1222.7"/>
    </contour>
    <contour>
      <point x="825.904" y="1290.66" type="curve" smooth="yes"/>
      <point x="825.904" y="1360.62"/>
      <point x="768.6" y="1418.58"/>
      <point x="699.308" y="1418.58" type="curve" smooth="yes"/>
      <point x="630.68" y="1418.58"/>
      <point x="574.044" y="1360.62"/>
      <point x="574.044" y="1290.66" type="curve" smooth="yes"/>
      <point x="574.044" y="1222.7"/>
      <point x="630.68" y="1167.39"/>
      <point x="699.308" y="1167.39" type="curve" smooth="yes"/>
      <point x="768.6" y="1167.39"/>
      <point x="825.904" y="1222.7"/>
    </contour>
  </outline>
  <guideline angle="82.9991" x="368" y="0"/>
</glyph>
<glyph name="copyright" format="2">
  <advance width="1655"/>
  <unicode hex="00A9"/>
  <outline>
    <contour>
      <point x="1081.43" y="494.556" type="curve"/>
      <point x="1019.41" y="471.176"/>
      <point x="989.364" y="422.52"/>
      <point x="854.68" y="422.52" type="curve" smooth="yes" name="n03"/>
      <point x="705.26" y="422.52"/>
      <point x="596.528" y="529.904"/>
      <point x="596.528" y="722.644" type="curve" smooth="yes"/>
      <point x="596.528" y="907.388"/>
      <point x="701.264" y="1023.44"/>
      <point x="874.008" y="1023.44" type="curve" smooth="yes" name="n09"/>
      <point x="1020.06" y="1023.44"/>
      <point x="1049.44" y="955.412"/>
      <point x="1090.74" y="955.412" type="curve" smooth="yes"/>
      <point x="1109.4" y="955.412"/>
      <point x="1121.39" y="967.4"/>
      <point x="1128.72" y="976.728" type="curve"/>
      <point x="1184.66" y="1054.66" type="line"/>
      <point x="1110.65" y="1130.65"/>
      <point x="1010.01" y="1183.3"/>
      <point x="863.352" y="1183.3" type="curve" smooth="yes" name="n19"/>
      <point x="602.68" y="1183.3"/>
      <point x="406.028" y="992.64"/>
      <point x="406.028" y="722.644" type="curve" smooth="yes"/>
      <point x="406.028" y="457.968"/>
      <point x="580.036" y="261.328"/>
      <point x="844.024" y="261.328" type="curve" smooth="yes" name="n25"/>
      <point x="997.36" y="261.328"/>
      <point x="1109.34" y="312.66"/>
      <point x="1184.02" y="403.972" type="curve"/>
      <point x="1112.08" y="480.572" type="line" smooth="yes"/>
      <point x="1104.75" y="488.564"/>
      <point x="1093.42" y="495.224"/>
    </contour>
    <contour>
      <point x="106.704" y="719.98" type="curve" smooth="yes"/>
      <point x="106.704" y="315.324"/>
      <point x="436.028" y="-14"/>
      <point x="840.684" y="-14" type="curve" smooth="yes" name="n35"/>
      <point x="1246.67" y="-14"/>
      <point x="1576" y="315.324"/>
      <point x="1576" y="719.98" type="curve" smooth="yes"/>
      <point x="1576" y="1125.97"/>
      <point x="1246.67" y="1455.29"/>
      <point x="840.684" y="1455.29" type="curve" smooth="yes" name="n41"/>
      <point x="436.028" y="1455.29"/>
      <point x="106.704" y="1125.97"/>
    </contour>
    <contour>
      <point x="225.276" y="719.98" type="curve" smooth="yes"/>
      <point x="225.276" y="1072.68"/>
      <point x="495.98" y="1353.37"/>
      <point x="840.684" y="1353.37" type="curve" smooth="yes" name="n47"/>
      <point x="1186.72" y="1353.37"/>
      <point x="1460.76" y="1072.68"/>
      <point x="1460.76" y="719.98" type="curve" smooth="yes"/>
      <point x="1460.76" y="368.616"/>
      <point x="1186.72" y="91.252"/>
      <point x="840.684" y="91.252" type="curve" smooth="yes" name="n53"/>
      <point x="495.98" y="91.252"/>
      <point x="225.276" y="368.616"/>
    </contour>
  </outline>
  <guideline angle="82.9991" x="794" y="0"/>
</glyph>
<glyph name="ordfeminine" format="2">
  <advance width="685.662"/>
  <unicode hex="00AA"/>
  <guideline x="318.652" y="0.0" angle="82.9991"/>
  <anchor x="324.672" y="-70.0" name="bottom"/>
  <outline>
    <contour>
      <point x="456.324" y="1457.288" type="curve" smooth="yes"/>
      <point x="363.008" y="1457.288"/>
      <point x="279.032" y="1427.288"/>
      <point x="204.38" y="1360.628" type="curve"/>
      <point x="225.028" y="1312.004" type="line"/>
      <point x="232.356" y="1298.016"/>
      <point x="243.68" y="1284.028"/>
      <point x="264.996" y="1284.028" type="curve" smooth="yes"/>
      <point x="311.632" y="1284.028"/>
      <point x="336.992" y="1336.056"/>
      <point x="423.02" y="1336.056" type="curve" smooth="yes"/>
      <point x="489.052" y="1336.056"/>
      <point x="505.748" y="1288.712"/>
      <point x="500.404" y="1223.32" type="curve"/>
      <point x="646.28" y="1223.32" type="line"/>
      <point x="660.948" y="1348.632"/>
      <point x="588.316" y="1457.288"/>
    </contour>
    <contour>
      <point x="598.948" y="840.664" type="line"/>
      <point x="646.28" y="1223.32" type="line"/>
      <point x="500.404" y="1223.32" type="line"/>
      <point x="469.736" y="961.98" type="line"/>
      <point x="483.048" y="871.976" type="line"/>
      <point x="493.04" y="846.66"/>
      <point x="502.364" y="840.664"/>
      <point x="529.676" y="840.664" type="curve" smooth="yes"/>
    </contour>
    <contour>
      <point x="501.712" y="936.008" type="curve"/>
      <point x="495.048" y="1020.608" type="line"/>
      <point x="441.704" y="965.936"/>
      <point x="400.344" y="935.912"/>
      <point x="339.636" y="935.912" type="curve" smooth="yes"/>
      <point x="300.284" y="935.912"/>
      <point x="274.256" y="951.928"/>
      <point x="274.256" y="991.296" type="curve" smooth="yes"/>
      <point x="274.256" y="1054.672"/>
      <point x="332.31600000000003" y="1095.356"/>
      <point x="507.056" y="1098.028" type="curve"/>
      <point x="498.4" y="1191.288" type="line"/>
      <point x="212.416" y="1184.624"/>
      <point x="129.712" y="1075.324"/>
      <point x="129.712" y="972.644" type="curve" smooth="yes"/>
      <point x="129.712" y="881.316"/>
      <point x="189.716" y="831.996"/>
      <point x="279.692" y="831.996" type="curve" smooth="yes"/>
      <point x="371.032" y="831.996"/>
      <point x="424.38" y="868.004"/>
    </contour>
  </outline>
</glyph>
<glyph name="logicalnot" format="2">
  <advance width="1160"/>
  <unicode hex="00AC"/>
  <outline>
    <contour>
      <point x="140.716" y="593.4" type="line" name="n00"/>
      <point x="1010.65" y="593.4" type="line"/>
      <point x="1029.96" y="749.264" type="line"/>
      <point x="158.7" y="749.264" type="line" name="n03"/>
    </contour>
    <contour>
      <point x="800.132" y="308.052" type="line" name="n04"/>
      <point x="975.312" y="308.052" type="line"/>
      <point x="1029.96" y="749.264" type="line"/>
      <point x="854.784" y="749.264" type="line"/>
    </contour>
  </outline>
  <guideline angle="82.9991" x="580" y="0"/>
</glyph>
<glyph name="registered" format="2">
  <advance width="1655"/>
  <unicode hex="00AE"/>
  <outline>
    <contour>
      <point x="780.664" y="613.404" type="line" smooth="yes"/>
      <point x="814.668" y="613.404"/>
      <point x="830.664" y="604.736"/>
      <point x="840.664" y="584.744" type="curve"/>
      <point x="1012.16" y="303.964" type="line"/>
      <point x="1023.48" y="283.976"/>
      <point x="1042.14" y="274.652"/>
      <point x="1068.12" y="274.652" type="curve" smooth="yes"/>
      <point x="1246.62" y="274.652" type="line"/>
      <point x="1043.16" y="594.064" type="line"/>
      <point x="1010.5" y="654.696"/>
      <point x="973.856" y="686.672"/>
      <point x="879.908" y="686.672" type="curve"/>
      <point x="808.66" y="646.704" type="line"/>
      <point x="841.976" y="646.704" type="line" smooth="yes" name="n14"/>
      <point x="1072.59" y="646.704"/>
      <point x="1182.6" y="759.348"/>
      <point x="1182.6" y="916.004" type="curve" smooth="yes"/>
      <point x="1182.6" y="1080.66"/>
      <point x="1071.94" y="1169.3"/>
      <point x="832.664" y="1169.3" type="curve" smooth="yes" name="n20"/>
      <point x="527.424" y="1169.3" type="line"/>
      <point x="527.424" y="274.652" type="line"/>
      <point x="713.928" y="274.652" type="line"/>
      <point x="713.928" y="1026.76" type="line"/>
      <point x="832.664" y="1026.76" type="line" smooth="yes" name="n25"/>
      <point x="962.708" y="1026.76"/>
      <point x="998.76" y="982.744"/>
      <point x="998.76" y="892.028" type="curve" smooth="yes"/>
      <point x="998.76" y="799.316"/>
      <point x="958.032" y="747.956"/>
      <point x="815.336" y="747.956" type="curve" smooth="yes" name="n31"/>
      <point x="661.964" y="747.956" type="line"/>
      <point x="656.636" y="613.404" type="line"/>
    </contour>
    <contour>
      <point x="106.704" y="719.98" type="curve" smooth="yes"/>
      <point x="106.704" y="315.324"/>
      <point x="436.028" y="-14"/>
      <point x="840.684" y="-14" type="curve" smooth="yes" name="n37"/>
      <point x="1246.67" y="-14"/>
      <point x="1576" y="315.324"/>
      <point x="1576" y="719.98" type="curve" smooth="yes"/>
      <point x="1576" y="1125.97"/>
      <point x="1246.67" y="1455.29"/>
      <point x="840.684" y="1455.29" type="curve" smooth="yes" name="n43"/>
      <point x="436.028" y="1455.29"/>
      <point x="106.704" y="1125.97"/>
    </contour>
    <contour>
      <point x="225.276" y="719.98" type="curve" smooth="yes"/>
      <point x="225.276" y="1072.68"/>
      <point x="495.98" y="1353.37"/>
      <point x="840.684" y="1353.37" type="curve" smooth="yes" name="n49"/>
      <point x="1186.72" y="1353.37"/>
      <point x="1460.76" y="1072.68"/>
      <point x="1460.76" y="719.98" type="curve" smooth="yes"/>
      <point x="1460.76" y="368.616"/>
      <point x="1186.72" y="91.252"/>
      <point x="840.684" y="91.252" type="curve" smooth="yes" name="n55"/>
      <point x="495.98" y="91.252"/>
      <point x="225.276" y="368.616"/>
    </contour>
  </outline>
  <guideline angle="82.9991" x="794" y="0"/>
</glyph>
<glyph name="macron" format="2">
  <advance width="736.0"/>
  <unicode hex="00AF"/>
  <unicode hex="02C9"/>
  <guideline x="368.0" y="0.0" angle="82.9991"/>
  <anchor x="400.0" y="1120.0" name="_top"/>
  <outline>
    <contour>
      <point x="235.702" y="1222.048" type="line"/>
      <point x="775.308" y="1222.048" type="line"/>
      <point x="791.628" y="1360.596" type="line"/>
      <point x="251.356" y="1360.596" type="line"/>
    </contour>
  </outline>
</glyph>
<glyph name="degree" format="2">
  <advance width="823"/>
  <unicode hex="00B0"/>
  <outline>
    <contour>
      <point x="135.72" y="1125.35" type="curve" smooth="yes"/>
      <point x="135.72" y="944.708"/>
      <point x="283.7" y="794.068"/>
      <point x="470.996" y="794.068" type="curve" smooth="yes" name="n03"/>
      <point x="660.296" y="794.068"/>
      <point x="808.272" y="944.708"/>
      <point x="808.272" y="1125.35" type="curve" smooth="yes"/>
      <point x="808.272" y="1309.98"/>
      <point x="660.296" y="1457.29"/>
      <point x="470.996" y="1457.29" type="curve" smooth="yes" name="n09"/>
      <point x="283.7" y="1457.29"/>
      <point x="135.72" y="1309.98"/>
    </contour>
    <contour>
      <point x="284.924" y="1124.02" type="curve" smooth="yes"/>
      <point x="284.924" y="1230.05"/>
      <point x="364.96" y="1313.42"/>
      <point x="470.996" y="1313.42" type="curve" smooth="yes" name="n15"/>
      <point x="577.032" y="1313.42"/>
      <point x="656.4" y="1230.05"/>
      <point x="656.4" y="1124.02" type="curve" smooth="yes"/>
      <point x="656.4" y="1019.31"/>
      <point x="577.032" y="937.28"/>
      <point x="470.996" y="937.28" type="curve" smooth="yes" name="n21"/>
      <point x="364.96" y="937.28"/>
      <point x="284.924" y="1019.31"/>
    </contour>
  </outline>
  <guideline angle="82.9991" x="374" y="0"/>
</glyph>
<glyph name="plusminus" format="2">
  <advance width="1160.0"/>
  <unicode hex="00B1"/>
  <guideline x="580.0" y="0.0" angle="82.9991"/>
  <outline>
    <contour>
      <point x="111.688" y="695.9639999999999" type="line"/>
      <point x="1076.312" y="695.9639999999999" type="line"/>
      <point x="1095.628" y="851.828" type="line"/>
      <point x="129.672" y="851.828" type="line"/>
    </contour>
    <contour>
      <point x="573.064" y="1219.224" type="line"/>
      <point x="465.06399999999996" y="339.88800000000003" type="line"/>
      <point x="632.916" y="339.88800000000003" type="line"/>
      <point x="740.916" y="1219.224" type="line"/>
    </contour>
    <contour>
      <point x="35.692" y="80.0" type="line"/>
      <point x="1000.316" y="80.0" type="line"/>
      <point x="1019.6320000000001" y="235.864" type="line"/>
      <point x="53.676" y="235.864" type="line"/>
    </contour>
  </outline>
</glyph>
<glyph name="acute" format="2">
  <advance width="736.0"/>
  <unicode hex="00B4"/>
  <guideline x="368.0" y="0.0" angle="82.9991"/>
  <anchor x="400.0" y="1120.0" name="_top"/>
  <outline>
    <contour>
      <point x="634.69" y="1455.96" type="line" smooth="yes"/>
      <point x="590.048" y="1455.96"/>
      <point x="569.394" y="1439.972"/>
      <point x="548.402" y="1407.32" type="curve" smooth="yes"/>
      <point x="388.052" y="1164.66" type="line"/>
      <point x="506.28" y="1164.66" type="line" smooth="yes"/>
      <point x="535.922" y="1164.66"/>
      <point x="553.244" y="1173.32"/>
      <point x="575.226" y="1196.636" type="curve"/>
      <point x="826.522" y="1455.96" type="line"/>
    </contour>
  </outline>
</glyph>
<glyph name="micro" format="2">
  <advance width="1225"/>
  <unicode hex="00B5"/>
  <anchor x="528.656" y="-421" name="bottom"/>
  <anchor x="634.644" y="1120" name="top"/>
  <outline>
    <contour>
      <point x="220.71" y="1019.96" type="line" name="n00"/>
      <point x="64.702" y="-248.1" type="line" smooth="yes"/>
      <point x="58.042" y="-306.048"/>
      <point x="88.348" y="-338.688" name="n03"/>
      <point x="148.296" y="-338.688" type="curve" smooth="yes"/>
      <point x="254.868" y="-338.688" type="line"/>
      <point x="286.548" y="-80.576" type="line" smooth="yes"/>
      <point x="296.214" y="-1.252"/>
      <point x="301.22" y="108.74"/>
      <point x="277.916" y="174.744" type="curve"/>
      <point x="336.198" y="212.728" type="line"/>
      <point x="435.186" y="1019.96" type="line"/>
    </contour>
    <contour>
      <point x="234.96" y="410.608" type="line"/>
      <point x="203.962" y="159.96"/>
      <point x="271.302" y="10.64" name="n14"/>
      <point x="464.642" y="10.64" type="curve" smooth="yes"/>
      <point x="600.986" y="10.64"/>
      <point x="713.016" y="111.63"/>
      <point x="807.024" y="277.608" type="curve"/>
      <point x="757.072" y="397.512" type="line"/>
      <point x="697.69" y="266.16"/>
      <point x="611.308" y="186.484"/>
      <point x="499.61" y="186.484" type="curve" smooth="yes"/>
      <point x="388.534" y="186.484"/>
      <point x="343.174" y="273.86"/>
      <point x="359.85" y="410.608" type="curve"/>
    </contour>
    <contour>
      <point x="731.088" y="301.584" type="line"/>
      <point x="750.736" y="290.25" type="line"/>
      <point x="726.408" y="83.304"/>
      <point x="824.06" y="-9.998"/>
      <point x="951.368" y="-9.998" type="curve" smooth="yes" name="n30"/>
      <point x="1036.31" y="-9.998"/>
      <point x="1091.27" y="26.304"/>
      <point x="1096.27" y="63.272" type="curve" smooth="yes"/>
      <point x="1106.59" y="149.196" type="line"/>
      <point x="1042.63" y="149.196" type="line" smooth="yes" name="n35"/>
      <point x="972.256" y="149.196"/>
      <point x="932.892" y="193.544"/>
      <point x="944.564" y="289.584" type="curve" smooth="yes"/>
      <point x="1034.24" y="1019.96" type="line"/>
      <point x="819.76" y="1019.96" type="line"/>
    </contour>
  </outline>
  <guideline angle="82.9991" x="536" y="0"/>
</glyph>
<glyph name="paragraph" format="2">
  <advance width="1430.126"/>
  <unicode hex="00B6"/>
  <guideline x="685.914" y="0.0" angle="82.9991"/>
  <outline>
    <contour>
      <point x="804.49" y="1439.96" type="line"/>
      <point x="616.654" y="1439.96" type="line"/>
      <point x="414.662" y="-205.308" type="line"/>
      <point x="602.498" y="-205.308" type="line"/>
    </contour>
    <contour>
      <point x="616.654" y="1439.96" type="line"/>
      <point x="314.666" y="1439.96"/>
      <point x="111.35" y="1241.348"/>
      <point x="111.35" y="996.04" type="curve" smooth="yes"/>
      <point x="111.35" y="788.72"/>
      <point x="270.678" y="644.088"/>
      <point x="520.002" y="644.088" type="curve"/>
      <point x="638.646" y="1258.12" type="line"/>
      <point x="1441.81" y="1258.12" type="line"/>
      <point x="1463.79" y="1439.96" type="line"/>
    </contour>
    <contour>
      <point x="1247.1100000000001" y="1439.96" type="line"/>
      <point x="1059.274" y="1439.96" type="line"/>
      <point x="857.282" y="-205.308" type="line"/>
      <point x="1045.118" y="-205.308" type="line"/>
    </contour>
  </outline>
</glyph>
<glyph name="periodcentered" format="2">
  <advance width="532.236"/>
  <unicode hex="00B7"/>
  <unicode hex="2219"/>
  <guideline x="276.65" y="0.0" angle="82.9991"/>
  <outline>
    <contour>
      <point x="92.72999999999999" y="593.996" type="curve" smooth="yes"/>
      <point x="92.72999999999999" y="501.392"/>
      <point x="168.682" y="425.44"/>
      <point x="261.286" y="425.44" type="curve" smooth="yes"/>
      <point x="356.558" y="425.44"/>
      <point x="432.51" y="501.392"/>
      <point x="432.51" y="593.996" type="curve" smooth="yes"/>
      <point x="432.51" y="689.268"/>
      <point x="356.558" y="765.22"/>
      <point x="261.286" y="765.22" type="curve" smooth="yes"/>
      <point x="168.682" y="765.22"/>
      <point x="92.72999999999999" y="689.268"/>
    </contour>
  </outline>
</glyph>
<glyph name="cedilla" format="2">
  <advance width="736.0"/>
  <unicode hex="00B8"/>
  <guideline x="368.0" y="0.0" angle="82.9991"/>
  <anchor x="400.0" y="-70.0" name="_bottom"/>
  <outline>
    <contour>
      <point x="228.998" y="-242.72" type="curve" smooth="yes"/>
      <point x="214.34199999999998" y="-242.72"/>
      <point x="206.348" y="-250.048"/>
      <point x="201.016" y="-263.372" type="curve"/>
      <point x="172.706" y="-329.976" type="line"/>
      <point x="211.358" y="-346.656"/>
      <point x="255.034" y="-356.668"/>
      <point x="304.7" y="-356.668" type="curve" smooth="yes"/>
      <point x="442.652" y="-356.668"/>
      <point x="541.956" y="-297.012"/>
      <point x="541.956" y="-197.36" type="curve" smooth="yes"/>
      <point x="541.956" y="-127.356"/>
      <point x="488.274" y="-79.04599999999999"/>
      <point x="346.314" y="-57.384" type="curve"/>
      <point x="389.28" y="-99.348" type="line"/>
      <point x="438.944" y="30.636000000000003" type="line"/>
      <point x="318.714" y="30.636000000000003" type="line"/>
      <point x="244.402" y="-139.32" type="line"/>
      <point x="329.74" y="-151.652"/>
      <point x="373.436" y="-164.65800000000002"/>
      <point x="373.436" y="-204.69" type="curve" smooth="yes"/>
      <point x="373.436" y="-236.394"/>
      <point x="349.40999999999997" y="-261.412"/>
      <point x="302.71" y="-261.412" type="curve" smooth="yes"/>
      <point x="261.334" y="-261.412"/>
      <point x="245.326" y="-242.72"/>
    </contour>
  </outline>
</glyph>
<glyph name="ordmasculine" format="2">
  <advance width="750.004"/>
  <unicode hex="00BA"/>
  <guideline x="355.31600000000003" y="0.0" angle="82.9991"/>
  <anchor x="357.01" y="-70.0" name="bottom"/>
  <outline>
    <contour>
      <point x="478.332" y="1455.956" type="curve" smooth="yes"/>
      <point x="282.348" y="1455.956"/>
      <point x="140.38400000000001" y="1316.624"/>
      <point x="140.38400000000001" y="1097.304" type="curve" smooth="yes"/>
      <point x="140.38400000000001" y="932.656"/>
      <point x="241.024" y="828.664"/>
      <point x="402.336" y="828.664" type="curve" smooth="yes"/>
      <point x="597.652" y="828.664"/>
      <point x="736.952" y="968.66"/>
      <point x="736.952" y="1189.312" type="curve" smooth="yes"/>
      <point x="736.952" y="1351.296"/>
      <point x="637.644" y="1455.956"/>
    </contour>
    <contour>
      <point x="417.656" y="951.224" type="curve" smooth="yes"/>
      <point x="338.93600000000004" y="951.224"/>
      <point x="301.576" y="1003.264"/>
      <point x="301.576" y="1094.64" type="curve" smooth="yes"/>
      <point x="301.576" y="1236.024"/>
      <point x="341.628" y="1333.396"/>
      <point x="464.344" y="1333.396" type="curve" smooth="yes"/>
      <point x="538.4" y="1333.396"/>
      <point x="576.428" y="1280.688"/>
      <point x="576.428" y="1189.312" type="curve" smooth="yes"/>
      <point x="576.428" y="1041.268"/>
      <point x="526.384" y="951.224"/>
    </contour>
  </outline>
</glyph>
<glyph name="questiondown" format="2">
  <advance width="830"/>
  <unicode hex="00BF"/>
  <outline>
    <component base="period" yScale="1" xOffset="323.652" yOffset="772.776"/>
    <contour>
      <point x="622.274" y="-120.772" type="line"/>
      <point x="614.946" y="-104.12"/>
      <point x="601.626" y="-95.46"/>
      <point x="582.974" y="-95.46" type="curve" smooth="yes"/>
      <point x="547.666" y="-95.46"/>
      <point x="484.298" y="-184.832"/>
      <point x="342.266" y="-184.832" type="curve" smooth="yes" name="n06"/>
      <point x="263.55" y="-184.832"/>
      <point x="196.838" y="-131.464"/>
      <point x="196.838" y="-30.752" type="curve" smooth="yes"/>
      <point x="196.838" y="186.688"/>
      <point x="504.21" y="212.664"/>
      <point x="510.89" y="394.648" type="curve" smooth="yes"/>
      <point x="517.57" y="560.656" type="line" name="n13"/>
      <point x="377.03" y="560.656" type="line"/>
      <point x="338.374" y="409.968" type="line" smooth="yes"/>
      <point x="301.722" y="269.288"/>
      <point x="-9.646" y="253.96"/>
      <point x="-9.646" y="-68.716" type="curve" smooth="yes"/>
      <point x="-9.646" y="-244.696"/>
      <point x="115.018" y="-354.016"/>
      <point x="304.302" y="-354.016" type="curve" smooth="yes" name="n21"/>
      <point x="458.278" y="-354.016"/>
      <point x="574.926" y="-286.016"/>
      <point x="666.902" y="-208.692" type="curve"/>
    </contour>
  </outline>
  <guideline angle="82.9991" x="320" y="0"/>
</glyph>
<glyph name="Eth" format="2">
  <advance width="1428"/>
  <unicode hex="00D0"/>
  <anchor x="723.956" y="1515.31" name="Top"/>
  <anchor x="523.288" y="-70" name="bottom"/>
  <anchor x="723.956" y="1515.31" name="top"/>
  <outline>
    <contour>
      <point x="1364.61" y="818.66" type="curve" smooth="yes"/>
      <point x="1364.61" y="1182"/>
      <point x="1141.29" y="1439.96"/>
      <point x="780.006" y="1439.96" type="curve" smooth="yes" name="n03"/>
      <point x="277.382" y="1439.96" type="line"/>
      <point x="101.386" y="0" type="line"/>
      <point x="604.01" y="0" type="line" smooth="yes" name="n06"/>
      <point x="1042.63" y="0"/>
      <point x="1364.61" y="334.636"/>
    </contour>
    <contour>
      <point x="1133.48" y="813.332" type="curve" smooth="yes"/>
      <point x="1133.48" y="420.556"/>
      <point x="930.066" y="181.172"/>
      <point x="625.99" y="181.172" type="curve" smooth="yes" name="n12"/>
      <point x="349.83" y="181.172" type="line"/>
      <point x="481.198" y="1258.79" type="line"/>
      <point x="758.026" y="1258.79" type="line" smooth="yes" name="n15"/>
      <point x="994.09" y="1258.79"/>
      <point x="1133.48" y="1086.75"/>
    </contour>
    <contour>
      <point x="10.682" y="659.376" type="line" name="n18"/>
      <point x="746.574" y="659.376" type="line"/>
      <point x="761.894" y="789.932" type="line"/>
      <point x="27.334" y="789.932" type="line" name="n21"/>
    </contour>
  </outline>
  <guideline angle="82.9991" x="723" y="0"/>
</glyph>
<glyph name="multiply" format="2">
  <advance width="1160.0"/>
  <unicode hex="00D7"/>
  <guideline x="580.0" y="0.0" angle="82.9991"/>
  <outline>
    <contour>
      <point x="182.052" y="1008.716" type="line"/>
      <point x="880.716" y="213.388" type="line"/>
      <point x="1002.608" y="323.29200000000003" type="line"/>
      <point x="305.28" y="1119.288" type="line"/>
    </contour>
    <contour>
      <point x="978.048" y="1117.288" type="line"/>
      <point x="84.72" y="321.29200000000003" type="line"/>
      <point x="180.636" y="211.388" type="line"/>
      <point x="1074.632" y="1006.716" type="line"/>
    </contour>
  </outline>
</glyph>
<glyph name="Oslash" format="2">
  <advance width="1499.292"/>
  <unicode hex="00D8"/>
  <guideline x="732.0" y="0.0" angle="82.9991"/>
  <anchor x="868.64" y="1515.314" name="Top"/>
  <anchor x="868.64" y="1515.314" name="top"/>
  <anchor x="606.926" y="-70.0" name="bottom"/>
  <outline>
    <contour>
      <point x="1489.56" y="1503.96" type="line"/>
      <point x="1374.328" y="1503.96" type="line" smooth="yes"/>
      <point x="1324.368" y="1503.96"/>
      <point x="1308.38" y="1487.972"/>
      <point x="1272.408" y="1446.672" type="curve"/>
      <point x="37.047999999999995" y="-109.992" type="line"/>
      <point x="126.304" y="-109.992" type="line" smooth="yes"/>
      <point x="168.936" y="-109.992"/>
      <point x="219.56" y="-92.672"/>
      <point x="258.196" y="-47.376" type="curve"/>
    </contour>
    <contour>
      <point x="1437.576" y="819.328" type="curve" smooth="yes"/>
      <point x="1437.576" y="1183.996"/>
      <point x="1214.2640000000001" y="1455.96"/>
      <point x="854.308" y="1455.96" type="curve" smooth="yes"/>
      <point x="416.356" y="1455.96"/>
      <point x="89.048" y="1102.656"/>
      <point x="89.048" y="619.3" type="curve" smooth="yes"/>
      <point x="89.048" y="254.632"/>
      <point x="312.36" y="-15.332"/>
      <point x="672.98" y="-15.332" type="curve" smooth="yes"/>
      <point x="1111.604" y="-15.332"/>
      <point x="1437.576" y="336.636"/>
    </contour>
    <contour>
      <point x="1206.448" y="814.0" type="curve" smooth="yes"/>
      <point x="1206.448" y="423.88800000000003"/>
      <point x="1001.7" y="172.5"/>
      <point x="697.624" y="172.5" type="curve" smooth="yes"/>
      <point x="461.564" y="172.5"/>
      <point x="319.50800000000004" y="349.88"/>
      <point x="319.50800000000004" y="625.296" type="curve"/>
      <point x="319.50800000000004" y="1014.74"/>
      <point x="525.596" y="1268.128"/>
      <point x="827.0" y="1268.128" type="curve" smooth="yes"/>
      <point x="1063.064" y="1268.128"/>
      <point x="1206.448" y="1089.416"/>
    </contour>
  </outline>
</glyph>
<glyph name="germandbls" format="2">
  <advance width="1187.842"/>
  <unicode hex="00DF"/>
  <guideline x="564.582" y="0.0" angle="82.9991"/>
  <anchor x="730.944" y="1515.314" name="Top"/>
  <anchor x="730.944" y="1515.314" name="top"/>
  <anchor x="497.23400000000004" y="-421.0" name="bottom"/>
  <outline>
    <contour>
      <point x="769.924" y="1461.952" type="curve" smooth="yes"/>
      <point x="480.004" y="1461.952"/>
      <point x="263.364" y="1183.352"/>
      <point x="228.03199999999998" y="904.7" type="curve"/>
      <point x="87.36" y="-248.004" type="line"/>
      <point x="172.612" y="-248.004" type="line" smooth="yes"/>
      <point x="233.888" y="-248.004"/>
      <point x="265.196" y="-215.368"/>
      <point x="283.18" y="-158.748" type="curve"/>
      <point x="331.836" y="37.972" type="line"/>
      <point x="437.18" y="898.04" type="line" smooth="yes"/>
      <point x="463.188" y="1114.764"/>
      <point x="579.264" y="1310.084"/>
      <point x="741.948" y="1310.084" type="curve" smooth="yes"/>
      <point x="870.672" y="1310.084"/>
      <point x="920.68" y="1232.692"/>
      <point x="920.68" y="1156.688" type="curve" smooth="yes"/>
      <point x="920.68" y="943.96"/>
      <point x="598.624" y="944.604"/>
      <point x="598.624" y="685.324" type="curve" smooth="yes"/>
      <point x="598.624" y="458.68"/>
      <point x="901.984" y="486.076"/>
      <point x="901.984" y="307.332" type="curve" smooth="yes"/>
      <point x="901.984" y="207.93200000000002"/>
      <point x="831.272" y="130.54000000000002"/>
      <point x="736.508" y="130.54000000000002" type="curve" smooth="yes"/>
      <point x="620.448" y="130.54000000000002"/>
      <point x="588.432" y="217.89600000000002"/>
      <point x="536.4639999999999" y="217.89600000000002" type="curve" smooth="yes"/>
      <point x="510.48400000000004" y="217.89600000000002"/>
      <point x="492.5" y="206.572"/>
      <point x="479.17600000000004" y="187.92000000000002" type="curve" smooth="yes"/>
      <point x="421.228" y="108.66" type="line"/>
      <point x="486.56" y="36.66"/>
      <point x="585.86" y="-16.0"/>
      <point x="701.208" y="-16.0" type="curve" smooth="yes"/>
      <point x="912.532" y="-16.0"/>
      <point x="1099.808" y="121.344"/>
      <point x="1099.808" y="363.28" type="curve" smooth="yes"/>
      <point x="1099.808" y="622.62"/>
      <point x="820.424" y="617.208"/>
      <point x="820.424" y="745.932" type="curve" smooth="yes"/>
      <point x="820.424" y="887.316"/>
      <point x="1120.5" y="896.0"/>
      <point x="1120.5" y="1164.02" type="curve" smooth="yes"/>
      <point x="1120.5" y="1290.68"/>
      <point x="1024.496" y="1461.952"/>
    </contour>
    <contour>
      <point x="363.248" y="854.064" type="line"/>
      <point x="382.564" y="1003.268" type="line"/>
      <point x="83.348" y="1003.268" type="line"/>
      <point x="74.024" y="918.012" type="line"/>
      <point x="69.36" y="887.372"/>
      <point x="89.344" y="872.716"/>
      <point x="121.32" y="866.056" type="curve"/>
      <point x="245.352" y="847.404" type="line"/>
      <point x="276.0" y="854.064" type="line"/>
    </contour>
  </outline>
</glyph>
<glyph name="ae" format="2">
  <advance width="1489.642"/>
  <unicode hex="00E6"/>
  <guideline x="726.314" y="0.0" angle="82.9991"/>
  <anchor x="819.956" y="1120.0" name="top"/>
  <anchor x="635.272" y="-70.0" name="bottom"/>
  <outline>
    <contour>
      <point x="1106.656" y="1034.628" type="curve" smooth="yes"/>
      <point x="811.36" y="1034.628"/>
      <point x="632.708" y="769.984"/>
      <point x="632.708" y="425.976" type="curve" smooth="yes"/>
      <point x="632.708" y="130.684"/>
      <point x="783.332" y="-14.664"/>
      <point x="974.668" y="-14.664" type="curve" smooth="yes"/>
      <point x="1153.296" y="-14.664"/>
      <point x="1274.286" y="48.0"/>
      <point x="1411.936" y="188.66" type="curve"/>
      <point x="1357.988" y="254.596" type="line" smooth="yes"/>
      <point x="1347.328" y="266.588"/>
      <point x="1333.34" y="274.58"/>
      <point x="1318.684" y="274.58" type="curve" smooth="yes"/>
      <point x="1247.726" y="274.58"/>
      <point x="1202.004" y="153.18800000000002"/>
      <point x="1016.628" y="153.18800000000002" type="curve" smooth="yes"/>
      <point x="880.588" y="153.18800000000002"/>
      <point x="799.892" y="247.90800000000002"/>
      <point x="799.892" y="443.296" type="curve" smooth="yes"/>
      <point x="799.892" y="702.708"/>
      <point x="893.956" y="883.424"/>
      <point x="1080.016" y="883.424" type="curve" smooth="yes"/>
      <point x="1165.388" y="883.424"/>
      <point x="1210.096" y="836.74"/>
      <point x="1210.096" y="770.028" type="curve" smooth="yes"/>
      <point x="1210.096" y="681.976"/>
      <point x="1128.688" y="607.944"/>
      <point x="789.244" y="588.62" type="curve"/>
      <point x="761.268" y="465.392" type="line"/>
      <point x="1273.216" y="468.056"/>
      <point x="1397.2640000000001" y="628.012"/>
      <point x="1397.2640000000001" y="780.684" type="curve" smooth="yes"/>
      <point x="1397.2640000000001" y="921.996"/>
      <point x="1271.96" y="1034.628"/>
    </contour>
    <contour>
      <point x="738.608" y="408.628" type="line"/>
      <point x="780.6" y="648.0" type="line" smooth="yes"/>
      <point x="809.264" y="878.652"/>
      <point x="737.268" y="1037.292"/>
      <point x="512.648" y="1037.292" type="curve" smooth="yes"/>
      <point x="371.332" y="1037.292"/>
      <point x="251.356" y="983.292"/>
      <point x="132.708" y="875.9639999999999" type="curve"/>
      <point x="161.348" y="809.36" type="line"/>
      <point x="172.008" y="788.044"/>
      <point x="189.992" y="771.392"/>
      <point x="217.96800000000002" y="771.392" type="curve" smooth="yes"/>
      <point x="285.92" y="771.392"/>
      <point x="337.964" y="870.104"/>
      <point x="489.336" y="870.104" type="curve" smooth="yes"/>
      <point x="596.724" y="870.104"/>
      <point x="645.408" y="796.724"/>
      <point x="627.4" y="648.0" type="curve" smooth="yes"/>
      <point x="597.396" y="408.628" type="line"/>
    </contour>
    <contour>
      <point x="597.396" y="408.628" type="line"/>
      <point x="573.392" y="216.596"/>
      <point x="465.336" y="127.876"/>
      <point x="337.948" y="127.876" type="curve" smooth="yes"/>
      <point x="259.904" y="127.876"/>
      <point x="210.532" y="168.56400000000002"/>
      <point x="210.532" y="253.95600000000002" type="curve" smooth="yes"/>
      <point x="210.532" y="377.364"/>
      <point x="311.96" y="462.048"/>
      <point x="634.716" y="470.052" type="curve"/>
      <point x="624.728" y="597.944" type="line"/>
      <point x="160.756" y="586.612"/>
      <point x="10.707999999999998" y="411.34"/>
      <point x="10.707999999999998" y="227.312" type="curve" smooth="yes"/>
      <point x="10.707999999999998" y="67.976"/>
      <point x="112.044" y="-16.0"/>
      <point x="298.652" y="-16.0" type="curve" smooth="yes"/>
      <point x="478.608" y="-16.0"/>
      <point x="701.276" y="99.976"/>
      <point x="738.608" y="408.628" type="curve"/>
    </contour>
  </outline>
</glyph>
<glyph name="eth" format="2">
  <advance width="1059.638"/>
  <unicode hex="00F0"/>
  <guideline y="1406.666"/>
  <guideline x="516.6320000000001" y="0.0" angle="82.9991"/>
  <anchor x="744.766" y="1515.314" name="Top"/>
  <anchor x="744.766" y="1515.314" name="top"/>
  <anchor x="439.656" y="-70.0" name="bottom"/>
  <outline>
    <contour>
      <point x="396.664" y="1421.284" type="curve"/>
      <point x="365.36" y="1355.01" type="line"/>
      <point x="346.044" y="1314.042"/>
      <point x="352.376" y="1283.7359999999999"/>
      <point x="399.004" y="1268.75" type="curve"/>
      <point x="733.296" y="1173.13"/>
      <point x="852.072" y="980.09"/>
      <point x="808.736" y="601.332" type="curve"/>
      <point x="780.096" y="596.664" type="line"/>
      <point x="741.428" y="269.948"/>
      <point x="618.068" y="145.864"/>
      <point x="459.3" y="145.864" type="curve" smooth="yes"/>
      <point x="340.58" y="145.864"/>
      <point x="252.532" y="243.90800000000002"/>
      <point x="252.532" y="411.304" type="curve" smooth="yes"/>
      <point x="252.532" y="611.384"/>
      <point x="361.908" y="769.46"/>
      <point x="546.664" y="769.46" type="curve" smooth="yes"/>
      <point x="697.396" y="769.46"/>
      <point x="763.428" y="653.392"/>
      <point x="783.424" y="532.692" type="curve"/>
      <point x="880.008" y="580.648" type="line"/>
      <point x="841.36" y="809.344"/>
      <point x="709.98" y="929.32"/>
      <point x="524.688" y="929.32" type="curve" smooth="yes"/>
      <point x="246.684" y="929.32"/>
      <point x="47.379999999999995" y="687.984"/>
      <point x="47.379999999999995" y="401.312" type="curve" smooth="yes"/>
      <point x="47.379999999999995" y="145.332"/>
      <point x="208.028" y="-13.996"/>
      <point x="434.656" y="-13.996" type="curve" smooth="yes"/>
      <point x="785.9639999999999" y="-13.996"/>
      <point x="983.256" y="278.7"/>
      <point x="983.256" y="725.328" type="curve" smooth="yes"/>
      <point x="983.256" y="1154.668"/>
      <point x="718.596" y="1365.296"/>
    </contour>
    <contour>
      <point x="474.06" y="993.41" type="line"/>
      <point x="706.652" y="1151.412" type="line"/>
      <point x="723.972" y="1143.424" type="line"/>
      <point x="923.578" y="1278.432" type="line" smooth="yes"/>
      <point x="949.89" y="1294.088"/>
      <point x="949.556" y="1319.404"/>
      <point x="939.23" y="1338.388" type="curve"/>
      <point x="904.594" y="1406.658" type="line"/>
      <point x="668.016" y="1249.996" type="line"/>
      <point x="653.36" y="1257.984" type="line"/>
      <point x="447.082" y="1116.972" type="line" smooth="yes"/>
      <point x="430.094" y="1105.978"/>
      <point x="423.104" y="1082.994"/>
      <point x="435.094" y="1062.346" type="curve" smooth="yes"/>
    </contour>
  </outline>
</glyph>
<glyph name="divide" format="2">
  <advance width="1160.0"/>
  <unicode hex="00F7"/>
  <guideline x="580.0" y="0.0" angle="82.9991"/>
  <outline>
    <contour>
      <point x="94.032" y="593.4" type="line"/>
      <point x="1059.988" y="593.4" type="line"/>
      <point x="1079.304" y="749.264" type="line"/>
      <point x="113.348" y="749.264" type="line"/>
    </contour>
    <contour>
      <point x="492.74" y="1010.672" type="curve" smooth="yes"/>
      <point x="492.74" y="943.376"/>
      <point x="541.38" y="890.736"/>
      <point x="612.676" y="890.736" type="curve" smooth="yes"/>
      <point x="693.3" y="890.736"/>
      <point x="766.596" y="955.3679999999999"/>
      <point x="766.596" y="1040.656" type="curve" smooth="yes"/>
      <point x="766.596" y="1108.62"/>
      <point x="715.956" y="1163.26"/>
      <point x="645.992" y="1163.26" type="curve" smooth="yes"/>
      <point x="562.704" y="1163.26"/>
      <point x="492.74" y="1094.628"/>
    </contour>
    <contour>
      <point x="404.74" y="298.672" type="curve" smooth="yes"/>
      <point x="404.74" y="231.376"/>
      <point x="454.048" y="178.736"/>
      <point x="524.676" y="178.736" type="curve" smooth="yes"/>
      <point x="605.968" y="178.736"/>
      <point x="678.596" y="243.368"/>
      <point x="678.596" y="328.656" type="curve" smooth="yes"/>
      <point x="678.596" y="396.62"/>
      <point x="627.956" y="451.26"/>
      <point x="557.992" y="451.26" type="curve" smooth="yes"/>
      <point x="474.704" y="451.26"/>
      <point x="404.74" y="382.628"/>
    </contour>
  </outline>
</glyph>
<glyph name="oslash" format="2">
  <advance width="1040.976"/>
  <unicode hex="00F8"/>
  <guideline x="506.646" y="0.0" angle="82.9991"/>
  <anchor x="600.306" y="1120.0" name="top"/>
  <anchor x="393.962" y="-70.0" name="bottom"/>
  <outline>
    <contour>
      <point x="849.29" y="863.352" type="line"/>
      <point x="869.27" y="863.352" type="line"/>
      <point x="1018.566" y="1067.964" type="line"/>
      <point x="911.99" y="1067.964" type="line" smooth="yes"/>
      <point x="860.698" y="1067.964"/>
      <point x="844.71" y="1051.976"/>
      <point x="813.402" y="1009.344" type="curve" smooth="yes"/>
      <point x="712.738" y="870.684" type="line"/>
      <point x="691.426" y="870.684" type="line"/>
      <point x="168.022" y="153.94" type="line"/>
      <point x="148.042" y="153.94" type="line"/>
      <point x="-3.2660000000000053" y="-52.688" type="line"/>
      <point x="76.002" y="-52.688" type="line" smooth="yes"/>
      <point x="121.298" y="-52.688"/>
      <point x="171.92200000000003" y="-35.367999999999995"/>
      <point x="205.894" y="11.260000000000005" type="curve" smooth="yes"/>
      <point x="307.906" y="151.94" type="line"/>
      <point x="327.886" y="151.94" type="line"/>
    </contour>
    <contour>
      <point x="456.642" y="138.536" type="curve" smooth="yes"/>
      <point x="330.574" y="138.536"/>
      <point x="251.866" y="238.57999999999998"/>
      <point x="251.866" y="412.64" type="curve" smooth="yes"/>
      <point x="251.866" y="683.336"/>
      <point x="380.582" y="882.76"/>
      <point x="560.666" y="882.76" type="curve" smooth="yes"/>
      <point x="686.066" y="882.76"/>
      <point x="765.442" y="784.048"/>
      <point x="765.442" y="608.656" type="curve" smooth="yes"/>
      <point x="765.442" y="340.628"/>
      <point x="636.726" y="138.536"/>
    </contour>
    <contour>
      <point x="437.326" y="-14.664" type="curve" smooth="yes"/>
      <point x="730.65" y="-14.664"/>
      <point x="966.598" y="264.028"/>
      <point x="966.598" y="609.988" type="curve" smooth="yes"/>
      <point x="966.598" y="879.96"/>
      <point x="803.966" y="1035.96"/>
      <point x="579.982" y="1035.96" type="curve" smooth="yes"/>
      <point x="286.658" y="1035.96"/>
      <point x="50.71" y="760.6"/>
      <point x="50.71" y="411.308" type="curve" smooth="yes"/>
      <point x="50.71" y="140.668"/>
      <point x="213.34199999999998" y="-14.664"/>
    </contour>
  </outline>
</glyph>
<glyph name="thorn" format="2">
  <advance width="1068"/>
  <unicode hex="00FE"/>
  <anchor x="375.57" y="1515.31" name="Top"/>
  <anchor x="348.946" y="-421" name="bottom"/>
  <anchor x="375.57" y="1515.31" name="top"/>
  <outline>
    <contour>
      <point x="139.258" y="-338.688" type="line" smooth="yes" name="n00"/>
      <point x="187.218" y="-338.688"/>
      <point x="219.858" y="-303.384"/>
      <point x="224.522" y="-264.744" type="curve" smooth="yes"/>
      <point x="439.858" y="1479.96" type="line" name="n04"/>
      <point x="228.714" y="1479.96" type="line"/>
      <point x="7.382" y="-338.688" type="line"/>
    </contour>
    <contour>
      <point x="227.906" y="145.368" type="line"/>
      <point x="281.238" y="47.336"/>
      <point x="377.922" y="-14.664"/>
      <point x="499.254" y="-14.664" type="curve" smooth="yes" name="n10"/>
      <point x="775.942" y="-14.664"/>
      <point x="995.902" y="320.052"/>
      <point x="995.902" y="659.332" type="curve" smooth="yes"/>
      <point x="995.902" y="909.94"/>
      <point x="889.262" y="1035.29"/>
      <point x="717.926" y="1035.29" type="curve" smooth="yes" name="n16"/>
      <point x="511.274" y="1035.29"/>
      <point x="327.27" y="822.624"/>
      <point x="229.934" y="533.284" type="curve"/>
      <point x="301.202" y="432.028" type="line"/>
      <point x="365.25" y="674.768"/>
      <point x="508.622" y="864.776"/>
      <point x="635.342" y="864.776" type="curve" smooth="yes" name="n23"/>
      <point x="728.734" y="864.776"/>
      <point x="783.426" y="788.064"/>
      <point x="783.426" y="638.02" type="curve" smooth="yes"/>
      <point x="783.426" y="408.64"/>
      <point x="658.718" y="150.524"/>
      <point x="466.622" y="150.524" type="curve" smooth="yes" name="n29"/>
      <point x="389.918" y="150.524"/>
      <point x="305.894" y="181.88"/>
      <point x="259.878" y="270.608" type="curve"/>
    </contour>
  </outline>
  <guideline angle="82.9991" x="496" y="0"/>
</glyph>
<glyph name="Dcroat" format="2">
  <advance width="1427.988"/>
  <unicode hex="0110"/>
  <guideline x="726.996" y="0.0" angle="82.9991"/>
  <anchor x="723.956" y="1515.314" name="Top"/>
  <anchor x="723.956" y="1515.314" name="top"/>
  <anchor x="523.288" y="-70.0" name="bottom"/>
  <outline>
    <contour>
      <point x="1364.606" y="818.66" type="curve" smooth="yes"/>
      <point x="1364.606" y="1181.996"/>
      <point x="1141.294" y="1439.96"/>
      <point x="780.006" y="1439.96" type="curve"/>
      <point x="277.382" y="1439.96" type="line"/>
      <point x="101.386" y="0.0" type="line"/>
      <point x="604.01" y="0.0" type="line" smooth="yes"/>
      <point x="1042.634" y="0.0"/>
      <point x="1364.606" y="334.636"/>
    </contour>
    <contour>
      <point x="1133.478" y="813.332" type="curve" smooth="yes"/>
      <point x="1133.478" y="420.55600000000004"/>
      <point x="930.066" y="181.172"/>
      <point x="625.99" y="181.172" type="curve" smooth="yes"/>
      <point x="349.83000000000004" y="181.172" type="line"/>
      <point x="481.198" y="1258.788" type="line"/>
      <point x="758.026" y="1258.788" type="line" smooth="yes"/>
      <point x="994.09" y="1258.788"/>
      <point x="1133.478" y="1086.748"/>
    </contour>
    <contour>
      <point x="10.681999999999999" y="659.376" type="line"/>
      <point x="746.574" y="659.376" type="line"/>
      <point x="761.894" y="789.932" type="line"/>
      <point x="27.334" y="789.932" type="line"/>
    </contour>
  </outline>
</glyph>
<glyph name="dcroat" format="2">
  <advance width="1069"/>
  <unicode hex="0111"/>
  <anchor x="907.348" y="1515.31" name="Top"/>
  <anchor x="484.994" y="-70" name="bottom"/>
  <anchor x="907.348" y="1515.31" name="top"/>
  <outline>
    <contour>
      <point x="596.386" y="1213.3" type="line" smooth="yes"/>
      <point x="587.726" y="1161.35"/>
      <point x="606.374" y="1138.03"/>
      <point x="663.662" y="1138.03" type="curve" smooth="yes"/>
      <point x="1140.91" y="1138.03" type="line" name="n04"/>
      <point x="1156.23" y="1268.59" type="line" name="n05"/>
      <point x="605.046" y="1268.59" type="line"/>
    </contour>
    <contour>
      <point x="870.894" y="0" type="line" name="n07"/>
      <point x="1053.55" y="1479.96" type="line" name="n08"/>
      <point x="843.742" y="1479.96" type="line"/>
      <point x="697.766" y="304.82" type="line"/>
      <point x="704.426" y="287.488" type="line"/>
      <point x="687.726" y="72.608" type="line"/>
      <point x="687.726" y="31.976"/>
      <point x="703.046" y="0"/>
      <point x="758.334" y="0" type="curve" smooth="yes"/>
    </contour>
    <contour>
      <point x="815.702" y="850.62" type="line"/>
      <point x="762.37" y="948.652"/>
      <point x="665.686" y="1009.98"/>
      <point x="544.354" y="1009.98" type="curve" smooth="yes" name="n19"/>
      <point x="267.666" y="1009.98"/>
      <point x="47.706" y="701.244"/>
      <point x="47.706" y="361.964" type="curve" smooth="yes"/>
      <point x="47.706" y="111.356"/>
      <point x="154.346" y="-14.664"/>
      <point x="325.682" y="-14.664" type="curve" smooth="yes" name="n25"/>
      <point x="532.334" y="-14.664"/>
      <point x="716.338" y="198.672"/>
      <point x="813.674" y="488.012" type="curve"/>
      <point x="742.406" y="589.268" type="line"/>
      <point x="678.358" y="346.528"/>
      <point x="534.986" y="155.852"/>
      <point x="408.266" y="155.852" type="curve" smooth="yes" name="n32"/>
      <point x="314.874" y="155.852"/>
      <point x="260.182" y="233.232"/>
      <point x="260.182" y="383.276" type="curve" smooth="yes"/>
      <point x="260.182" y="612.656"/>
      <point x="384.89" y="844.796"/>
      <point x="576.986" y="844.796" type="curve" smooth="yes" name="n38"/>
      <point x="653.69" y="844.796"/>
      <point x="737.714" y="814.108"/>
      <point x="783.73" y="725.38" type="curve"/>
    </contour>
  </outline>
  <guideline angle="82.9991" x="492" y="0"/>
</glyph>
